<svg width="1920" height="1080" viewBox="0 0 1920 1080" fill="none" xmlns="http://www.w3.org/2000/svg">
<style>
    :root {
        --frame: #FFFFFF;
    }
	.frame {
		fill: var(--frame);
	}
</style>
<g clip-path="url(#clip0_572_783)">
<path d="M499.575 564.131L444.884 638.702L390.192 564.131H368.239C368.239 564.131 368.189 598.002 368.189 612.857V664.424H372.843C372.843 664.424 385.798 664.424 392.28 664.424C392.28 642.03 392.28 605.556 392.28 605.556C392.28 605.556 421.199 642.697 435.198 664.163H454.569C468.561 642.697 497.487 605.556 497.487 605.556C497.487 605.556 497.487 642.03 497.487 664.424C503.961 664.424 516.924 664.424 516.924 664.424H521.571V659.886V612.857C521.571 598.002 521.52 564.131 521.52 564.131H499.568H499.575ZM329.41 564.131C329.41 585.177 329.41 613.139 329.41 634.185C329.41 643.095 327.627 644.879 318.666 644.879C295.467 644.879 269.404 644.879 246.198 644.871C244.798 644.871 243.385 644.813 242 644.647C237.991 644.176 235.954 642.044 235.649 638.035C235.57 636.969 235.606 635.889 235.606 634.816C235.606 613.56 235.606 585.388 235.606 564.124H211.602C211.602 586.163 211.602 615.119 211.609 637.158C211.609 639.05 211.696 640.957 211.848 642.849C212.711 653.745 219.047 661.154 229.697 663.424C232.815 664.091 236.07 664.359 239.267 664.38C253.136 664.482 267.012 664.424 280.88 664.424C294.749 664.424 311.489 664.453 325.357 664.402C327.989 664.395 330.65 664.264 333.245 663.858C342.793 662.38 349.615 657.479 352.189 647.815C352.943 644.98 353.341 641.957 353.356 639.021C353.443 616.358 353.421 586.779 353.407 564.117H329.417L329.41 564.131ZM100.311 644.886C100.311 644.886 100.311 587.439 100.311 564.131H76.3149C76.3149 593.928 76.3149 631.126 76.3149 660.922C76.3149 662.372 76.3149 664.431 76.3149 664.431C76.3149 664.431 91.8583 664.439 97.7958 664.439C131 664.439 169.14 664.439 202.344 664.439V644.893C171.134 644.893 100.319 644.893 100.319 644.893L100.311 644.886ZM662.303 564.965C659.178 564.066 655.807 563.733 652.545 563.704C638.176 563.573 621.335 563.646 606.973 563.646C592.611 563.646 578.402 563.602 564.12 563.682C561.336 563.696 558.479 563.87 555.783 564.516C544.422 567.22 537.702 576.043 537.535 588.983C537.318 605.81 537.455 622.651 537.491 639.485C537.506 644.864 538.673 649.997 541.776 654.485C547.039 662.111 554.644 664.866 563.59 664.859C592.488 664.837 623.857 664.852 652.762 664.845C653.755 664.845 654.741 664.815 655.734 664.772C668.777 664.156 678.622 654.659 678.839 641.624C679.151 623.391 679.093 605.15 678.854 586.917C678.716 576.376 672.054 567.756 662.303 564.958V564.965ZM614.121 648.293C612.388 648.678 610.409 648.467 608.648 648.699C596.105 648.511 585.876 637.839 584.847 625.732C584.455 621.085 585.528 616.743 587.928 612.748C593.409 603.599 605.182 582.379 605.661 581.719C607.676 578.899 609.67 578.87 611.642 581.69C612.62 583.104 623.669 603.816 628.78 611.639C638.306 626.211 629.418 644.901 614.135 648.293H614.121ZM800.519 633.83L713.942 564.131H690.838V664.366H713.942V594.167C735.046 611.139 800.519 664.366 800.519 664.366H823.623V564.131H800.519V633.83ZM815.808 433.905C721.54 386.832 597.642 360.11 465.429 358.138C465.103 358.138 464.777 358.116 464.443 358.109C462.805 358.044 461.159 358 459.513 358C458.962 358 458.411 358.022 457.861 358.029C456.715 358.022 455.57 358 454.417 358C453.764 358 453.112 358.015 452.459 358.015C451.517 358.015 450.582 358 449.639 358C311.525 358 181.494 384.954 83.4849 433.897C-17.2355 484.196 -72.7031 552.061 -72.7031 625C-72.7031 697.939 -17.2355 765.804 83.4849 816.103C181.494 865.046 311.532 892 449.639 892C450.582 892 451.517 891.986 452.459 891.986C453.112 891.986 453.764 892 454.417 892C455.57 892 456.715 891.978 457.861 891.971C458.411 891.971 458.962 892 459.513 892C461.159 892 462.805 891.964 464.443 891.891C464.77 891.891 465.096 891.87 465.429 891.862C597.642 889.89 721.54 863.168 815.808 816.095C916.529 765.797 971.996 697.932 971.996 624.993C971.996 552.053 916.529 484.189 815.808 433.89V433.905ZM824.196 452.123H733.111C726.209 446.193 718.945 440.451 711.289 434.934C681.246 413.265 646.919 395.851 609.713 383.106C692.679 396.786 766.206 420.812 824.196 452.13V452.123ZM713.71 452.123H595.025C592.343 447.375 589.588 442.706 586.674 438.211C568.303 409.894 546.452 388.565 522.492 375.037C597.418 385.592 663.861 413.236 713.71 452.123ZM457.107 370.339C459.492 370.354 461.877 370.368 464.255 370.404C510.327 372.398 551.672 403.47 580.867 452.13H338.182C367.862 402.658 410.107 371.383 457.107 370.346V370.339ZM332.375 438.211C329.461 442.706 326.706 447.375 324.023 452.123H195.152C247.923 410.959 319.289 382.381 399.631 373.348C374.467 386.752 351.529 408.69 332.375 438.211ZM307.538 380.322C267.091 393.263 229.85 411.641 197.566 434.934C189.911 440.451 182.654 446.193 175.745 452.123H75.1042C137.242 418.564 217.221 393.379 307.538 380.322ZM58.3863 788.402H165.204C175.121 797.761 185.902 806.671 197.566 815.08C229.85 838.374 267.091 856.745 307.538 869.693C208.905 855.432 122.59 826.695 58.3863 788.402ZM183.596 788.402H318.862C323.037 796.536 327.54 804.351 332.375 811.804C351.529 841.324 374.46 863.262 399.624 876.667C313.25 866.96 237.259 834.647 183.596 788.402ZM464.255 879.61C461.877 879.646 459.484 879.654 457.099 879.675C407.171 878.566 362.621 843.311 332.796 788.402H586.26C556.892 842.47 513.256 877.486 464.255 879.61ZM586.674 811.804C591.509 804.351 596.018 796.536 600.187 788.402H725.237C674.33 832.255 603.362 863.581 522.485 874.978C546.445 861.45 568.296 840.121 586.666 811.804H586.674ZM609.713 866.909C646.926 854.164 681.253 836.75 711.289 815.08C722.954 806.671 733.734 797.754 743.652 788.402H840.914C780.633 824.353 700.871 851.88 609.713 866.909ZM864.606 773.126H758.68C770.961 759.664 781.568 745.389 790.376 730.36C794.886 722.676 798.851 714.868 802.331 706.973H788.832C777.602 730.81 761.609 753.052 741.68 773.126H607.444C616.513 752.595 623.611 730.36 628.57 706.973H616.013C610.757 730.817 603.261 753.052 593.931 773.126H325.118C315.788 753.045 308.284 730.817 303.028 706.973H290.472C295.438 730.367 302.535 752.602 311.597 773.126H167.219C147.282 753.045 131.261 730.817 120.031 706.973H106.525C110.004 714.875 113.97 722.676 118.479 730.36C127.288 745.382 137.894 759.664 150.175 773.126H34.6942C-25.1595 731.39 -60.4148 680.257 -60.4148 625C-60.4148 565.487 -19.5409 510.752 48.9472 467.391H159.244C143.041 483.572 129.39 501.037 118.479 519.64C117.008 522.155 115.608 524.686 114.238 527.223H128.303C140.765 505.619 157.222 485.508 177.035 467.391H315.969C306.972 485.929 299.693 506.032 294.184 527.223H306.921C312.757 505.619 320.435 485.501 329.7 467.391H589.334C598.599 485.501 606.284 505.619 612.113 527.223H624.851C619.348 506.032 612.062 485.929 603.065 467.391H731.813C751.619 485.508 768.076 505.619 780.546 527.223H794.61C793.247 524.686 791.848 522.155 790.369 519.64C779.458 501.037 765.807 483.572 749.604 467.391H850.346C918.834 510.752 959.708 565.494 959.708 625C959.708 680.257 924.46 731.39 864.599 773.126H864.606Z" class="frame" fill-opacity="0.35"/>
<path fill-rule="evenodd" clip-rule="evenodd" d="M1920 1080H0V0H1920V1080ZM186 230C110.889 230 50 290.889 50 366V894C50 969.111 110.889 1030 186 1030H1734C1809.11 1030 1870 969.111 1870 894V366C1870 290.889 1809.11 230 1734 230H186Z" class="frame"/>
</g>
<defs>
<clipPath id="clip0_572_783">
<rect width="1920" height="1080" class="frame"/>
</clipPath>
</defs>
</svg>
