<svg width="588" height="130" viewBox="0 0 588 130" fill="none" xmlns="http://www.w3.org/2000/svg">
<style>
    :root {
        --tint: #FFFFFF;
    }
	.tinted {
		fill: var(--tint);
	}
</style>
<rect opacity="0.3" x="285.633" y="22" width="7" height="86" class="tinted"/>
<path fill-rule="evenodd" clip-rule="evenodd" d="M505.522 51.2129C508.753 51.2129 512.541 51.1963 515.773 51.2256C516.507 51.2321 517.266 51.3068 517.969 51.5088C520.162 52.1377 521.66 54.0736 521.691 56.4424C521.745 60.5395 521.759 64.6382 521.688 68.7354C521.64 71.6646 519.425 73.799 516.491 73.9375C516.268 73.9473 516.046 73.9541 515.822 73.9541C509.32 73.9557 502.264 73.9521 495.764 73.957C493.751 73.9586 492.04 73.3398 490.856 71.626C490.159 70.6175 489.897 69.4637 489.894 68.2549C489.885 64.472 489.854 60.6875 489.903 56.9062C489.941 53.9983 491.452 52.0159 494.008 51.4082C494.614 51.2633 495.257 51.224 495.883 51.2207C499.095 51.2028 502.292 51.2129 505.522 51.2129ZM506.573 55.2676C506.13 54.6338 505.681 54.6407 505.228 55.2744C505.117 55.4272 502.471 60.1921 501.238 62.2471C500.699 63.1446 500.458 64.1209 500.546 65.165C500.778 67.8855 503.078 70.2838 505.899 70.3262C506.296 70.2741 506.741 70.3207 507.131 70.2344H507.134C510.571 69.4719 512.571 65.2717 510.428 61.9971C509.278 60.2394 506.795 55.5877 506.573 55.2676Z" class="tinted"/>
<path d="M448.484 51.3184C448.488 56.411 448.492 63.0577 448.473 68.1504C448.469 68.8102 448.38 69.49 448.21 70.127C447.631 72.2985 446.097 73.4 443.949 73.7324C443.365 73.8236 442.767 73.8529 442.175 73.8545C439.055 73.8659 435.29 73.8594 432.17 73.8594C429.05 73.8594 425.928 73.8724 422.809 73.8496C422.09 73.8447 421.357 73.7846 420.656 73.6348C418.261 73.1248 416.836 71.4594 416.642 69.0107C416.607 68.5857 416.588 68.1575 416.588 67.7324C416.586 62.7799 416.586 56.2729 416.586 51.3203H421.985V67.2061C421.985 67.4471 421.977 67.6903 421.995 67.9297C422.064 68.8303 422.522 69.3092 423.424 69.415C423.735 69.4525 424.053 69.4658 424.368 69.4658C429.588 69.4675 435.451 69.4668 440.669 69.4668C442.685 69.4668 443.086 69.0664 443.086 67.0645V51.3213L443.088 51.3184H448.484Z" class="tinted"/>
<path d="M391.552 51.3213V69.4688L391.554 69.4707H414.503V73.8623H390.985C389.649 73.8623 386.153 73.8613 386.153 73.8613V51.3213H391.552Z" class="tinted"/>
<path d="M456.759 51.3213L469.062 68.0791L481.364 51.3213H486.301C486.301 51.3213 486.312 58.9334 486.312 62.2715V73.8594H480.895V60.6309C480.871 60.6607 474.382 68.9855 471.24 73.8008H466.883C463.743 68.9909 457.266 60.6793 457.229 60.6309V73.8594H451.81V62.2715C451.81 58.9334 451.82 51.3213 451.82 51.3213H456.759Z" class="tinted"/>
<path d="M529.585 51.3213L549.06 66.9844V51.3213H554.257V73.8467H549.06C549.06 73.8467 534.332 61.8852 529.585 58.0713V73.8467H524.388V51.3213H529.585Z" class="tinted"/>
<path fill-rule="evenodd" clip-rule="evenodd" d="M472.353 5C472.723 5 473.093 5.00976 473.461 5.02441C473.536 5.02604 473.609 5.03123 473.683 5.03125C503.423 5.47438 531.294 11.4795 552.499 22.0576V22.0537C575.155 33.3567 587.633 48.6073 587.633 64.998C587.633 81.3889 575.156 96.6393 552.499 107.942C531.294 118.52 503.423 124.526 473.683 124.969C473.608 124.97 473.534 124.976 473.461 124.976C473.093 124.992 472.723 125 472.353 125C472.229 125 472.104 124.993 471.98 124.993C471.723 124.995 471.465 125 471.206 125C471.059 125 470.912 124.997 470.766 124.997C470.554 124.997 470.343 125 470.131 125C439.064 125 409.813 118.943 387.767 107.944C365.11 96.6413 352.633 81.3909 352.633 65C352.633 48.6091 365.11 33.3587 387.767 22.0557C409.813 11.0573 439.063 5.00004 470.131 5C470.343 5 470.554 5.00293 470.766 5.00293C470.912 5.00293 471.059 5 471.206 5C471.465 5 471.723 5.00521 471.98 5.00684C472.104 5.00521 472.229 5 472.353 5ZM443.848 101.72C450.557 114.059 460.578 121.981 471.81 122.23C472.346 122.226 472.884 122.224 473.419 122.216C484.441 121.738 494.257 113.87 500.863 101.72H443.848ZM410.286 101.72C422.357 112.112 439.451 119.373 458.88 121.555C453.22 118.542 448.061 113.612 443.753 106.979C442.665 105.304 441.653 103.547 440.714 101.72H410.286ZM503.996 101.72C503.058 103.548 502.044 105.304 500.956 106.979C496.824 113.342 491.907 118.135 486.518 121.175C504.711 118.614 520.675 111.574 532.126 101.72H503.996ZM382.121 101.72C396.563 110.325 415.979 116.783 438.166 119.987C429.068 117.078 420.691 112.949 413.429 107.715C410.805 105.825 408.379 103.823 406.148 101.72H382.121ZM536.268 101.72C534.037 103.821 531.612 105.825 528.988 107.715C522.232 112.584 514.51 116.497 506.139 119.361C526.644 115.984 544.586 109.799 558.146 101.72H536.268ZM379.997 29.582C364.591 39.326 355.397 51.6264 355.397 65C355.397 77.4174 363.327 88.9081 376.791 98.2871H402.769C400.006 95.2619 397.62 92.0522 395.639 88.6768C394.624 86.9499 393.732 85.1966 392.949 83.4209H395.987C398.513 88.7792 402.118 93.7744 406.603 98.2871H439.079C437.041 93.675 435.444 88.6781 434.327 83.4209H437.151C438.334 88.7792 440.022 93.7744 442.121 98.2871H502.589C504.688 93.776 506.374 88.7792 507.557 83.4209H510.381C509.265 88.6765 507.669 93.6734 505.629 98.2871H535.824C540.307 93.776 543.905 88.7775 546.431 83.4209H549.468C548.685 85.195 547.793 86.9499 546.778 88.6768C544.797 92.0539 542.411 95.2618 539.648 98.2871H563.475C576.94 88.9081 584.868 77.4174 584.868 65C584.868 51.628 575.674 39.326 560.269 29.582H537.606C541.251 33.2182 544.322 37.143 546.776 41.3232C547.109 41.8885 547.424 42.4572 547.73 43.0273H544.567C541.762 38.1725 538.06 33.6533 533.604 29.582H504.644C506.667 33.7477 508.306 38.2655 509.544 43.0273H506.679C505.368 38.1726 503.639 33.6516 501.555 29.582H443.151C441.067 33.6516 439.34 38.1726 438.027 43.0273H435.162C436.401 38.2654 438.039 33.7477 440.062 29.582H408.811C404.354 33.6533 400.651 38.1725 397.848 43.0273H394.685C394.993 42.4573 395.308 41.8885 395.639 41.3232C398.093 37.143 401.164 33.2182 404.809 29.582H379.997ZM471.811 7.77441C461.238 8.00753 451.736 15.0361 445.06 26.1533H499.65C493.083 15.2185 483.783 8.23515 473.419 7.78711C472.884 7.77896 472.347 7.77572 471.811 7.77246V7.77441ZM506.139 10.6416C514.508 13.5056 522.23 17.4186 528.988 22.2881C530.71 23.5279 532.344 24.8187 533.896 26.1514H554.382C541.338 19.1144 524.8 13.7155 506.139 10.6416ZM438.166 10.0166C417.85 12.9507 399.858 18.61 385.881 26.1514H408.52C410.074 24.8187 411.707 23.5279 413.429 22.2881C420.69 17.0538 429.068 12.9246 438.166 10.0166ZM458.882 8.44922C440.81 10.4792 424.756 16.9011 412.886 26.1514H441.874C442.477 25.0844 443.097 24.0353 443.753 23.0254C448.061 16.3916 453.221 11.4615 458.882 8.44922ZM486.519 8.82812C491.908 11.8681 496.824 16.6619 500.956 23.0254C501.612 24.0354 502.232 25.0843 502.835 26.1514H529.532C518.319 17.4127 503.373 11.2002 486.519 8.82812Z" class="tinted"/>
<path fill-rule="evenodd" clip-rule="evenodd" d="M16.4766 73.1875C18.2344 73.1875 19.6484 73.2656 20.7188 73.4219C21.7969 73.5781 22.6133 73.8477 23.168 74.2305C23.7227 74.6133 24.0977 75.1367 24.293 75.8008C24.4883 76.4648 24.5859 77.3047 24.5859 78.3203V78.7891C24.5859 79.7266 24.4727 80.5352 24.2461 81.2148C24.0273 81.8867 23.6016 82.4336 22.9688 82.8555C22.3359 83.2695 21.3984 83.5625 20.1562 83.7344L24.0703 91.1875H21.8203L17.9883 83.8984C17.832 83.9062 17.668 83.9102 17.4961 83.9102H6.67969V91.1875H4.42969V73.1875H16.4766ZM6.67969 81.9648H16.6289C17.9648 81.9648 19.0156 81.9219 19.7812 81.8359C20.5547 81.7422 21.1211 81.582 21.4805 81.3555C21.8477 81.1289 22.082 80.8086 22.1836 80.3945C22.2852 79.9805 22.3359 79.4453 22.3359 78.7891V78.3203C22.3359 77.5781 22.2656 76.9922 22.125 76.5625C21.9844 76.1328 21.7031 75.8164 21.2812 75.6133C20.8594 75.4102 20.2305 75.2812 19.3945 75.2266C18.5586 75.1641 17.4414 75.1328 16.043 75.1328H6.67969V81.9648Z" class="tinted"/>
<path d="M46.5234 75.0625H31.1016V81.0625H45.8789V82.9375H31.1016V89.3125H46.8516V91.1875H28.8516V73.1875H46.5234V75.0625Z" class="tinted"/>
<path d="M66.8203 75.0625H52.1016V81.0625H66.1523V82.9375H52.1016V91.1875H49.8516V73.1875H66.8203V75.0625Z" class="tinted"/>
<path d="M72.3516 91.1875H70.1016V73.1875H72.3516V91.1875Z" class="tinted"/>
<path d="M97.2773 88.4102H97.3008V73.1875H99.5508V91.1875H97.207L79.125 75.8359H79.1016V91.1875H76.8516V73.1875H79.1953L97.2773 88.4102Z" class="tinted"/>
<path d="M121.734 75.0625H106.312V81.0625H121.09V82.9375H106.312V89.3125H122.062V91.1875H104.062V73.1875H121.734V75.0625Z" class="tinted"/>
<path d="M139.348 87.8711L150.07 73.1875H153.422V91.1875H151.172V75.2266L140.426 90.0039H138.387L127.359 75.2266V91.1875H125.109V73.1875H128.461L139.348 87.8711Z" class="tinted"/>
<path d="M175.641 75.0625H160.219V81.0625H174.996V82.9375H160.219V89.3125H175.969V91.1875H157.969V73.1875H175.641V75.0625Z" class="tinted"/>
<path d="M199.395 88.4102H199.418V73.1875H201.668V91.1875H199.324L181.242 75.8359H181.219V91.1875H178.969V73.1875H181.312L199.395 88.4102Z" class="tinted"/>
<path d="M225.281 75.0625H216.281V91.1875H214.031V75.0625H205.031V73.1875H225.281V75.0625Z" class="tinted"/>
<path d="M71.0391 38.8125C72.6484 38.8125 74.0039 38.8906 75.1055 39.0469C76.2148 39.1953 77.1055 39.4961 77.7773 39.9492C78.457 40.3945 78.9492 41.0547 79.2539 41.9297C79.5586 42.7969 79.7109 43.9492 79.7109 45.3867H77.4609C77.4609 44.2539 77.3594 43.375 77.1562 42.75C76.9531 42.1172 76.6094 41.6602 76.125 41.3789C75.6484 41.0977 74.9961 40.9258 74.168 40.8633C73.3398 40.793 72.2969 40.7578 71.0391 40.7578H66.3164C65.1992 40.7578 64.2578 40.793 63.4922 40.8633C62.7266 40.9258 62.1016 41.0781 61.6172 41.3203C61.1406 41.5547 60.7734 41.9297 60.5156 42.4453C60.2656 42.9609 60.0938 43.6641 60 44.5547C59.9062 45.4453 59.8594 46.5781 59.8594 47.9531V48.4219C59.8594 49.75 59.9062 50.8516 60 51.7266C60.0938 52.6016 60.2656 53.3008 60.5156 53.8242C60.7734 54.3477 61.1406 54.7383 61.6172 54.9961C62.1016 55.2539 62.7266 55.4219 63.4922 55.5C64.2578 55.5781 65.1992 55.6172 66.3164 55.6172H71.0391C72.2969 55.6172 73.3398 55.5898 74.168 55.5352C74.9961 55.4805 75.6484 55.3203 76.125 55.0547C76.6094 54.7891 76.9531 54.3477 77.1562 53.7305C77.3594 53.1055 77.4609 52.2305 77.4609 51.1055H79.7109C79.7109 52.543 79.5586 53.6914 79.2539 54.5508C78.9492 55.4102 78.457 56.0586 77.7773 56.4961C77.1055 56.9258 76.2148 57.2109 75.1055 57.3516C74.0039 57.4922 72.6484 57.5625 71.0391 57.5625H66.3164C64.5586 57.5625 63.1133 57.4414 61.9805 57.1992C60.8477 56.9648 59.9609 56.5273 59.3203 55.8867C58.6875 55.2461 58.2422 54.3242 57.9844 53.1211C57.7344 51.918 57.6094 50.3516 57.6094 48.4219V47.9531C57.6094 46.3594 57.6875 45.0234 57.8438 43.9453C58 42.8594 58.2695 41.9766 58.6523 41.2969C59.0352 40.6172 59.5547 40.0977 60.2109 39.7383C60.875 39.3789 61.707 39.1367 62.707 39.0117C63.707 38.8789 64.9102 38.8125 66.3164 38.8125H71.0391Z" class="tinted"/>
<path fill-rule="evenodd" clip-rule="evenodd" d="M120.656 38.8125C122.062 38.8125 123.266 38.8789 124.266 39.0117C125.266 39.1367 126.094 39.3789 126.75 39.7383C127.414 40.0977 127.938 40.6172 128.32 41.2969C128.703 41.9766 128.973 42.8594 129.129 43.9453C129.285 45.0234 129.363 46.3594 129.363 47.9531V48.4219C129.363 50.3516 129.234 51.918 128.977 53.1211C128.727 54.3242 128.281 55.2461 127.641 55.8867C127.008 56.5273 126.125 56.9648 124.992 57.1992C123.859 57.4414 122.414 57.5625 120.656 57.5625H115.934C114.176 57.5625 112.73 57.4414 111.598 57.1992C110.465 56.9648 109.578 56.5273 108.938 55.8867C108.305 55.2461 107.859 54.3242 107.602 53.1211C107.352 51.918 107.227 50.3516 107.227 48.4219V47.9531C107.227 46.3594 107.305 45.0234 107.461 43.9453C107.617 42.8594 107.887 41.9766 108.27 41.2969C108.652 40.6172 109.172 40.0977 109.828 39.7383C110.492 39.3789 111.324 39.1367 112.324 39.0117C113.324 38.8789 114.527 38.8125 115.934 38.8125H120.656ZM115.934 40.7578C114.816 40.7578 113.875 40.793 113.109 40.8633C112.344 40.9258 111.719 41.0781 111.234 41.3203C110.758 41.5547 110.391 41.9297 110.133 42.4453C109.883 42.9609 109.711 43.6641 109.617 44.5547C109.523 45.4453 109.477 46.5781 109.477 47.9531V48.4219C109.477 49.75 109.523 50.8516 109.617 51.7266C109.711 52.6016 109.883 53.3008 110.133 53.8242C110.391 54.3477 110.758 54.7383 111.234 54.9961C111.719 55.2539 112.344 55.4219 113.109 55.5C113.875 55.5781 114.816 55.6172 115.934 55.6172H120.656C121.773 55.6172 122.715 55.5781 123.48 55.5C124.246 55.4219 124.867 55.2539 125.344 54.9961C125.828 54.7383 126.195 54.3477 126.445 53.8242C126.703 53.3008 126.879 52.6016 126.973 51.7266C127.066 50.8516 127.113 49.75 127.113 48.4219V47.9531C127.113 46.5781 127.066 45.4453 126.973 44.5547C126.879 43.6641 126.703 42.9609 126.445 42.4453C126.195 41.9297 125.828 41.5547 125.344 41.3203C124.867 41.0781 124.246 40.9258 123.48 40.8633C122.715 40.793 121.773 40.7578 120.656 40.7578H115.934Z" class="tinted"/>
<path d="M14.2383 53.8711L24.9609 39.1875H28.3125V57.1875H26.0625V41.2266L15.3164 56.0039H13.2773L2.25 41.2266V57.1875H0V39.1875H3.35156L14.2383 53.8711Z" class="tinted"/>
<path fill-rule="evenodd" clip-rule="evenodd" d="M55.3594 57.1875H52.7344L50.4844 53.0625H36.2344L33.9844 57.1875H31.3594L41.8594 39.1875H44.8594L55.3594 57.1875ZM37.3594 51.1875H49.3594L43.3594 40.6875L37.3594 51.1875Z" class="tinted"/>
<path fill-rule="evenodd" clip-rule="evenodd" d="M95.6016 39.1875C97.3594 39.1875 98.7734 39.2656 99.8438 39.4219C100.922 39.5781 101.738 39.8477 102.293 40.2305C102.848 40.6133 103.223 41.1367 103.418 41.8008C103.613 42.4648 103.711 43.3047 103.711 44.3203V44.7891C103.711 45.7266 103.598 46.5352 103.371 47.2148C103.152 47.8867 102.727 48.4336 102.094 48.8555C101.461 49.2695 100.523 49.5625 99.2812 49.7344L103.195 57.1875H100.945L97.1133 49.8984C96.957 49.9062 96.793 49.9102 96.6211 49.9102H85.8047V57.1875H83.5547V39.1875H95.6016ZM85.8047 47.9648H95.7539C97.0898 47.9648 98.1406 47.9219 98.9062 47.8359C99.6797 47.7422 100.246 47.582 100.605 47.3555C100.973 47.1289 101.207 46.8086 101.309 46.3945C101.41 45.9805 101.461 45.4453 101.461 44.7891V44.3203C101.461 43.5781 101.391 42.9922 101.25 42.5625C101.109 42.1328 100.828 41.8164 100.406 41.6133C99.9844 41.4102 99.3555 41.2812 98.5195 41.2266C97.6836 41.1641 96.5664 41.1328 95.168 41.1328H85.8047V47.9648Z" class="tinted"/>
<path fill-rule="evenodd" clip-rule="evenodd" d="M146.531 39.1875C148.289 39.1875 149.734 39.293 150.867 39.5039C152 39.7148 152.883 40.125 153.516 40.7344C154.156 41.3359 154.602 42.2148 154.852 43.3711C155.109 44.5273 155.238 46.0547 155.238 47.9531V48.4219C155.238 50.2578 155.109 51.7539 154.852 52.9102C154.602 54.0586 154.156 54.9453 153.516 55.5703C152.883 56.1875 152 56.6133 150.867 56.8477C149.734 57.0742 148.289 57.1875 146.531 57.1875H133.172V39.1875H146.531ZM135.422 55.2422H146.531C147.93 55.2422 149.055 55.1758 149.906 55.043C150.758 54.9102 151.406 54.6211 151.852 54.1758C152.297 53.7305 152.598 53.0508 152.754 52.1367C152.91 51.2227 152.988 49.9844 152.988 48.4219V47.9531C152.988 46.6562 152.941 45.5859 152.848 44.7422C152.754 43.8984 152.578 43.2344 152.32 42.75C152.07 42.2578 151.703 41.8984 151.219 41.6719C150.742 41.4375 150.121 41.2891 149.355 41.2266C148.59 41.1641 147.648 41.1328 146.531 41.1328H135.422V55.2422Z" class="tinted"/>
<path fill-rule="evenodd" clip-rule="evenodd" d="M181.5 57.1875H178.875L176.625 53.0625H162.375L160.125 57.1875H157.5L168 39.1875H171L181.5 57.1875ZM163.5 51.1875H175.5L169.5 40.6875L163.5 51.1875Z" class="tinted"/>
<path d="M203.602 41.0625H194.602V57.1875H192.352V41.0625H183.352V39.1875H203.602V41.0625Z" class="tinted"/>
<path fill-rule="evenodd" clip-rule="evenodd" d="M225.633 57.1875H223.008L220.758 53.0625H206.508L204.258 57.1875H201.633L212.133 39.1875H215.133L225.633 57.1875ZM207.633 51.1875H219.633L213.633 40.6875L207.633 51.1875Z" class="tinted"/>
</svg>
