<svg width="235" height="130" viewBox="0 0 235 130" fill="none" xmlns="http://www.w3.org/2000/svg">
<style>
    :root {
        --tint: #FFFFFF;
    }
	.tinted {
		fill: var(--tint);
	}
</style>
<path fill-rule="evenodd" clip-rule="evenodd" d="M152.89 51.2129C156.12 51.2129 159.908 51.1963 163.141 51.2256C163.874 51.2321 164.633 51.3068 165.336 51.5088C167.529 52.1377 169.028 54.0736 169.059 56.4424C169.112 60.5395 169.126 64.6382 169.056 68.7354C169.007 71.6646 166.792 73.799 163.858 73.9375C163.635 73.9473 163.413 73.9541 163.189 73.9541C156.688 73.9557 149.631 73.9521 143.131 73.957C141.119 73.9586 139.408 73.3398 138.224 71.626C137.526 70.6175 137.264 69.4637 137.261 68.2549C137.253 64.472 137.222 60.6875 137.271 56.9062C137.308 53.9983 138.82 52.0159 141.375 51.4082C141.982 51.2633 142.624 51.224 143.25 51.2207C146.463 51.2028 149.659 51.2129 152.89 51.2129ZM153.94 55.2676C153.497 54.6338 153.048 54.6407 152.595 55.2744C152.485 55.4272 149.838 60.1921 148.605 62.2471C148.066 63.1446 147.825 64.1209 147.913 65.165C148.145 67.8855 150.446 70.2838 153.267 70.3262C153.663 70.2741 154.108 70.3207 154.498 70.2344H154.501C157.939 69.4719 159.938 65.2717 157.795 61.9971C156.645 60.2394 154.162 55.5877 153.94 55.2676Z" class="tinted"/>
<path d="M95.8516 51.3184C95.8548 56.411 95.8594 63.0577 95.8398 68.1504C95.8366 68.8102 95.7467 69.49 95.5771 70.127C94.9982 72.2985 93.464 73.4 91.3164 73.7324C90.7327 73.8236 90.1339 73.8529 89.542 73.8545C86.4224 73.8659 82.6568 73.8594 79.5371 73.8594C76.4174 73.8594 73.2955 73.8724 70.1758 73.8496C69.4567 73.8447 68.7246 73.7846 68.0234 73.6348C65.6278 73.1248 64.2029 71.4594 64.0088 69.0107C63.9746 68.5857 63.9551 68.1575 63.9551 67.7324C63.9534 62.7799 63.9531 56.2729 63.9531 51.3203H69.3525V67.2061C69.3525 67.4471 69.3444 67.6903 69.3623 67.9297C69.4309 68.8303 69.8893 69.3092 70.791 69.415C71.1025 69.4525 71.4206 69.4658 71.7354 69.4658C76.9553 69.4675 82.8178 69.4668 88.0361 69.4668C90.0517 69.4668 90.4531 69.0664 90.4531 67.0645V51.3213L90.4551 51.3184H95.8516Z" class="tinted"/>
<path d="M38.9189 51.3213V69.4688L38.9209 69.4707H61.8701V73.8623H38.3525C37.0167 73.8623 33.5205 73.8613 33.5205 73.8613V51.3213H38.9189Z" class="tinted"/>
<path d="M104.126 51.3213L116.429 68.0791L128.731 51.3213H133.668C133.668 51.3213 133.679 58.9334 133.679 62.2715V73.8594H128.262V60.6309C128.238 60.6607 121.749 68.9855 118.607 73.8008H114.25C111.11 68.9909 104.633 60.6793 104.596 60.6309V73.8594H99.1768V62.2715C99.1768 58.9334 99.1875 51.3213 99.1875 51.3213H104.126Z" class="tinted"/>
<path d="M176.952 51.3213L196.427 66.9844V51.3213H201.624V73.8467H196.427C196.427 73.8467 181.699 61.8852 176.952 58.0713V73.8467H171.755V51.3213H176.952Z" class="tinted"/>
<path fill-rule="evenodd" clip-rule="evenodd" d="M119.72 5C120.09 5 120.46 5.00976 120.828 5.02441C120.903 5.02604 120.977 5.03123 121.05 5.03125C150.791 5.47438 178.661 11.4795 199.866 22.0576V22.0537C222.523 33.3567 235 48.6073 235 64.998C235 81.3889 222.523 96.6393 199.866 107.942C178.661 118.52 150.791 124.526 121.05 124.969C120.975 124.97 120.901 124.976 120.828 124.976C120.46 124.992 120.09 125 119.72 125C119.596 125 119.472 124.993 119.348 124.993C119.09 124.995 118.832 125 118.573 125C118.426 125 118.28 124.997 118.133 124.997C117.921 124.997 117.71 125 117.498 125C86.4316 125 57.1804 118.943 35.1338 107.944C12.4772 96.6413 0 81.3909 0 65C3.79139e-06 48.6091 12.4772 33.3587 35.1338 22.0557C57.1804 11.0573 86.43 5.00004 117.498 5C117.71 5 117.921 5.00293 118.133 5.00293C118.28 5.00293 118.426 5 118.573 5C118.832 5 119.09 5.00521 119.348 5.00684C119.472 5.00521 119.596 5 119.72 5ZM91.2148 101.72C97.9239 114.059 107.946 121.981 119.177 122.23C119.713 122.226 120.251 122.224 120.786 122.216C131.809 121.738 141.624 113.87 148.23 101.72H91.2148ZM57.6533 101.72C69.7243 112.112 86.8181 119.373 106.247 121.555C100.587 118.542 95.4286 113.612 91.1201 106.979C90.0325 105.304 89.0203 103.547 88.0811 101.72H57.6533ZM151.363 101.72C150.426 103.548 149.411 105.304 148.323 106.979C144.191 113.342 139.274 118.135 133.885 121.175C152.078 118.614 168.042 111.574 179.493 101.72H151.363ZM29.4883 101.72C43.9305 110.325 63.3465 116.783 85.5332 119.987C76.4351 117.078 68.0578 112.949 60.7959 107.715C58.172 105.825 55.7465 103.823 53.5156 101.72H29.4883ZM183.635 101.72C181.404 103.821 178.979 105.825 176.355 107.715C169.599 112.584 161.877 116.497 153.506 119.361C174.011 115.984 191.954 109.799 205.514 101.72H183.635ZM27.3643 29.582C11.9583 39.326 2.76465 51.6264 2.76465 65C2.76465 77.4174 10.6944 88.9081 24.1582 98.2871H50.1357C47.3733 95.2619 44.9872 92.0522 43.0059 88.6768C41.9915 86.9499 41.0992 85.1966 40.3164 83.4209H43.3545C45.8806 88.7792 49.4851 93.7744 53.9697 98.2871H86.4463C84.4078 93.675 82.8114 88.6781 81.6943 83.4209H84.5186C85.7009 88.7792 87.3895 93.7744 89.4883 98.2871H149.956C152.055 93.776 153.742 88.7792 154.924 83.4209H157.748C156.633 88.6765 155.036 93.6734 152.996 98.2871H183.191C187.674 93.776 191.272 88.7775 193.798 83.4209H196.835C196.052 85.195 195.16 86.9499 194.146 88.6768C192.164 92.0539 189.778 95.2618 187.016 98.2871H210.842C224.307 88.9081 232.235 77.4174 232.235 65C232.235 51.628 223.042 39.326 207.636 29.582H184.974C188.618 33.2182 191.689 37.143 194.144 41.3232C194.476 41.8885 194.791 42.4572 195.098 43.0273H191.935C189.13 38.1725 185.427 33.6533 180.972 29.582H152.011C154.035 33.7477 155.673 38.2655 156.911 43.0273H154.046C152.735 38.1726 151.006 33.6516 148.922 29.582H90.5186C88.4344 33.6516 86.7073 38.1726 85.3945 43.0273H82.5293C83.7687 38.2654 85.4059 33.7477 87.4297 29.582H56.1777C51.7208 33.6533 48.0182 38.1725 45.2148 43.0273H42.0518C42.3599 42.4573 42.6749 41.8885 43.0059 41.3232C45.4602 37.143 48.5311 33.2182 52.1758 29.582H27.3643ZM119.178 7.77441C108.605 8.00753 99.1031 15.0361 92.4268 26.1533H147.018C140.45 15.2185 131.15 8.23515 120.786 7.78711C120.251 7.77896 119.714 7.77572 119.178 7.77246V7.77441ZM153.506 10.6416C161.875 13.5056 169.597 17.4186 176.355 22.2881C178.078 23.5279 179.711 24.8187 181.264 26.1514H201.749C188.705 19.1144 172.167 13.7155 153.506 10.6416ZM85.5332 10.0166C65.2169 12.9507 47.2255 18.61 33.248 26.1514H55.8867C57.4409 24.8187 59.0738 23.5279 60.7959 22.2881C68.0577 17.0538 76.4352 12.9246 85.5332 10.0166ZM106.249 8.44922C88.1767 10.4792 72.1234 16.9011 60.2529 26.1514H89.2412C89.8445 25.0844 90.4646 24.0353 91.1201 23.0254C95.4286 16.3916 100.589 11.4615 106.249 8.44922ZM133.886 8.82812C139.275 11.8681 144.191 16.6619 148.323 23.0254C148.979 24.0354 149.599 25.0843 150.202 26.1514H176.899C165.686 17.4127 150.74 11.2002 133.886 8.82812Z" class="tinted"/>
</svg>
