<svg width="268" height="130" viewBox="0 0 268 130" fill="none" xmlns="http://www.w3.org/2000/svg">
<style>
    :root {
        --tint: #FFFFFF;
    }
	.tinted {
		fill: var(--tint);
	}
</style>
<path d="M151.669 47.1799L132.2 73.6982L112.731 47.1799H104.917C104.917 47.1799 104.899 59.2248 104.899 64.5073V82.8453H106.556C106.556 82.8453 111.167 82.8453 113.474 82.8453C113.474 74.8816 113.474 61.9111 113.474 61.9111C113.474 61.9111 123.769 75.1187 128.752 82.7525H135.648C140.628 75.1187 150.925 61.9111 150.925 61.9111C150.925 61.9111 150.925 74.8816 150.925 82.8453C153.23 82.8453 157.844 82.8453 157.844 82.8453H159.498V81.2314V64.5073C159.498 59.2248 159.48 47.1799 159.48 47.1799H151.666H151.669ZM91.0946 47.1799C91.0946 54.6641 91.0946 64.6078 91.0946 72.0921C91.0946 75.2605 90.4597 75.8948 87.27 75.8948C79.0118 75.8948 69.7342 75.8948 61.4734 75.8922C60.9753 75.8922 60.4721 75.8715 59.9791 75.8122C58.552 75.6447 57.8268 74.8867 57.7185 73.461C57.6901 73.0821 57.703 72.6979 57.703 72.3164C57.703 64.7574 57.703 54.7389 57.703 47.1773H49.1583C49.1583 55.0147 49.1583 65.3117 49.1609 73.1491C49.1609 73.822 49.1918 74.5 49.246 75.1729C49.5531 79.0478 51.8087 81.6826 55.5997 82.4895C56.7094 82.7267 57.8681 82.8221 59.0062 82.8298C63.9431 82.8659 68.8825 82.8453 73.8194 82.8453C78.7563 82.8453 84.7151 82.8556 89.652 82.8376C90.5888 82.835 91.5359 82.7886 92.4598 82.6442C95.8585 82.1183 98.287 80.3755 99.2031 76.9389C99.4715 75.9308 99.6134 74.8558 99.6186 73.8116C99.6496 65.7525 99.6418 55.2339 99.6367 47.1747H91.0972L91.0946 47.1799ZM9.54209 75.8973C9.54209 75.8973 9.54209 55.4685 9.54209 47.1799H1C1 57.7759 1 71.0041 1 81.6001C1 82.1157 1 82.8479 1 82.8479C1 82.8479 6.533 82.8505 8.64659 82.8505C20.4662 82.8505 34.0432 82.8505 45.8628 82.8505V75.8999C34.7529 75.8999 9.54467 75.8999 9.54467 75.8999L9.54209 75.8973ZM209.595 47.4764C208.483 47.1567 207.283 47.0381 206.121 47.0278C201.006 46.9814 195.011 47.0071 189.899 47.0071C184.787 47.0071 179.728 46.9917 174.644 47.02C173.654 47.0252 172.637 47.0871 171.677 47.3165C167.633 48.2781 165.24 51.4157 165.181 56.0176C165.104 62.0014 165.153 67.9903 165.166 73.9766C165.171 75.8896 165.586 77.7149 166.691 79.3107C168.564 82.0229 171.272 83.0026 174.456 83C184.743 82.9923 195.909 82.9974 206.199 82.9949C206.552 82.9949 206.903 82.9845 207.257 82.9691C211.899 82.7499 215.404 79.3726 215.481 74.7372C215.592 68.2533 215.572 61.7668 215.487 55.2828C215.437 51.5343 213.066 48.4689 209.595 47.4738V47.4764ZM192.444 77.109C191.827 77.2457 191.122 77.1709 190.495 77.2534C186.031 77.1864 182.389 73.3914 182.023 69.086C181.883 67.4334 182.265 65.8892 183.119 64.4686C185.07 61.2151 189.262 53.669 189.432 53.4343C190.149 52.4315 190.859 52.4212 191.561 53.424C191.909 53.9268 195.842 61.2924 197.662 64.0742C201.053 69.2562 197.889 75.9025 192.449 77.109H192.444ZM258.796 71.9657L227.977 47.1799H219.752V82.8247H227.977V57.8609C235.489 63.8963 258.796 82.8247 258.796 82.8247H267.02V47.1799H258.796V71.9657Z" class="tinted"/>
</svg>
