<svg width="1920" height="1080" viewBox="0 0 1920 1080" fill="none" xmlns="http://www.w3.org/2000/svg">

<style>
    :root {
        --primary: #EB15B5;
        --secondary: #00C8FF;
    }
    .primary {
        stop-color: var(--primary);
    }
    .secondary {
        stop-color: var(--secondary);
    }
</style>

<g clip-path="url(#clip0_2133_1037)">
<g opacity="0.6" clip-path="url(#clip1_2133_1037)">
<g filter="url(#filter0_f_2133_1037)">
<path d="M2619 1473H-699V-393H2619V1473ZM960 -34C669.498 -34 434 269.551 434 644C434 759.729 456.496 868.684 496.157 964H1423.84C1463.5 868.684 1486 759.729 1486 644C1486 269.551 1250.5 -34 960 -34Z" fill="black"/>
</g>
</g>
<g filter="url(#filter1_f_2133_1037)">
<path d="M0 559V1080H979.5V1029.38C738.951 1029.8 423.795 905.974 0 559Z" fill="url(#paint0_linear_2133_1037)"/>
</g>
<g filter="url(#filter2_f_2133_1037)">
<path d="M2020 1180L2007.01 463C1543.01 463 1770.41 1106.12 1083.5 1107.23L1083.5 1180H2020Z" fill="url(#paint1_linear_2133_1037)"/>
</g>
</g>
<defs>
<filter id="filter0_f_2133_1037" x="-999" y="-693" width="3918" height="2466" filterUnits="userSpaceOnUse" color-interpolation-filters="sRGB">
<feFlood flood-opacity="0" result="BackgroundImageFix"/>
<feBlend mode="normal" in="SourceGraphic" in2="BackgroundImageFix" result="shape"/>
<feGaussianBlur stdDeviation="150" result="effect1_foregroundBlur_2133_1037"/>
</filter>
<filter id="filter1_f_2133_1037" x="-400" y="159" width="1779.5" height="1321" filterUnits="userSpaceOnUse" color-interpolation-filters="sRGB">
<feFlood flood-opacity="0" result="BackgroundImageFix"/>
<feBlend mode="normal" in="SourceGraphic" in2="BackgroundImageFix" result="shape"/>
<feGaussianBlur stdDeviation="200" result="effect1_foregroundBlur_2133_1037"/>
</filter>
<filter id="filter2_f_2133_1037" x="683.5" y="63" width="1736.5" height="1517" filterUnits="userSpaceOnUse" color-interpolation-filters="sRGB">
<feFlood flood-opacity="0" result="BackgroundImageFix"/>
<feBlend mode="normal" in="SourceGraphic" in2="BackgroundImageFix" result="shape"/>
<feGaussianBlur stdDeviation="200" result="effect1_foregroundBlur_2133_1037"/>
</filter>
<linearGradient id="paint0_linear_2133_1037" x1="304" y1="1080" x2="382" y2="4.00004" gradientUnits="userSpaceOnUse">
<stop class="secondary"/>
<stop offset="0.10276" class="primary"/>
<stop offset="0.49223" class="secondary"/>
</linearGradient>
<linearGradient id="paint1_linear_2133_1037" x1="1930" y1="941.5" x2="852.079" y2="134.704" gradientUnits="userSpaceOnUse">
<stop stop-color="white" stop-opacity="0.9"/>
<stop offset="0.100537" class="secondary"/>
<stop offset="0.153148" class="secondary"/>
<stop offset="0.182501" class="primary"/>
<stop offset="1" class="secondary"/>
</linearGradient>
<clipPath id="clip0_2133_1037">
<rect width="1920" height="1080" fill="white"/>
</clipPath>
<clipPath id="clip1_2133_1037">
<rect width="1920" height="1080" fill="white"/>
</clipPath>
</defs>
</svg>
