<svg width="1920" height="1080" viewBox="0 0 1920 1080" fill="none" xmlns="http://www.w3.org/2000/svg">

<style>
    :root {
        --primary: #EB15B5;
        --secondary: #00C8FF;
    }
    .primary {
        stop-color: var(--primary);
    }
    .secondary {
        stop-color: var(--secondary);
    }
</style>

<g clip-path="url(#clip0_2133_1079)">
<rect opacity="0.75" y="1" width="1920" height="1079" fill="url(#paint0_linear_2133_1079)"/>
<rect opacity="0.4" width="1920" height="1079" transform="matrix(-1 0 0 1 1920 1)" fill="url(#paint1_linear_2133_1079)"/>
<g filter="url(#filter0_f_2133_1079)">
<path d="M2120 1280V0H1450.5C1450.5 0 1731.5 67 1731.5 506.002C1731.5 945.004 1119.76 1254.19 793.5 1254.19V1280H2120Z" fill="url(#paint2_linear_2133_1079)"/>
</g>
<g filter="url(#filter1_f_2133_1079)">
<path d="M-200 0V1280H960L1012 1254.19C-33.5 1254.19 225.5 0 225.5 0H-200Z" fill="url(#paint3_linear_2133_1079)"/>
</g>
</g>
<defs>
<filter id="filter0_f_2133_1079" x="468.5" y="-325" width="1976.5" height="1930" filterUnits="userSpaceOnUse" color-interpolation-filters="sRGB">
<feFlood flood-opacity="0" result="BackgroundImageFix"/>
<feBlend mode="normal" in="SourceGraphic" in2="BackgroundImageFix" result="shape"/>
<feGaussianBlur stdDeviation="162.5" result="effect1_foregroundBlur_2133_1079"/>
</filter>
<filter id="filter1_f_2133_1079" x="-525" y="-325" width="1862" height="1930" filterUnits="userSpaceOnUse" color-interpolation-filters="sRGB">
<feFlood flood-opacity="0" result="BackgroundImageFix"/>
<feBlend mode="normal" in="SourceGraphic" in2="BackgroundImageFix" result="shape"/>
<feGaussianBlur stdDeviation="162.5" result="effect1_foregroundBlur_2133_1079"/>
</filter>
<linearGradient id="paint0_linear_2133_1079" x1="0" y1="1" x2="1920" y2="1080" gradientUnits="userSpaceOnUse">
<stop/>
<stop offset="0.45" stop-opacity="0"/>
</linearGradient>
<linearGradient id="paint1_linear_2133_1079" x1="0" y1="0" x2="1920" y2="1079" gradientUnits="userSpaceOnUse">
<stop/>
<stop offset="0.45" stop-opacity="0"/>
</linearGradient>
<linearGradient id="paint2_linear_2133_1079" x1="1548" y1="1086" x2="1877" y2="0.00148742" gradientUnits="userSpaceOnUse">
<stop offset="0.0201605" class="secondary" stop-opacity="0.6"/>
<stop offset="0.2" class="primary"/>
<stop offset="0.35" class="primary"/>
<stop offset="0.63304" stop-color="white" stop-opacity="0.6"/>
<stop offset="0.916135" class="secondary" stop-opacity="0.8"/>
</linearGradient>
<linearGradient id="paint3_linear_2133_1079" x1="195" y1="1095.5" x2="195" y2="0.00192095" gradientUnits="userSpaceOnUse">
<stop offset="0.80477" class="secondary"/>
<stop offset="1" stop-color="white"/>
</linearGradient>
<clipPath id="clip0_2133_1079">
<rect width="1920" height="1080" fill="white"/>
</clipPath>
</defs>
</svg>
