<svg width="440" height="440" viewBox="0 0 440 440" fill="none" xmlns="http://www.w3.org/2000/svg">

<style>
    :root {
        --tint: #006B95;
        --foreground: #010B13;
        --background: #5B7275;
    }
    .foreground {
        fill: var(--foreground);
    }
    .background {
    	fill: var(--background);
    }
</style>

<circle cx="219.972" cy="219.972" r="207.972" class="background"/>
<circle cx="219.964" cy="219.972" r="176.684" class="foreground"/>
<circle cx="219.651" cy="219.658" r="107.784" class="background"/>
<path d="M182.314 226.63C184.548 227.967 187.122 229.942 189.074 231.651C190.039 232.494 190.571 234.256 191.338 234.704C192.705 235.51 195.432 234.917 196.663 236.216C197.696 237.302 197.202 239.095 197.825 240.371C198.675 242.103 210.828 256.39 212.173 257.165C215.158 258.881 220.915 258.539 224.303 260.104C226.293 259.61 230.091 227.025 232.818 226.091C236.676 224.777 240.755 228.56 244.864 229.03C256.41 230.337 269.899 228.772 281.354 229.76C289.291 230.443 288.888 231.886 285.06 238.077C283.792 240.128 279.728 245.293 277.51 245.718C273.758 246.432 261.97 245.619 257.959 244.799C254.374 244.062 238.955 235.996 237.626 236.953L236.137 266.249C239.38 265.041 244.165 266.826 246.976 265.315C249.619 263.894 248.176 259.793 252.87 261.251C255.65 262.117 258.673 268.999 260.876 271.498C267.226 278.683 281.847 282.124 289.549 287.638C290.59 288.383 291.836 289.005 291.57 290.547C290.521 291.512 274.001 291.626 271.791 290.965C265.069 288.96 253.493 274.088 247.903 273.776C245.935 273.662 238.985 274.429 236.593 274.695C228.215 275.645 219.578 278.592 211.33 279.815C203.658 280.954 195.751 280.977 188.019 281.569L186.75 283.711C192.401 283.985 192.151 287.403 191.437 291.937C194.703 295.279 207.182 301.341 203.825 306.453C199.131 313.6 194.597 304.174 191.444 299.913C190.085 298.075 188.968 294.846 187.852 293.631C186.735 292.416 183.978 291.968 183.271 290.547C182.565 289.127 184.077 288.048 183.021 286.37C182.049 284.82 172.797 277.247 170.746 275.797C169.531 274.938 167.784 274.855 167.017 274.209C165.741 273.138 164.358 268.361 160.925 267.776C160.287 268.604 167.237 282.61 168.498 284.121C169.014 284.744 173.921 288.808 174.293 288.876C175.661 289.112 178.539 287.532 180.659 289.066L179.914 292.834L183.704 293.965C182.39 295.629 179.929 295.287 178.076 295.052C165.369 293.426 159.588 281.395 153.702 271.574C153.785 278.037 153.687 283.757 157.112 289.438C157.446 290.904 153.17 293.479 152.57 292.834C152.031 289.56 150.884 286.575 150.382 283.24C149.486 277.225 149.896 268.847 148.415 263.18C147.192 258.501 135.389 248.521 137.743 243.477C138.343 242.194 140.584 241.381 141.047 239.102C141.739 235.692 138.883 234.309 139.103 231.803C139.323 229.296 142.483 227.337 142.734 225.597L142.597 224.564C139.999 224.39 137.394 218.594 138.48 216.885C138.951 216.141 140.614 215.799 141.23 215.032C143.531 212.153 138.867 211.591 139.764 208.31C140.66 205.028 149.228 202.704 152.213 202.453C160.09 201.777 163.173 204.375 164.715 211.994C176.124 207.892 187.107 213.778 182.322 226.638L182.314 226.63ZM177.415 216.353C174.476 213.862 166.781 213.657 164.085 216.589L163.979 221.427C169.554 220.835 173.883 221.853 178.744 224.443C181.798 222.225 179.557 218.169 177.415 216.353Z" class="foreground"/>
<path d="M210.053 157.793H229.809C229.965 157.793 230.039 157.985 229.923 158.09L210.718 175.463C210.602 175.567 210.676 175.76 210.832 175.76H230.252" stroke="white" stroke-width="3.00775"/>
<path d="M263.604 180.228H283.36C283.516 180.228 283.59 180.42 283.474 180.525L264.269 197.897C264.153 198.002 264.227 198.194 264.383 198.194H283.802" stroke="white" stroke-width="3.00775"/>
<path d="M209.729 146.853H279.971C280.128 146.853 280.202 147.045 280.086 147.15L211.063 209.316C210.947 209.42 211.021 209.613 211.177 209.613H283.782" stroke="#EBF928" stroke-width="3.00775"/>
<circle cx="146.919" cy="194.626" r="3.72802" class="foreground"/>
<circle cx="152.875" cy="182.698" r="2.23681" class="foreground"/>
<circle cx="141.684" cy="177.479" r="4.47302" class="foreground"/>
<circle cx="147.655" cy="167.042" r="1.49121" class="foreground"/>
<path d="M130.525 312.309L100.852 327.202L113.112 304.557L87.8887 310.446L110.151 285.973L113.025 289.684L100.35 303.19L121.406 298.24L111.156 317.193L127.63 308.564L130.525 312.302V312.309Z" class="background"/>
<path d="M75.9112 271.415L80.5272 282.657L87.2602 279.89L82.7782 268.977L86.7577 267.342L91.2397 278.255L100.606 274.41L95.9897 263.175L99.9625 261.54L106.314 277.009L78.2828 288.526L71.9316 273.057L75.9112 271.422V271.415Z" class="background"/>
<path d="M96.891 253.795L63.7752 251.464L85.8703 238.252L61.1758 230.44L92.8043 220.753L93.3805 225.409L75.5865 230.554L96.2278 237.04L77.737 248.107L96.3082 249.092L96.891 253.788V253.795Z" class="background"/>
<path d="M94.0293 211.072L64.0488 206.651L64.7121 202.149C65.0069 200.145 65.3954 198.564 65.8845 197.419C66.3736 196.26 67.0502 195.322 67.9078 194.605C68.7921 193.875 69.8439 193.352 71.0565 193.024C72.2826 192.689 73.4885 192.608 74.6609 192.783C76.8115 193.097 78.5064 194.189 79.7526 196.052C80.5297 194.538 81.6686 193.426 83.1626 192.702C84.6432 191.972 86.2779 191.731 88.0667 191.999C90.4115 192.347 92.2673 193.466 93.6407 195.362C94.4915 196.508 95.0208 197.727 95.2218 199.027C95.396 200.44 95.3357 202.169 95.0342 204.219L94.0226 211.072H94.0293ZM77.5886 204.031L77.7963 202.611C78.0442 200.929 77.8566 199.643 77.2268 198.745C76.5971 197.854 75.5586 197.298 74.1115 197.084C72.6979 196.876 71.5724 197.117 70.7216 197.814C69.8707 198.511 69.3348 199.623 69.107 201.15L68.8725 202.745L77.5886 204.031ZM90.445 205.927L90.8604 203.133C91.1619 201.09 90.981 199.529 90.3244 198.45C89.6076 197.311 88.5825 196.648 87.2493 196.447C85.9563 196.26 84.7973 196.581 83.7723 197.425C82.7673 198.243 82.084 199.871 81.7222 202.303L81.3872 204.594L90.4584 205.934L90.445 205.927Z" class="background"/>
<path d="M80.9276 159.004L76.6265 170.367L83.4399 172.946L87.6137 161.912L91.6335 163.433L87.4597 174.467L96.9328 178.051L101.234 166.689L105.254 168.209L99.3379 183.853L70.9922 173.127L76.9079 157.483L80.9276 159.004Z" class="background"/>
<path d="M104.637 143.669L120.582 142.885L117.52 147.568L102.4 148.017L101.951 148.707L112.328 155.5L109.823 159.326L84.4648 142.738L87.3992 138.256C89.59 134.906 91.8075 132.896 94.0385 132.233C96.5173 131.509 98.9024 131.898 101.2 133.399C102.996 134.571 104.202 136.099 104.825 137.974C105.441 139.85 105.381 141.746 104.637 143.669ZM98.6143 146.53L99.4115 145.317C101.783 141.693 101.582 138.973 98.8153 137.164C96.2225 135.469 93.7705 136.38 91.4592 139.904L90.5681 141.264L98.6143 146.53Z" class="background"/>
<path d="M140.495 117.708L152.239 109.133L154.772 112.603L136.957 125.614L133.634 95.8343L123.585 103.177L121.053 99.7066L137.172 87.9355L140.495 117.715V117.708Z" class="background"/>
<path d="M154.592 78.9305L167.73 106.238L163.61 108.221L150.479 80.9069L154.599 78.9238L154.592 78.9305Z" class="background"/>
<path d="M188.237 72.1309L185.256 75.2462C184.265 74.2747 183.414 73.6919 182.71 73.511C181.967 73.2832 181.096 73.31 180.104 73.5847C178.878 73.9263 177.96 74.5561 177.351 75.4739C176.734 76.3784 176.567 77.3498 176.862 78.3815C177.257 79.8085 178.637 80.6594 180.995 80.9341L184.238 81.3092C186.877 81.604 188.934 82.2874 190.415 83.366C191.895 84.4379 192.92 85.9788 193.476 87.982C194.227 90.6685 193.952 93.1339 192.652 95.385C191.346 97.6561 189.356 99.1568 186.683 99.9072C184.151 100.617 181.846 100.45 179.776 99.4114C177.732 98.3663 176.125 96.5373 174.966 93.9312L179.153 91.7002C179.829 93.355 180.519 94.447 181.203 94.9562C182.462 95.9611 183.963 96.2224 185.698 95.7401C187.072 95.3582 188.083 94.581 188.733 93.4019C189.383 92.2295 189.51 90.9365 189.115 89.5229C188.954 88.9534 188.733 88.4577 188.445 88.0289C188.157 87.6001 187.788 87.2316 187.346 86.9302C186.904 86.6287 186.368 86.3741 185.738 86.1798C185.115 85.9788 184.392 85.8247 183.568 85.7175L180.426 85.329C175.957 84.7595 173.271 82.8434 172.359 79.5942C171.75 77.4034 172.071 75.3333 173.338 73.3904C174.597 71.4341 176.473 70.1076 178.972 69.4109C182.335 68.4729 185.424 69.3774 188.231 72.1242L188.237 72.1309Z" class="background"/>
<path d="M220.965 68.6468L217.387 71.0519C216.623 69.8929 215.92 69.1425 215.27 68.8143C214.593 68.4324 213.736 68.2716 212.704 68.3319C211.438 68.4056 210.406 68.8277 209.609 69.5914C208.812 70.3418 208.45 71.2596 208.51 72.3315C208.597 73.8054 209.763 74.9309 212.007 75.7081L215.096 76.7666C217.608 77.6175 219.477 78.7296 220.697 80.0896C221.916 81.4563 222.586 83.1781 222.707 85.2549C222.867 88.0352 222.07 90.3935 220.322 92.3163C218.56 94.2524 216.295 95.2975 213.521 95.4583C210.895 95.6124 208.684 94.9559 206.882 93.5021C205.107 92.0483 203.928 89.9178 203.352 87.1174L207.921 85.8311C208.229 87.5931 208.671 88.8057 209.227 89.4488C210.245 90.7017 211.652 91.2778 213.454 91.1706C214.875 91.0902 216.034 90.5476 216.918 89.5359C217.802 88.531 218.204 87.2916 218.117 85.8311C218.084 85.2415 217.97 84.7123 217.782 84.2299C217.588 83.7475 217.307 83.3121 216.938 82.9235C216.57 82.5349 216.101 82.1731 215.531 81.8449C214.962 81.5166 214.285 81.2151 213.515 80.927L210.527 79.8819C206.286 78.3678 204.068 75.9292 203.874 72.5593C203.74 70.2882 204.504 68.3386 206.152 66.7039C207.8 65.0625 209.917 64.1648 212.503 64.0174C215.994 63.8164 218.814 65.3573 220.965 68.6401V68.6468Z" class="background"/>
<path d="M233.782 79.1246C234.633 74.944 236.898 71.668 240.576 69.2963C244.24 66.918 248.213 66.1676 252.494 67.0453C256.728 67.9095 260.044 70.1606 262.45 73.8051C264.868 77.4497 265.645 81.3957 264.781 85.6432C263.91 89.9108 261.646 93.2204 257.988 95.5719C254.316 97.9302 250.31 98.6738 245.975 97.7828C242.143 96.9989 238.968 94.969 236.462 91.6929C233.702 88.0684 232.811 83.8812 233.782 79.1246ZM238.291 80.1027C237.621 83.3855 238.17 86.3065 239.946 88.8724C241.708 91.4383 244.019 93.0127 246.893 93.5956C250.009 94.232 252.856 93.6894 255.435 91.9743C258.021 90.2324 259.636 87.8005 260.272 84.6718C260.915 81.5029 260.406 78.6355 258.725 76.0629C257.063 73.4768 254.678 71.8689 251.576 71.2392C248.488 70.6094 245.661 71.1521 243.088 72.8739C240.522 74.5689 238.927 76.9807 238.284 80.1094L238.291 80.1027Z" class="background"/>
<path d="M288.027 79.353L279.512 95.4989C278.299 97.8035 277.783 99.6861 277.978 101.147C278.286 103.277 279.465 104.878 281.502 105.957C283.552 107.035 285.542 107.102 287.478 106.158C288.771 105.521 290.037 104.041 291.27 101.703L299.785 85.5567L303.831 87.6872L294.733 104.945C293.246 107.772 291.136 109.635 288.416 110.533C285.361 111.524 282.393 111.263 279.512 109.742C276.631 108.221 274.742 105.923 273.844 102.848C273.047 100.095 273.395 97.301 274.883 94.4738L283.981 77.2158L288.027 79.3463V79.353Z" class="background"/>
<path d="M342.357 128.882L338.27 127.509C338.725 126.195 338.893 125.184 338.759 124.467C338.645 123.696 338.256 122.919 337.58 122.136C336.749 121.171 335.791 120.608 334.699 120.447C333.614 120.273 332.669 120.541 331.858 121.238C330.74 122.203 330.552 123.81 331.302 126.068L332.341 129.163C333.192 131.676 333.446 133.833 333.105 135.628C332.763 137.424 331.805 139.005 330.23 140.365C328.12 142.187 325.769 142.984 323.176 142.763C320.57 142.542 318.359 141.383 316.543 139.28C314.828 137.29 313.997 135.133 314.058 132.821C314.138 130.523 315.11 128.299 316.972 126.135L320.771 128.976C319.558 130.296 318.868 131.374 318.694 132.218C318.319 133.786 318.721 135.253 319.9 136.62C320.831 137.699 321.963 138.288 323.303 138.375C324.643 138.462 325.869 138.034 326.974 137.075C327.423 136.694 327.778 136.278 328.04 135.836C328.308 135.394 328.482 134.905 328.569 134.369C328.656 133.84 328.656 133.243 328.569 132.593C328.482 131.944 328.314 131.22 328.066 130.436L327.082 127.428C325.702 123.14 326.291 119.898 328.85 117.694C330.579 116.206 332.589 115.624 334.88 115.945C337.185 116.253 339.181 117.392 340.876 119.355C343.154 122.002 343.65 125.177 342.357 128.889V128.882Z" class="background"/>
<path d="M341.84 145.43C345.686 143.574 349.659 143.394 353.779 144.874C357.886 146.348 360.894 149.055 362.797 152.987C364.672 156.873 364.894 160.879 363.453 165.006C362.019 169.14 359.353 172.148 355.454 174.031C351.528 175.926 347.522 176.127 343.435 174.647C339.328 173.153 336.32 170.419 334.391 166.433C332.689 162.909 332.381 159.158 333.466 155.178C334.672 150.79 337.466 147.541 341.834 145.43H341.84ZM343.797 149.611C340.782 151.064 338.792 153.275 337.821 156.243C336.849 159.198 337.003 161.991 338.276 164.631C339.656 167.492 341.814 169.435 344.741 170.446C347.696 171.444 350.61 171.257 353.484 169.863C356.392 168.456 358.368 166.313 359.393 163.418C360.438 160.531 360.278 157.657 358.897 154.81C357.524 151.969 355.38 150.046 352.453 149.048C349.552 148.036 346.664 148.224 343.79 149.611H343.797Z" class="background"/>
<path d="M375.945 206.457L370.605 207.388C372.327 204.407 372.95 201.519 372.461 198.732C371.925 195.664 370.371 193.272 367.798 191.557C365.239 189.828 362.372 189.239 359.203 189.788C356.074 190.337 353.615 191.852 351.833 194.344C350.051 196.836 349.428 199.61 349.964 202.678C350.239 204.266 350.734 205.566 351.445 206.584C351.813 207.16 352.269 207.736 352.825 208.326C353.381 208.915 354.031 209.518 354.774 210.148L349.341 211.099C347.432 208.775 346.232 206.195 345.737 203.361C344.993 199.094 345.844 195.195 348.296 191.657C350.775 188.127 354.131 185.996 358.372 185.253C362.177 184.589 365.782 185.253 369.198 187.249C373.386 189.708 375.911 193.386 376.769 198.303C377.238 200.983 376.963 203.703 375.945 206.457Z" class="background"/>
<path d="M377.792 226.696L347.49 226.153L347.571 221.577L377.873 222.12L377.792 226.696Z" class="background"/>
<path d="M369.095 259.39L371.393 247.458L364.245 246.085L362.014 257.668L357.793 256.858L360.024 245.274L350.075 243.358L347.777 255.29L343.557 254.479L346.719 238.059L376.478 243.78L373.323 260.201L369.102 259.39H369.095Z" class="background"/>
<path d="M361.223 281.834L337.172 271.938L338.914 267.711L362.965 277.606L365.618 271.161L369.591 272.796L362.556 289.893L358.584 288.258L361.23 281.834H361.223Z" class="background"/>
<path d="M336.894 299.621L356.671 301.363L353.663 305.677L339.768 304.424L345.718 317.053L342.71 321.368L334.282 303.373L323.549 295.876L326.168 292.124L336.901 299.614L336.894 299.621Z" class="background"/>
</svg>
