<svg width="1920" height="1080" viewBox="0 0 1920 1080" fill="none" xmlns="http://www.w3.org/2000/svg">
<style>
    :root {
        --tint: #000000;
    }
	.primary {
		fill: white;
	}
	.darken {
	    fill: black;
        fill-opacity: 0.35;
	}
	.tinted {
		fill: var(--tint);
	}
</style>
<g clip-path="url(#clip0_339_1665)">
<rect width="1920" height="1080" class="darken"/>
<path d="M317.653 1009.99C289.121 1037.96 275.337 1067.1 272.018 1074.55L272.257 1075.44L270.115 1076.02L269.459 1073.57C251.252 1065.42 195.065 1046.18 127.401 1066.72C115.54 1070.33 104.644 1074.85 94.6572 1080H89.918C101.016 1073.97 113.269 1068.7 126.758 1064.6C193.204 1044.43 248.694 1062.22 268.725 1070.83L252.291 1009.48L254.432 1008.91L271.116 1071.19C275.904 1060.96 289.798 1034.19 316.102 1008.4L317.653 1009.99Z" class="primary"/>
<path d="M273.475 1080H271.181L270.113 1076.02L272.254 1075.44L273.475 1080Z" class="primary"/>
<path d="M558.337 1080H555.777L515.207 1009.75L517.127 1008.64L558.337 1080Z" class="primary"/>
<path d="M839.681 1080H837.121L796.551 1009.75L798.471 1008.64L839.681 1080Z" class="primary"/>
<path d="M1175.03 1080H1172.47L1131.92 1009.75L1133.84 1008.64L1175.03 1080Z" class="primary"/>
<path d="M1450.36 1080H1447.8L1407.23 1009.75L1409.15 1008.64L1450.36 1080Z" class="primary"/>
<path fill-rule="evenodd" clip-rule="evenodd" d="M1920 863.856C1867.71 927.194 1856.25 995.18 1853.11 1023.09L1910.02 1080H1906.89L1851.49 1024.6C1823.55 1018.02 1752.13 1005.3 1671.74 1036.83C1642.36 1048.36 1617.55 1063.54 1596.79 1080H1593.25C1614.6 1062.75 1640.29 1046.79 1670.93 1034.77C1748.79 1004.23 1818.29 1014.89 1848.53 1021.65L1748.81 921.92L1750.38 920.352L1851.11 1021.09C1854.59 991.655 1866.94 923.498 1920 860.395V863.856ZM1851.89 1023.73L1851.89 1023.73L1851.93 1023.7V1023.69L1851.89 1023.73ZM1852.06 1023.56H1852.06L1852.06 1023.56H1852.06L1852.06 1023.56Z" class="primary"/>
<path fill-rule="evenodd" clip-rule="evenodd" d="M1716.73 81.0146C1716.73 150.412 1773.02 206.676 1842.42 206.676H1842.97V873.204L1842.38 873.159C1839.46 872.938 1836.53 872.807 1833.55 872.807H1833.53C1764.13 872.807 1707.87 929.093 1707.87 998.49V999.044H210.148V998.49C210.148 929.071 153.862 872.807 84.4648 872.807H83.9102V206.676H84.4648C153.885 206.676 210.148 150.412 210.148 81.0146V80.46H1716.73V81.0146ZM211.254 81.5693C210.996 141.769 168.772 192.063 112.312 204.712V236.317H111.203V204.955C102.757 206.768 93.9988 207.742 85.0195 207.78V871.7C154.589 871.998 210.956 928.344 211.254 997.936H1706.76C1707.06 928.181 1763.7 871.697 1833.53 871.697H1833.55C1836.36 871.697 1839.12 871.815 1841.86 872.011V207.78C1772.29 207.482 1715.93 151.139 1715.63 81.5693H211.254Z" class="primary"/>
<path d="M76.7529 921.652C107.415 912.093 136.091 910.445 160.481 912.271L160.316 914.481C136.154 912.672 107.764 914.306 77.4131 923.769C43.2113 934.434 17.5043 951.617 0 966.354V963.469C17.633 948.862 43.1251 932.139 76.7529 921.652Z" class="primary"/>
<path d="M73.8887 683.928C69.1025 684.499 64.3392 685.377 59.6211 686.584C31.536 693.771 12.3055 710.452 0 725.564V722.096C12.5826 707.269 31.6961 691.441 59.0713 684.436C63.8863 683.204 68.7461 682.309 73.626 681.727L73.8887 683.928Z" class="primary"/>
<path d="M1920 626.02V628.579L1852.57 589.651L1853.68 587.731L1920 626.02Z" class="primary"/>
<path d="M36.8994 476.035C50.4731 472.552 63.0371 472.912 73.9746 475.113L73.5381 477.287C62.8818 475.143 50.6589 474.793 37.4512 478.183C21.0352 482.395 8.77225 490.917 0 499.527V496.454C8.87676 488.139 20.9836 480.119 36.8994 476.035Z" class="primary"/>
<path fill-rule="evenodd" clip-rule="evenodd" d="M283.547 0C277.03 5.50259 268.858 14.9739 266.388 29.1279L266.205 30.252C263.549 47.9865 271.521 61.5053 276.573 68.0654H276.929C278.153 68.0654 279.146 69.0578 279.146 70.2822C279.146 71.5067 278.153 72.499 276.929 72.499H269.125C268.1 72.499 267.24 71.8031 266.986 70.8584L153.76 40.5117C142.928 44.1422 135.173 53.0821 133.85 63.3975C132.551 73.4367 137.806 81.0887 139.396 83.2031L195.031 115.326L193.923 117.246L135.612 83.5791C124.192 84.2797 114.385 90.9167 110.433 100.545C106.597 109.908 109.692 118.664 110.683 121.114L157.814 168.246L156.246 169.814L106.907 120.476C95.7002 118.21 84.5335 122.071 78.2314 130.347L78.2324 130.348C72.0786 138.449 72.8291 147.737 73.1494 150.325L99.7939 196.453L97.874 197.562L69.6455 148.692C59.4122 143.604 47.6397 144.457 39.4082 150.819L39.4072 150.82C31.3513 157.033 29.6815 166.205 29.3242 168.792L61.1455 287.495C62.7919 283.041 66.3033 275.428 72.96 268.452L74.5635 269.983C65.9924 278.966 62.8488 289.069 62.1953 291.4L74.8301 338.633L72.6885 339.206L60.502 293.654C58.2769 291.26 42.672 275.444 19.0107 278.122C11.4764 278.974 5.16046 281.473 0 284.568V281.999C5.17936 279.071 11.4144 276.749 18.7607 275.919C38.8811 273.642 53.3912 284.117 59.3818 289.478L26.3721 166.338C18.7993 159.637 8.85574 157.118 0 159.4V157.115C8.53227 155.1 17.8454 157.162 25.3955 162.703L4.11328 83.2744L5.17578 82.9883L5.1748 82.9873L4.10938 83.2627L3.8623 82.3018C2.92932 82.0138 1.60802 81.6727 0 81.459V79.2236C1.22554 79.3723 2.30657 79.5919 3.20801 79.8184L0 67.8516V59.292L5.67871 80.4727C7.1489 78.6407 9.35938 76.4127 12.4932 74.5791C17.2778 71.7775 21.9436 71.2036 24.8818 71.1523L7.97559 41.8828C7.04503 41.5005 4.22489 40.6004 1.1875 41.9824C0.7545 42.1818 0.35976 42.4086 0 42.6533V40.0938C0.0871641 40.0507 0.174891 40.0071 0.264648 39.9658L0.268555 39.9639C2.57085 38.9162 4.75768 38.8998 6.40527 39.165L0 28.0557V23.6182L8.43066 38.2383C8.93987 36.7141 9.90516 34.9042 11.7295 33.4004L11.7305 33.3994C13.6971 31.7845 15.8216 31.2142 17.4824 31.0479L3.80469 17.3711L4.58887 16.5859L4.58594 16.5869L3.80371 17.3691L3.23926 16.8057C2.54271 16.8679 1.22871 17.1313 0.15625 18.2588L0.152344 18.2637C0.0989802 18.3191 0.0492286 18.3763 0 18.4326V15.5713C0.470351 15.2907 0.937653 15.0879 1.375 14.9424L0 13.5674V10.4307L3.29883 13.7295C3.40763 13.0073 3.64097 12.2178 4.08105 11.4189L4.08301 11.415C4.72432 10.2607 5.57477 9.48032 6.36133 8.95898L0 5.28809V2.72852L7.87207 7.27148C7.79077 6.54469 7.812 5.72123 8.03125 4.83594C8.34641 3.56363 8.96483 2.59405 9.58789 1.88867L2.54199 0H13.165C13.3717 0.310009 13.5766 0.54652 13.7266 0.703125L32.3594 5.69727C31.6518 4.27455 31.0528 2.33049 31.2598 0H33.4883C33.4825 0.0495607 33.4756 0.099244 33.4707 0.149414L33.4717 0.150391C33.164 3.41475 34.8783 5.75396 35.5498 6.55371L69.0479 15.5342C68.1971 13.3441 67.3683 10.3105 67.3516 6.6582L67.3525 6.65723C67.3366 4.17891 67.6946 1.94394 68.2217 0H70.5254C70.0018 1.75091 69.6186 3.78231 69.5732 6.04688L69.5693 6.64648V6.64844C69.589 10.9299 70.8322 14.2826 71.7725 16.2637L152.665 37.9229C149.587 34.7057 145.65 29.2856 144.646 21.7666L144.58 21.2334C143.72 13.7133 146.026 6.15303 150.723 0H153.571C148.352 6.08964 145.821 13.8636 146.844 21.4707C148.181 31.4867 155.213 37.5083 157.322 39.1729L267.556 68.7158C267.957 68.3138 268.512 68.0654 269.125 68.0654H273.808C268.582 60.8396 261.404 47.3419 264.013 29.9238C266.129 15.8519 273.608 6.08888 280.203 0H283.547ZM26.1621 73.3789C23.7737 73.297 19.0545 73.4891 14.1338 76.1973L13.6133 76.4932C9.92016 78.6541 7.63189 81.4198 6.39453 83.2246L28.0684 164.113C29.3087 159.837 32.0338 153.706 38.0527 149.064C46.2527 142.727 57.5537 141.475 67.7607 145.438L26.1621 73.3789ZM70.4434 147.882L70.4414 147.886L70.7344 147.716V147.713L70.4434 147.882ZM45.4023 58.9697C42.9912 59.5301 38.2415 61.0177 34.0869 65.2305C31.0837 68.273 29.5913 71.5385 28.8506 73.6025L70.7305 146.147C70.8226 141.699 71.8655 135.064 76.4668 129.007L76.4678 129.006C82.749 120.757 93.3596 116.631 104.253 117.82L45.4023 58.9697ZM60.2773 40.083C58.1004 41.2387 53.8911 43.9097 50.9561 49.0605L50.9551 49.0596C48.8386 52.7833 48.2312 56.2905 48.0527 58.4834L107.267 117.697C106.208 113.374 105.51 106.713 108.381 99.7041L108.382 99.7031C112.32 90.1097 121.516 83.3642 132.354 81.6992L60.2773 40.083ZM135.857 82.4883L135.858 82.4922L136.031 82.1924L136.029 82.1904L135.857 82.4883ZM69.7344 18.0117C67.9301 19.6871 64.5563 23.3529 63.0605 29.1025C61.9907 33.2071 62.2995 36.7418 62.6855 38.9131L135.218 80.792C133.078 76.8914 130.678 70.6357 131.65 63.1143C132.97 52.8346 140.108 43.9489 150.132 39.5391L69.7344 18.0117ZM19.6963 33.2627C18.6368 33.1386 15.7018 33.0067 13.1387 35.1104L13.1396 35.1113C10.5645 37.2341 10.1532 40.1682 10.0938 41.1172L27.4434 71.1553C28.3907 69.0064 29.9477 66.2684 32.5088 63.6738L32.9766 63.2119C36.7475 59.5867 40.8751 57.932 43.5869 57.1533L19.6963 33.2627ZM28.7891 21.9023C27.7118 22.0651 24.8485 22.6978 22.9375 25.3867L22.9365 25.3887C21.0137 28.0843 21.3516 30.9785 21.541 31.9707L46.0586 56.4883C46.4203 54.1663 47.2254 51.1374 49.0293 47.9639C51.7756 43.1442 55.5317 40.3104 58.0508 38.7979L28.7891 21.9023ZM34.6064 8.5957C33.6257 9.01406 31.0116 10.3632 29.8574 13.4688C28.718 16.5298 29.7549 19.2083 30.2031 20.1582L60.25 37.5068C60.0048 35.1735 60.0012 32.0497 60.915 28.5439C62.3139 23.167 65.2047 19.4588 67.248 17.3467L34.6064 8.5957ZM8.63574 10.2715C7.99916 10.5088 6.78563 11.1167 6.02148 12.4922C5.21335 13.9618 5.43228 15.4068 5.57715 16.0068L19.1953 29.626C19.2934 28.0265 19.7557 26.0297 21.1318 24.1006C22.6063 22.0268 24.5153 20.9261 26.0771 20.3359L8.63574 10.2715ZM12.1191 2.56641C11.5381 2.98764 10.5518 3.88261 10.1836 5.36914C9.78196 6.99105 10.3598 8.33008 10.6572 8.87891L27.3438 18.5078C27.0282 16.9439 26.9577 14.9052 27.7793 12.6973C28.6649 10.314 30.2148 8.75564 31.5723 7.78125L12.1191 2.56641ZM69.4336 16.7822L69.4355 16.7832L69.4863 16.5928L69.4844 16.5898L69.4336 16.7822Z" class="primary"/>
<path d="M1920 32.0752C1907.75 51.844 1895.1 79.358 1886.73 115.251C1866.98 200.007 1902.44 269.602 1911.89 284.104L1920 286.276V288.57L1911.88 286.396L1911.16 286.923C1911.05 286.767 1910.92 286.594 1910.79 286.406C1901.41 289.892 1878.47 300.098 1853.83 320.074L1852.43 318.352C1875.41 299.724 1896.94 289.501 1907.62 285.253L1852.84 270.599L1853.42 268.456L1908.75 283.261C1897.6 264.824 1865.44 196.846 1884.57 114.748L1884.97 113.038C1893.83 75.9489 1907.23 47.7972 1920 27.916V32.0752Z" class="primary"/>
<path d="M1788.56 0C1773.5 21.5727 1743.07 72.6871 1745.43 139.814L1743.21 139.892C1740.88 73.3638 1770.4 22.4456 1785.86 0H1788.56Z" class="primary"/>
<path d="M1565.23 0C1540.16 16.5072 1522.34 42.2185 1515.22 70.5527L1513.07 70.0117C1520.06 42.1928 1537.17 16.8561 1561.28 0H1565.23Z" class="primary"/>
<path d="M495.438 0C484.458 9.5507 465.001 30.952 464.263 63.1992L464.246 64.2197C464.224 66.2584 464.268 68.2689 464.398 70.208L462.187 70.3574C462.051 68.3503 462.007 66.2812 462.029 64.1963L462.046 63.1475C462.762 31.8201 480.647 10.5012 492.113 0H495.438Z" class="primary"/>
<path d="M707.826 0C696.847 9.5507 677.389 30.952 676.651 63.1992L676.635 64.2197C676.613 66.2584 676.656 68.2689 676.787 70.208L674.575 70.3574C674.44 68.3503 674.396 66.2812 674.418 64.1963L674.435 63.1475C675.151 31.8201 693.036 10.5012 704.502 0H707.826Z" class="primary"/>
<path d="M920.199 0C909.22 9.5507 889.762 30.952 889.024 63.1992L889.008 64.2197C888.986 66.2584 889.029 68.2689 889.16 70.208L886.948 70.3574C886.813 68.3503 886.769 66.2812 886.791 64.1963L886.808 63.1475C887.524 31.8201 905.409 10.5012 916.875 0H920.199Z" class="primary"/>
<path d="M1132.59 0C1121.61 9.5507 1102.15 30.952 1101.41 63.1992L1101.4 64.2197C1101.37 66.2584 1101.42 68.2689 1101.55 70.208L1099.34 70.3574C1099.2 68.3503 1099.16 66.2812 1099.18 64.1963L1099.2 63.1475C1099.91 31.8201 1117.8 10.5012 1129.26 0H1132.59Z" class="primary"/>
<path d="M1344.96 0C1333.98 9.5507 1314.52 30.952 1313.79 63.1992L1313.77 64.2197C1313.75 66.2584 1313.79 68.2689 1313.92 70.208L1311.71 70.3574C1311.57 68.3503 1311.53 66.2812 1311.55 64.1963L1311.57 63.1475C1312.29 31.8201 1330.17 10.5012 1341.64 0H1344.96Z" class="primary"/>
<path fill-rule="evenodd" clip-rule="evenodd" d="M111.247 235.119C111.314 235.075 112 234.432 112.399 234.609C112.776 234.765 112.466 235.474 112.776 236.316C113.042 237.114 113.619 237.403 114.307 238.023C115.326 238.955 116.058 240.152 116.324 240.994C117.1 243.499 115.703 245.495 115.548 246.359C115.481 246.758 115.349 247.312 116.146 247.246C116.612 247.224 118.585 246.892 120.248 246.825C121.179 246.781 121.733 247.6 121.556 247.955C121.423 248.199 120.27 249.064 119.472 249.308C118.607 249.551 118.209 249.796 117.898 250.018C117.167 250.505 116.679 250.527 116.59 251.126C116.501 251.813 117.034 252.368 117.078 252.412C117.788 253.099 118.896 253.01 119.761 253.099C120.98 253.232 122.709 254.806 126.101 257.954C126.699 258.53 127.564 259.329 129.271 260.947C129.316 260.992 129.493 261.102 129.692 261.235C130.025 261.457 130.425 261.79 130.713 262.3H130.801C130.934 262.521 131.2 263.009 131.001 263.23C130.668 263.585 129.16 263.031 128.118 262.455C128.007 262.411 127.919 262.344 127.83 262.3C126.943 261.768 126.766 261.346 125.126 259.994C123.53 258.664 120.692 256.58 119.982 256.336C119.096 256.026 118.076 256.269 117.898 256.535C117.743 256.779 119.583 258.331 120.026 259.307C120.337 260.016 120.603 260.326 120.869 261.457C121.024 262.144 121.157 263.541 121.201 263.984C121.246 264.583 121.312 264.983 121.379 265.382C121.468 265.98 121.534 266.535 121.468 267.665C121.357 269.35 120.958 270.546 121.091 270.835C121.357 271.411 119.761 273.982 119.096 273.939C118.763 273.917 119.783 270.791 119.384 267.466C119.339 267.022 119.295 266.601 119.272 266.157C119.117 264.14 119.118 262.189 118.408 261.169C117.81 260.282 117.632 260.482 116.59 259.174C116.523 259.085 116.302 258.82 116.191 258.863C115.948 258.952 116.701 260.237 116.103 260.991C115.836 261.324 115.415 261.412 114.572 261.59C113.819 261.767 113.464 261.701 111.979 261.768C110.427 261.856 110.56 261.901 110.338 261.856C108.764 261.502 108.032 261.768 107.744 259.64C107.633 258.952 106.502 261.457 106.392 261.856C106.192 262.588 106.192 263.076 106.192 263.984V265.736C106.17 267.399 106.125 268.397 105.926 269.018C105.549 270.281 105.172 270.392 105.261 271.145C105.372 271.966 105.926 272.476 105.926 273.695C105.926 274.072 105.926 274.472 105.727 274.538C105.327 274.693 104.33 273.606 103.798 272.498C103.487 271.833 103.421 271.301 103.421 268.929C103.421 267.244 103.465 266.002 103.51 264.761C103.532 264.45 103.554 264.162 103.554 263.895C103.642 261.901 103.709 261.59 103.798 261.258C104.108 260.105 104.396 259.085 105.327 258.109C105.97 257.422 106.569 257.111 106.857 256.225C107.057 255.648 107.345 255.005 107.057 254.894C107.051 254.896 106.323 255.096 105.704 255.383C104.707 255.848 104.041 255.404 103.021 255.715C102.467 255.892 102.09 256.269 101.381 257.001C100.383 258.021 100.161 258.553 99.6514 259.263C99.4741 259.506 99.2744 259.75 98.9863 260.061C98.7196 260.349 97.0797 262.078 96.3926 261.768C95.9938 261.59 95.9718 260.77 96.1934 260.149C96.5924 259.13 97.5233 259.151 98.4102 258.02C98.5209 257.865 98.5653 257.776 98.6318 257.644C99.0086 256.956 98.7871 256.602 99.4521 255.715C100.339 254.54 101.646 254.009 102.046 253.831C102.866 253.499 103.886 253.277 104.44 253.144C105.327 252.944 105.859 252.877 106.369 252.456C106.657 252.212 107.123 251.702 106.946 251.348C106.769 250.993 106.17 251.17 105.594 250.749C105.084 250.394 105.283 250.616 104.817 250.018C104.219 249.264 103.642 249.219 103.243 249.086C102.091 248.709 101.936 248.842 101.736 248.51C101.448 248.044 101.714 246.847 102.733 246.78C103.443 246.736 103.51 246.603 104.618 247.024C105.97 247.534 107.766 247.512 108.076 246.936C108.298 246.536 107.633 246.16 107.013 244.719C106.88 244.408 106.546 243.632 106.436 242.768C106.391 242.435 106.192 240.683 107.301 239.198C108.476 237.647 109.961 237.912 110.471 236.472C110.604 236.161 110.715 235.607 111.247 235.119ZM110.471 259.107C110.138 259.108 109.872 259.374 109.872 259.706C109.872 260.038 110.138 260.304 110.471 260.305C110.781 260.305 111.048 260.038 111.048 259.706C111.048 259.373 110.803 259.107 110.471 259.107ZM113.153 259.107C112.821 259.108 112.555 259.374 112.555 259.706C112.555 260.038 112.821 260.304 113.153 260.305C113.486 260.305 113.752 260.038 113.752 259.706C113.752 259.373 113.486 259.107 113.153 259.107Z" class="tinted"/>
<path fill-rule="evenodd" clip-rule="evenodd" d="M296.04 31.0859C298.346 30.6869 301.449 31.0643 302.624 31.5742H302.646C304.707 32.5492 305.085 34.5426 305.174 34.8544C305.445 35.8049 305.632 36.773 305.927 37.7128L306.133 38.331C306.459 39.4185 306.281 40.589 305.928 42.7919C305.64 44.7208 305.129 47.9359 303.067 50.7959C302.823 51.1285 302.336 51.771 302.447 51.8818C302.648 52.0799 304.421 49.9746 307.324 48.955C307.745 48.7999 309.253 48.29 311.182 48.3564C312.468 48.3786 314.131 49.0665 317.435 50.4189C317.49 50.4419 321.792 52.2231 323.62 53.5888C323.82 53.7219 324.108 53.9885 324.662 54.3652C324.95 54.5645 325.127 54.6534 325.349 54.875C325.703 55.2075 325.881 55.5402 325.926 55.6289C326.458 56.5148 328.383 57.7326 328.541 57.8232C328.94 58.067 329.273 58.3115 329.583 58.5332C331.711 60.1515 331.911 61.3042 334.283 62.2353C335.148 62.59 336.257 63.0113 337.742 63.0556C338.806 63.1 339.937 62.9447 341.4 63.499L341.268 63.5214C341.556 63.6545 342.176 63.8981 342.176 64.164C342.131 64.5187 340.89 64.6961 340.469 64.7626C338.075 65.0951 336.656 64.5408 333.752 64.4521C333.375 64.4521 332.909 64.5851 332.288 64.4521C331.18 64.2304 330.47 63.5435 330.049 63.1445C329.206 62.3243 328.497 61.6369 327.854 61.0605C325.637 59.0209 324.617 58.245 324.085 57.8681C323.619 57.5356 323.198 57.247 322.844 57.0253C321.469 56.1607 320.494 55.7389 318.543 54.8964C316.525 54.0318 314.285 53.5666 312.445 52.3916C312.002 52.1033 311.138 51.5271 310.185 51.7265C309.786 51.8152 309.431 52.0372 308.898 52.5693C307.812 53.6556 307.458 54.6311 307.059 55.3183C305.463 57.9562 301.827 58.1115 301.981 58.998C302.026 59.3084 302.447 59.2648 303.268 59.9521C303.401 60.0853 303.778 60.396 304.531 61.415C305.174 62.2796 305.972 63.3664 306.659 64.9404C307.08 65.9378 306.97 65.9823 307.324 66.8691C307.52 67.3536 307.711 67.7255 307.907 68.0439H1723.97C1725.19 68.0439 1726.18 69.0363 1726.18 70.2607C1726.18 140.381 1783.01 197.23 1853.13 197.23C1854.35 197.23 1855.35 198.223 1855.35 199.447V880.365C1855.35 880.982 1855.09 881.57 1854.64 881.989C1854.19 882.409 1853.58 882.622 1852.97 882.576C1850.02 882.358 1847.06 882.227 1844.06 882.227H1844.04C1773.94 882.228 1717.09 939.055 1717.09 1009.17C1717.09 1010.4 1716.1 1011.39 1714.88 1011.39H202.947C201.723 1011.39 200.731 1010.4 200.73 1009.17C200.73 939.077 143.903 882.227 73.7832 882.227C72.5589 882.227 71.5667 881.235 71.5664 880.011V199.447C71.5664 198.223 72.5588 197.23 73.7832 197.23C83.0836 197.23 92.1506 196.229 100.883 194.329C100.857 193.69 100.836 193.204 100.829 193.173C100.807 193.084 100.962 191 100.962 191C100.963 190.983 101.161 187.186 101.095 186.965C101.05 186.742 101.095 184.814 101.095 184.659C101.095 184.526 100.851 184.061 100.851 184.061L100.674 183.107V181.91L100.763 180.313L100.807 179.006L100.718 178.097V176.478C100.718 176.478 100.518 174.084 100.496 173.995C100.474 173.901 100.407 171.468 100.407 171.468L100.03 169.65L99.7871 169.007C99.7831 168.999 99.4314 168.341 99.3652 168.275C99.3209 168.186 99.2773 167.743 99.2773 167.743V166.059L99.0771 164.462L98.9883 163.686L98.6123 163.31C98.6123 163.31 98.1016 163.443 97.8799 163.531C97.6574 163.62 96.5717 163.531 96.5273 163.531C96.4738 163.509 94.1995 163.486 94.0889 163.486C93.9765 163.486 92.559 163.221 92.5146 163.221C92.4663 163.198 91.206 163.088 90.9404 163.088H89.6104C89.2553 163.066 88.015 163.287 87.9258 163.287C87.8371 163.287 86.1738 163.154 86.1738 163.154L85.9082 162.954L85.1318 162.732C85.1065 162.729 84.0461 162.6 83.9795 162.6C83.913 162.577 81.585 162.423 81.585 162.423L79.168 162.134H77.7051L76.8184 161.69L76.7295 161.269L76.8408 161.048L77.2617 160.893L77.6826 160.937L79.834 161.181L82.627 161.381L84.4453 161.491L86.041 161.402L86.6172 160.959C86.6172 160.959 87.681 161.181 88.0361 161.137C88.3687 161.092 89.7441 161.402 89.7441 161.402L92.0498 161.447L93.7783 161.536L94.1553 161.247L95.0869 161.292H97.2148L99.5869 159.474L100.452 158.809C99.122 158.853 97.5701 158.653 95.9961 157.922C95.2866 157.589 94.7098 157.212 94.1777 156.769C94.0669 156.702 93.8896 156.547 93.8896 156.547L92.249 156.592L84.1572 154.53L83.8467 153.932L82.4492 153.199L80.4326 151.581L79.0352 149.785L77.084 148.123L72.916 145.373L70.5889 143.622L69.79 142.491L68.8818 141.604L65.7109 138.079L63.6045 135.352L62.7627 133.89L61.7207 132.005L61.0996 130.874V130.165L61.499 129.854L62.0752 130.098L62.4072 130.675V131.162L63.3828 133.091L64.0039 133.89L64.8682 134.998L66.9746 137.304L69.458 139.809L71.0098 141.427L71.5859 141.648L72.3174 141.937L73.7148 143.423L79.0137 147.945L80.3652 148.123L82.4717 149.675L83.9346 151.559L85.2656 151.892L91.6064 153.643C91.2961 153.199 90.9851 152.712 90.6748 152.202C89.788 150.805 88.4804 148.699 87.8818 145.595C87.6601 144.353 87.2611 142.202 87.8818 139.564C88.2587 137.924 88.6571 136.239 90.1201 135.019C90.2531 134.931 90.3865 134.82 90.5195 134.731C90.6525 134.621 90.7859 134.51 90.9189 134.421C92.4707 133.313 94.2 133.357 95.8848 133.401C98.5895 133.468 100.585 134.399 101.716 134.953C104.554 136.305 106.282 138.102 107.413 139.321C107.812 139.765 108.212 140.186 108.566 140.585L108.5 134V132.626L107.036 130.741L106.062 128.303L106.238 126.95L103.201 120.676L102.114 118.946L102.026 118.171L101.96 117.572L100.784 115.665L98.9883 112.628L97.3037 110.012L95.8184 108.105L94.2002 106.686L93.7344 106.553L93.2686 106.088L93.1797 105.489L93.5791 105.179L94.2666 105.378L95.1973 106.243L96.749 107.728L97.9688 108.903L100.075 111.63L102.669 115.599L103.29 116.707L104.177 117.771L105.285 120.477L106.903 125.198L108.012 127.526L109.409 129.322L110.473 131.672L110.828 133.202L111.315 133.645L111.249 142.004L110.783 143.578C110.85 143.689 110.894 143.799 110.938 143.91C111.249 144.531 111.47 145.196 111.604 145.95C111.914 147.679 111.693 149.231 111.338 150.495L112.202 149.83L114.574 148.012L115.106 145.95L115.306 145.041L115.683 144.753L116.038 143.046L116.592 140.807C116.592 140.807 116.637 139.41 116.77 139.077C116.88 138.768 116.946 137.664 116.946 137.658L117.523 137.215L118.011 135.707L118.365 133.911L118.92 131.162V130.231L118.986 129.81L119.23 129.455L119.474 129.411L119.873 129.61L120.072 130.563L120.006 130.785L119.674 133.202C119.67 133.223 119.23 135.508 119.23 135.574C119.208 135.641 119.075 136.727 119.075 136.727V137.525L119.208 137.836C119.203 137.864 118.898 139.472 118.897 139.564C118.875 139.653 118.366 140.806 118.277 141.139C118.189 141.471 118.011 142.181 117.944 142.425C117.878 142.668 117.679 143.929 117.679 143.977C117.679 144.021 117.589 145.44 117.545 145.551C117.5 145.662 116.97 147.872 116.969 147.923C116.969 147.967 116.747 149.054 116.614 149.231C116.481 149.409 116.215 149.874 116.215 149.874L116.481 150.317L117.213 150.605L118.698 151.182L120.316 151.626C120.316 151.626 120.76 151.781 120.805 151.848L120.849 151.892C120.982 152.025 121.403 152.424 121.403 152.424L121.979 152.822L123.643 153.665C123.676 153.675 125.967 154.351 126.059 154.396C126.147 154.463 128.409 155.239 128.409 155.239L129.982 155.66L130.825 155.993L132.111 156.281L133.663 156.592L134.816 156.857L135.681 157.279C135.69 157.288 136.06 157.634 136.213 157.678C136.347 157.7 138.23 158.144 138.43 158.255C138.631 158.366 142.367 159.14 142.376 159.142C142.376 159.142 144.435 159.518 144.526 159.562C144.593 159.629 148.872 160.893 148.872 160.893L148.916 160.627L149.183 161.004V161.269L148.961 161.602H148.362L145.125 160.693C145.107 160.689 143.528 160.339 143.418 160.339C143.284 160.339 141.627 159.829 141.578 159.828C141.512 159.85 140.332 159.698 140.314 159.695L139.006 159.474C138.964 159.465 135.193 158.676 135.082 158.676C134.973 158.698 134.238 158.784 134.218 158.786C134.218 158.786 133.552 158.875 133.419 158.875C133.284 158.852 131.89 158.41 131.579 158.255C131.269 158.122 128.587 157.611 128.476 157.522C128.365 157.412 126.488 156.627 126.458 156.614L122.179 155.483C122.164 155.479 120.582 155.039 120.405 154.995C120.272 154.951 119.784 154.751 119.496 154.641C119.363 154.596 119.252 154.552 119.252 154.552L118.809 155.483L118.543 156.215L118.632 156.393L118.92 156.991L119.851 157.7L121.026 158.255L122.201 159.097L123.465 160.627C123.481 160.647 124.684 162.112 124.839 162.311C124.971 162.488 126.292 163.324 126.303 163.331L126.99 163.863L127.722 164.551L128.099 164.972L129.096 166.169L130.293 167.056C130.293 167.056 131.092 167.566 131.225 167.722C131.358 167.899 131.69 168.231 131.69 168.231C131.709 168.246 132.29 168.72 132.377 168.764C132.443 168.808 132.909 169.184 132.998 169.228C133.065 169.273 133.619 169.694 133.619 169.694C133.627 169.704 133.997 170.161 134.062 170.227C134.129 170.293 134.474 170.984 134.483 171.002L135.237 171.822C135.237 171.822 136.567 173.374 136.656 173.485C136.767 173.618 137.565 174.461 137.565 174.461L138.807 175.614L139.96 176.922L140.824 178.03L140.844 178.083C176.798 155.663 200.73 115.756 200.73 70.2607C200.73 69.0364 201.723 68.0441 202.947 68.0439H236.353C236.555 67.8672 236.801 67.6355 237.133 67.3125C238.507 65.9822 239.439 65.0067 240.614 63.8095C241.146 63.2775 241.567 62.8341 242.166 62.2578C243.142 61.3044 243.962 60.5057 245.093 59.5302C246.977 57.9121 247.908 57.1142 248.928 56.6709C249.127 56.5822 249.482 56.4489 249.881 56.1386C250.746 55.4957 251.034 54.6971 251.345 54.165C251.855 53.3228 252.72 52.8788 254.471 51.9921C254.692 51.8813 255.025 51.726 255.401 51.5488C256.377 51.1276 257.773 50.5954 259.547 50.3515C260.788 50.1742 260.279 50.4188 266.42 50.9287C268.149 51.0617 268.948 51.1057 269.746 51.7265C270.566 52.3473 270.855 53.1456 271.764 53.3007C272.14 53.3671 272.384 53.3008 273.359 52.9462C276.264 51.9043 276.507 51.7709 276.552 51.5048C276.663 50.9062 275.709 50.3738 274.845 49.6865C273.47 48.578 272.783 47.1594 271.298 44.455C270.167 42.4157 269.591 41.3733 269.524 40.5087C269.436 39.3783 269.679 38.0923 269.081 37.8037C268.904 37.715 268.77 37.7811 268.216 37.8476C267.418 37.9584 267.041 37.914 266.398 37.914C265.999 37.914 265.577 37.9585 265.156 38.0029C263.848 38.1359 262.541 38.4242 262.053 38.5351C259.991 39.0007 259.569 39.2891 258.727 39.0009C258.15 38.8014 257.751 38.4021 256.953 37.582C256.177 36.7617 255.025 35.5643 254.848 33.9238C254.825 33.7908 254.758 33.015 255.002 32.9257C255.135 32.8814 255.313 33.0593 256 33.791C256.421 34.2565 256.887 34.6994 257.309 35.165C257.752 35.6526 257.907 35.8301 258.239 35.9853C258.616 36.1626 258.949 36.163 259.192 36.163C260.545 36.1409 262.142 35.4316 262.674 35.2099C263.871 34.7001 264.758 34.3231 265.8 34.1679C266.975 33.9907 268.016 34.1679 268.814 34.3896C269.524 34.5891 270.034 34.8553 270.189 34.9218C271.697 35.6978 272.473 36.7838 273.604 38.3134C274.468 39.4884 274.114 39.2888 275.555 41.5058C277.572 44.6096 277.772 44.2332 278.304 45.5634C278.525 46.0954 278.703 46.6714 279.257 47.0039C279.9 47.3807 280.853 47.4478 281.252 47.0712C283.069 46.7166 286.438 45.2313 286.396 44.6103C286.44 44.3886 286.417 44.1218 286.373 43.8779V43.5683C286.44 41.5731 287.016 40.0872 287.415 39.0673C288.058 37.4046 288.79 35.587 290.608 33.8798C291.163 33.3477 293.114 31.5736 296.04 31.0859ZM205.145 72.4775C203.973 143.286 146.787 200.471 76 201.643V877.813C146.808 878.985 203.973 936.171 205.145 1006.96H1712.68C1713.86 935.412 1772.23 877.793 1844.04 877.793H1844.06C1846.37 877.793 1848.65 877.867 1850.91 877.997V201.643C1780.1 200.471 1722.94 143.286 1721.77 72.4775H310.901C311.456 73.571 311.853 74.5943 312.202 75.5156C312.535 76.4242 312.712 76.9563 312.911 77.5546C312.978 77.7541 313.067 77.9761 313.155 78.2421C313.71 79.8605 314.84 82.8756 316.702 85.8242C318.298 88.3959 319.097 89.6605 319.519 90.0595C319.542 90.0822 320.477 90.9869 320.915 92.4316C321.026 92.7641 321.092 93.1188 320.915 93.3183C320.649 93.6065 320.028 93.3848 319.828 93.3183C319.03 93.0522 318.476 92.4529 317.367 90.8125C316.325 89.2831 316.148 88.8171 315.239 87.6201C314.729 86.9329 314.397 86.5561 314.131 86.2236C312.49 84.2283 311.958 82.4325 310.85 80.1269C310.539 79.484 310.362 79.1733 310.162 78.8408C309.785 78.2201 309.319 77.6215 307.768 74.9169C307.247 74.0088 306.783 73.1981 306.372 72.4775H291.221C290.907 73.631 290.952 74.4999 290.83 76.2031C290.786 76.9118 290.807 76.3587 290.497 79.2402C290.298 81.1023 290.098 83.0531 289.921 85.2255C289.832 86.5114 289.633 88.8177 289.566 91.456C289.522 93.2514 289.544 94.0274 289.588 94.914C289.632 95.7565 289.654 96.7101 289.654 98.7939C289.588 104.802 289.123 108.815 289.389 109.68C289.411 109.768 289.522 110.101 289.389 110.39C289.278 110.589 289.056 110.833 288.834 110.833C288.324 110.855 287.904 109.901 287.704 109.436C287.239 108.349 287.15 107.418 287.105 106.975C286.928 105.068 287.128 104.514 287.039 103.184C286.95 101.61 286.617 101.676 286.307 99.8144C286.24 99.4375 286.04 98.1067 285.996 96.4882C285.952 95.2689 286.019 93.9166 286.329 92.6308C286.396 92.2761 286.617 91.5002 286.462 90.4804C286.351 89.5716 285.997 88.9729 285.819 88.6181C285.043 87.0219 285.774 85.9354 286.151 81.1914C286.196 80.748 286.285 79.4175 286.329 77.6884C286.396 75.0723 286.24 74.4507 286.462 72.6328C286.468 72.5803 286.475 72.5287 286.481 72.4775H284.765C284.754 72.6149 284.724 72.7604 284.666 72.9218C284.577 73.166 284.333 73.7418 283.735 74.0742C283.625 74.1407 282.915 74.5397 282.339 74.2519C281.718 73.9415 281.607 73.0545 281.562 72.7441C281.552 72.6519 281.546 72.563 281.544 72.4775H268.817C267.852 73.1088 266.359 73.093 265.784 72.4775H255.131C254.947 72.6136 254.738 72.7766 254.492 72.9882C253.783 73.5867 253.361 74.0303 251.056 76.9785C248.794 79.8605 244.759 82.3438 244.648 82.2773C244.47 82.1695 242.963 84.5847 241.035 86.8447C240.57 87.3766 240.148 87.8418 239.705 88.2851C238.508 89.5045 237.266 90.547 235.382 92.121C232.877 94.2272 234.34 92.6975 231.812 94.6484C231.014 95.2692 230.282 95.8679 229.75 95.624C229.395 95.4686 229.196 94.9582 229.24 94.5371C229.307 93.8944 229.884 93.6952 230.926 92.8085C232.322 91.6557 232.189 91.3005 233.586 90.2363C234.384 89.6157 234.473 89.7268 235.005 89.2392C235.98 88.3746 236.379 87.4648 236.712 86.8662C237.421 85.5806 237.798 85.6023 239.815 83.3632C240.126 83.0086 240.37 82.721 240.592 82.455C242.033 80.7479 242.011 80.3264 243.873 78.2646C245.07 76.9344 244.804 77.422 247.354 74.7617C248.517 73.5514 249.102 72.9037 249.521 72.4775H233.754C231.628 73.3608 229.746 73.7283 229.396 73.1875C229.289 73.0138 229.346 72.756 229.479 72.4775H205.145ZM103.667 167.233L102.646 167.433C102.646 167.433 102.78 168.453 102.78 168.652C102.78 168.85 102.801 170.467 102.802 170.492V174.904C102.802 174.904 102.891 175.525 102.979 176.102C103.046 176.589 103.134 177.033 103.156 177.1C103.223 177.234 103.023 179.959 103.09 180.292C103.156 180.603 103.224 182.088 103.224 182.221C103.201 182.354 102.935 182.975 102.935 182.975C102.928 182.992 102.669 183.685 102.625 183.795C102.581 183.907 102.403 187.808 102.403 187.808L102.27 189.138C102.269 189.143 102.093 190.356 102.093 190.401C102.071 190.446 102.136 192.193 102.114 192.308C102.092 192.418 102.026 194.06 102.026 194.06V194.072C107.148 192.908 112.152 191.434 117.019 189.671C116.848 189.4 116.66 189.106 116.614 189.049C116.525 188.937 115.373 187.253 115.373 187.253L114.774 186.322C114.774 186.322 114.175 185.79 114.131 185.724C114.064 185.657 113.732 185.169 113.732 185.169C113.729 185.16 113.465 184.548 113.443 184.46C113.421 184.349 113.178 183.818 113.155 183.728C113.111 183.64 112.801 182.93 112.801 182.93C112.793 182.917 112.555 182.506 112.424 182.353C112.292 182.178 112.009 181.287 112.003 181.268L111.448 179.87L110.539 178.606L110.207 178.142L109.719 177.276L109.364 176.478C109.363 176.474 108.899 174.995 108.744 174.794C108.589 174.594 107.458 173.019 107.458 173.019L107.059 172.466L106.305 171.424L105.795 170.071L105.551 168.785L105.086 167.699L104.442 167.144L103.667 167.233ZM115.661 160.161L116.525 160.316L116.791 160.36L117.235 160.937L117.9 161.536C117.916 161.545 118.324 161.76 118.477 161.891C118.632 162.024 119.275 162.866 119.43 163.065C119.563 163.265 119.918 164.196 119.918 164.196L119.763 164.706L119.23 165.017L118.521 164.816C118.507 164.805 118.167 164.504 118.21 164.395C118.254 164.285 117.501 162.844 117.479 162.755C117.456 162.666 117.024 161.628 117.014 161.602L116.503 161.247V161.824L116.614 162.378L117.014 162.888L116.902 164.041C116.902 164.05 116.857 164.64 116.791 164.684C116.724 164.75 116.37 165.017 116.37 165.017L115.904 165.371L114.907 165.504L114.885 165.57V165.615L114.729 165.704L114.574 165.837V165.792L114.508 165.837L114.131 166.768L113.665 167.144C113.657 167.151 113.31 167.434 113.244 167.477C113.178 167.521 112.617 167.414 112.602 167.411L111.759 167.277L111.448 167.233L111.05 166.701L110.539 166.457L109.985 166.28L110.185 166.879C110.185 166.879 111.094 167.588 111.183 167.633C111.205 167.655 111.271 167.722 111.359 167.788C111.714 168.098 112.49 168.763 112.579 168.764C112.69 168.741 112.912 169.162 112.912 169.162V169.916L112.49 170.382H111.958C111.945 170.373 111.136 169.826 110.982 169.628C110.894 169.539 110.673 169.228 110.451 168.94C110.274 168.719 110.119 168.497 110.074 168.408C109.986 168.231 109.875 167.769 109.874 167.766L109.453 166.968L109.01 166.391L109.099 165.261L108.61 164.64V165.482L108.478 166.479L108.521 167.455L109.586 168.387L110.185 169.162L110.273 169.273L110.606 169.717L110.162 170.204L109.542 169.85L108.478 168.675L108.811 169.228L109.165 170.27L109.342 170.78C109.342 170.78 109.542 171.18 109.631 171.357C109.719 171.557 109.917 173.091 109.919 173.108C109.919 173.108 111.271 175.459 111.537 175.747C111.825 176.035 112.513 177.454 112.513 177.454L114.131 179.937L114.53 181.444L114.818 182.221L115.461 182.93L115.55 183.617L116.26 184.792L116.215 185.945C116.215 185.945 116.879 186.985 116.946 187.054C116.992 187.099 117.77 188.383 118.253 189.216C125.82 186.384 133.044 182.853 139.848 178.697L139.25 177.809L138.43 176.944C138.43 176.944 137.122 175.702 137.011 175.658C136.899 175.613 134.736 173.383 134.661 173.309C134.617 173.22 133.796 172.311 133.796 172.311L132.688 172.066L131.734 171.091L131.092 170.848L130.56 170.049L129.872 169.561L128.52 168.785L126.524 166.591C126.524 166.591 125.327 165.548 125.105 165.216C124.884 164.883 122.977 162.977 122.977 162.977C122.947 162.965 121.512 162.399 121.358 162.268C121.203 162.135 120.871 161.846 120.871 161.846L119.519 160.937L119.075 160.472L119.962 161.802L120.14 162.489L119.562 162.777L119.23 162.334L118.543 161.447L117.922 160.161L116.991 159.851H116.791L115.993 159.74L115.173 159.519L115.661 160.161ZM111.759 163.819C111.205 163.819 110.739 164.285 110.739 164.839C110.739 165.393 111.205 165.858 111.759 165.858C112.313 165.858 112.778 165.393 112.778 164.839C112.778 164.285 112.313 163.819 111.759 163.819ZM114.153 162.112C113.599 162.112 113.134 162.578 113.134 163.132C113.134 163.664 113.532 164.085 114.064 164.13H114.153C114.708 164.13 115.173 163.664 115.173 163.109C115.173 162.954 115.129 162.821 115.062 162.688C114.907 162.356 114.552 162.112 114.153 162.112ZM259.902 55.4072C258.373 54.8309 257.973 54.2317 257.153 54.4531C256.954 54.4974 256.732 54.609 255.136 56.2939C254.138 57.3578 254.049 57.513 253.65 57.8232C252.83 58.466 252.121 58.6881 251.5 58.9541C251.234 59.0649 251.056 59.1539 250.68 59.4199C250.192 59.7524 249.371 60.3734 247.509 61.748C244.516 63.9648 244.383 64.0314 243.807 64.5634C242.609 65.6719 242.454 66.0486 241.301 67.2236C241.165 67.3667 240.873 67.662 240.466 68.0439H252.956C252.966 68.0221 252.975 67.9998 252.985 67.9775C253.384 67.113 253.717 67.0463 255.557 65.1621C256.865 63.8097 256.666 63.8759 257.309 63.2773C258.439 62.2355 258.905 62.1907 260.922 60.8828C263.671 59.1092 263.582 58.7101 265.245 57.9785C266.908 57.2469 268.039 57.1583 268.039 56.8701C268.039 56.6484 267.373 56.5371 264.092 56.0937C260.634 55.6283 260.456 55.6066 259.902 55.4072ZM268.526 62.4345C268.194 62.2352 267.55 63.0114 266.42 63.8759C262.939 66.5361 260.989 65.3393 259.082 67.5781C258.939 67.7409 258.821 67.8957 258.72 68.0439H267.012C267.213 67.5441 267.42 66.9922 267.617 66.3808C268.238 64.4078 268.948 62.7006 268.526 62.4345ZM273.115 61.9472C272.738 61.7925 271.896 62.6348 271.364 63.5214C270.744 64.6076 270.677 65.5606 270.566 66.6689C270.513 67.163 270.462 67.6207 270.412 68.0439H275.594C275.409 67.9273 275.249 67.8147 275.133 67.7334C274.844 67.5114 273.759 66.7134 273.315 65.2509C272.783 63.4773 273.536 62.1468 273.115 61.9472ZM278.37 67.9335C278.221 67.9335 278.103 67.9786 277.996 68.0439H278.727C278.615 67.9745 278.516 67.9336 278.37 67.9335ZM288.103 64.6074C287.859 64.5856 287.77 65.1179 287.327 65.8271C286.54 67.1393 285.904 66.9635 285.228 68.0439H287.474C287.639 67.494 287.791 67.1311 288.014 66.8691C288.191 66.6474 288.436 66.4035 288.524 65.9824C288.657 65.3616 288.391 64.6295 288.103 64.6074ZM293.89 63.5878C293.668 63.61 293.446 63.6542 293.291 63.8535C293.025 64.2082 293.269 64.8074 293.357 65.0957C293.631 65.9316 293.48 66.8041 293.045 68.0439H303.973C303.929 67.9434 303.893 67.8554 303.866 67.7783C303.245 65.9825 302.868 64.1195 301.671 63.8535C301.383 63.787 301.294 63.8762 300.186 64.1201C298.478 64.497 297.614 64.6736 297.037 64.5849C295.707 64.3631 295.086 63.4551 293.89 63.5878ZM282.494 63.6318C282.295 63.0332 281.629 62.7233 281.03 62.9228C280.432 63.1224 280.1 63.7872 280.321 64.3857C280.521 64.9843 281.186 65.2951 281.784 65.0957C282.383 64.8961 282.694 64.2304 282.494 63.6318ZM279.656 62.2578C279.457 61.6592 278.791 61.3483 278.192 61.5478C277.594 61.7474 277.284 62.4131 277.483 63.0117C277.683 63.6099 278.348 63.9201 278.946 63.7207C279.545 63.5212 279.878 62.8563 279.656 62.2578Z" class="tinted"/>
</g>
<defs>
<clipPath id="clip0_339_1665">
<rect width="1920" height="1080" class="primary"/>
</clipPath>
</defs>
</svg>
