<svg width="1920" height="1080" viewBox="0 0 1920 1080" fill="none" xmlns="http://www.w3.org/2000/svg">
<style>
    :root {
        --tint: #000000;
    }
	.primary {
		fill: white;
	}
	.darken {
	    fill: black;
        fill-opacity: 0.35;
	}
	.tinted {
		fill: var(--tint);
	}
</style>
<g clip-path="url(#clip0_339_2336)">
<rect width="1920" height="1080" class="darken"/>
<path fill-rule="evenodd" clip-rule="evenodd" d="M1185.99 53.2719C1185.1 52.9177 1185.49 51.4626 1186.39 51.8169C1200.79 57.4967 1293.26 100.098 1307.31 106.574C1357.37 129.651 1405.21 157.138 1452.91 184.664C1453.22 184.505 1453.6 184.51 1453.92 184.707C1454.58 185.121 1501.21 214.5 1571.01 260.878L1571.69 260.949C1588.71 262.698 1602.57 246.756 1606.46 241.774L1574.53 197.063C1574.4 196.878 1574.35 196.665 1574.35 196.453C1543.35 149.883 1506.53 100.136 1472.61 55.9214C1472.02 55.1474 1473.33 54.4011 1473.91 55.1587C1507.77 99.2971 1544.53 148.951 1575.49 195.45C1575.77 195.482 1576.03 195.624 1576.21 195.87L1607.75 240.036L1607.91 239.795L1608.53 239.872C1646.99 244.477 1679.73 226.687 1682.61 225.068L1687.3 189.367C1687.33 189.127 1687.45 188.92 1687.61 188.767C1688.44 182.957 1689.4 177.163 1690.49 171.391C1690.67 170.443 1692.13 170.846 1691.95 171.794C1690.87 177.463 1689.93 183.154 1689.11 188.866C1689.28 189.078 1689.37 189.35 1689.33 189.639L1684.59 225.722C1701.43 244.875 1740.43 248.516 1744.63 248.854L1772.82 219.132C1772.9 219.23 1772.91 219.356 1772.99 219.443C1773.4 219.846 1773.78 220.272 1774.17 220.686L1771.55 223.45C1767.51 263.429 1793.42 307.241 1796.81 312.773L1806.66 311.595C1806.67 311.65 1806.67 311.699 1806.67 311.749V311.787C1806.71 312.402 1806.77 313.024 1806.8 313.645H1806.8C1806.8 313.716 1806.81 313.781 1806.81 313.846C1773.71 331.097 1747.74 452.765 1745.9 461.6C1776.62 518.722 1808.55 582.182 1824.1 625.738C1824.2 626.016 1824.17 626.305 1824.05 626.544H1824.04C1829.52 640.509 1832.6 655.296 1833.16 670.29C1833.19 671.261 1831.69 671.255 1831.65 670.29C1831.09 655.421 1828.02 640.786 1822.58 626.942C1822.39 626.822 1822.24 626.648 1822.16 626.424C1806.66 583.022 1774.83 519.768 1744.2 462.783C1730.07 457.954 1721.12 467.056 1719.17 469.318C1721.99 478.055 1724.84 486.94 1727.71 495.916C1729.81 498.178 1731.35 500.228 1732.16 502.354C1732.85 504.169 1732.67 506.97 1732.29 510.262C1734.57 517.424 1736.85 524.63 1739.14 531.835C1744.17 537.629 1749.17 544.917 1747.32 549.43C1746.85 550.575 1746.35 551.806 1745.85 553.098C1779.11 658.675 1809.66 759.445 1810.23 761.326C1810.39 761.865 1810.08 762.438 1809.54 762.601C1809.43 762.634 1809.32 762.644 1809.22 762.644C1808.79 762.633 1808.4 762.35 1808.27 761.919C1807.7 760.044 1777.62 660.831 1744.68 556.178C1738.5 572.677 1731.39 596.736 1737.29 601.107C1743.87 605.996 1744.77 623.334 1745.43 635.996C1745.68 640.721 1745.89 644.798 1746.36 646.809C1746.48 647.359 1746.14 647.91 1745.59 648.036C1745.5 648.063 1745.41 648.063 1745.33 648.063C1744.87 648.047 1744.47 647.73 1744.36 647.267C1743.86 645.081 1743.65 641.119 1743.39 636.105C1742.78 624.544 1741.88 607.064 1736.06 602.752C1727.89 596.691 1738.68 565.934 1743.68 553.022C1741.58 546.323 1739.45 539.608 1737.33 532.893C1735.42 530.707 1733.36 528.554 1731.33 526.603C1728.56 523.932 1729.3 517.915 1730.01 512.094L1730.21 510.458C1728.77 505.945 1727.33 501.449 1725.9 496.974C1724.48 495.459 1722.78 493.818 1720.86 491.97C1719.14 490.308 1717.24 488.477 1715.19 486.4C1707.79 478.911 1708.58 449.957 1708.82 444.06C1707.71 440.664 1706.6 437.302 1705.51 433.977C1705.45 433.885 1705.39 433.786 1705.36 433.677C1705.32 433.563 1705.31 433.453 1705.31 433.344C1704.42 430.619 1703.53 427.921 1702.65 425.25C1661.11 371.116 1592.38 304.363 1586.07 298.269L1580.59 296.192C1579.14 296.508 1577.61 296.879 1576.02 297.26C1567.55 299.304 1557 301.839 1547.2 298.716C1534.25 294.585 1530.97 283.732 1529.01 277.251C1528.94 277.017 1528.87 276.783 1528.8 276.554L1516.77 271.992C1516.21 272.041 1515.63 272.095 1515.02 272.15C1509.83 272.624 1502.74 273.284 1493.04 273.556C1477.1 274.014 1467.49 265.664 1459.77 258.955C1455.55 255.286 1451.9 252.124 1448.33 251.525C1440.57 250.228 1433.42 243.137 1429.84 239.027L1416.92 234.126C1406.7 232.159 1390.94 229.608 1376.09 229.156C1352.62 228.442 1334 205.535 1330.91 201.511L1305.95 192.048C1305.74 192.195 1305.46 192.256 1305.17 192.12C1256.6 169.516 967.003 73.1286 916.384 55.5942C915.474 55.2778 915.872 53.8235 916.787 54.1391C966.36 71.3083 1243.98 163.739 1302.17 189.127C1302.45 188.822 1302.89 188.697 1303.3 188.849L1331.02 199.358C1331.43 199.233 1331.88 199.369 1332.14 199.728C1332.15 199.733 1332.17 199.761 1332.2 199.799L1417.5 232.143C1424.14 233.428 1428.41 234.451 1428.53 234.481L1428.9 234.569L1429.12 234.874C1429.15 234.906 1429.87 235.877 1431.09 237.299L1517.07 269.899C1523.8 269.299 1527.07 269.228 1528.91 271.506C1529.53 272.269 1529.99 273.469 1530.47 274.979L1571.23 290.436C1576.09 279.96 1572.23 266.923 1570.98 263.315C1500.59 216.532 1453.5 186.86 1452.83 186.44C1452.72 186.375 1452.64 186.293 1452.57 186.206C1439.85 178.869 1427.13 171.533 1414.36 164.284C1365.75 136.698 1238.05 73.8096 1185.99 53.2719ZM1744.89 550.002C1745.1 549.485 1745.29 549.032 1745.44 548.656H1745.44C1746.47 546.148 1744.31 541.832 1740.86 537.221C1742.21 541.483 1743.55 545.746 1744.89 550.002ZM1731.73 515.19C1731.27 519.409 1731.11 523.529 1732.77 525.131C1733.65 525.982 1734.72 527.045 1735.87 528.244C1734.49 523.883 1733.1 519.534 1731.73 515.19ZM1730.57 504.801C1730.53 504.12 1730.43 503.531 1730.26 503.084C1730.07 502.588 1729.83 502.092 1729.55 501.59C1729.89 502.659 1730.23 503.727 1730.57 504.801ZM1710.75 449.957C1710.67 460.341 1711.29 479.526 1716.66 484.966C1718.7 487.027 1720.59 488.853 1722.3 490.504C1723.09 491.262 1723.83 491.982 1724.54 492.679C1722.07 484.983 1719.63 477.357 1717.2 469.846C1717.02 469.634 1716.93 469.356 1716.96 469.089C1716.04 466.271 1715.14 463.469 1714.24 460.684C1713.83 460.422 1713.66 459.915 1713.84 459.457C1712.8 456.264 1711.78 453.097 1710.75 449.957ZM1739.39 454.252C1723.37 449.963 1717.45 457.397 1716.06 459.654C1716.86 462.122 1717.66 464.612 1718.47 467.107C1721.61 463.939 1730.27 456.935 1742.83 460.232C1741.77 458.253 1740.7 456.28 1739.64 454.318L1739.39 454.252ZM1796.89 314.833C1762.5 360.192 1743.28 441.84 1740.91 452.35C1742.07 454.492 1743.23 456.64 1744.39 458.798C1748.46 439.672 1771.56 336.755 1802.38 314.173L1796.89 314.833ZM1730.6 437.715C1721.69 431.393 1711.04 433.246 1707.71 434.053C1708.6 436.746 1709.49 439.46 1710.38 442.202C1710.72 442.382 1710.95 442.747 1710.93 443.161C1710.93 443.182 1710.92 443.406 1710.9 443.788H1710.89C1712.34 448.23 1713.81 452.732 1715.29 457.283C1717.93 454.083 1724.62 448.732 1738.32 451.876C1735.73 447.096 1733.15 442.37 1730.6 437.715ZM1782.3 316.582C1745.22 355.941 1733.13 434.358 1732.69 437.28H1732.68C1734.91 441.346 1737.17 445.467 1739.43 449.636C1743.34 432.925 1762 358.683 1794.09 315.171L1782.3 316.582ZM1761.7 319.046C1722.53 365.888 1723.44 419.506 1723.45 420.045L1723.46 420.54V420.536C1725.96 425.049 1728.51 429.66 1731.09 434.353C1733.5 420.149 1746.29 353.565 1779.17 316.954L1761.7 319.046ZM1721.4 421.037C1710.28 420.464 1705.86 424.203 1704.82 425.283H1704.82C1705.56 427.534 1706.31 429.807 1707.06 432.096C1710.17 431.3 1719.63 429.497 1728.62 434.119C1726.18 429.682 1723.77 425.315 1721.4 421.037ZM1706.94 395.185C1699.15 396.057 1697.38 401.866 1697.23 402.434H1697.22C1699.46 409.1 1701.76 416.011 1704.11 423.135C1706.12 421.446 1710.83 418.699 1720.24 418.939C1715.63 410.643 1711.18 402.69 1706.94 395.185ZM1590.91 300.106C1606.14 314.991 1662.95 371.285 1700.74 419.446C1698.82 413.646 1696.93 407.994 1695.1 402.516C1651.12 350.715 1606.14 307.428 1603.47 304.87L1590.91 300.106ZM1740.95 321.532C1706.12 358.81 1708.7 393.631 1708.74 393.997L1708.76 394.231V394.237C1712.81 401.421 1717.06 409.013 1721.46 416.921C1721.91 404.761 1725.86 359.827 1758.77 319.401L1740.95 321.532ZM1696.91 377.493C1692.57 376.016 1690.27 377.852 1689.29 379.051C1691.53 385.554 1693.86 392.416 1696.27 399.583C1697.57 397.316 1700.35 394.16 1705.86 393.272C1702.74 387.745 1699.75 382.469 1696.91 377.493ZM1608.3 306.701C1619.66 317.771 1656.47 354.268 1693.34 397.3C1691.47 391.768 1689.66 386.42 1687.9 381.291L1686.98 380.13C1667.87 355.794 1628.05 317.467 1622.37 312.032H1622.36L1608.3 306.701ZM1715.45 324.584C1694.34 350.447 1698.86 376.304 1698.91 376.577L1698.99 377.007L1699 377.002C1701.44 381.303 1704 385.815 1706.66 390.519C1706.97 380.653 1710.41 352.18 1737.82 321.903L1715.45 324.584ZM1683.13 353.51L1680.4 353.717C1682.93 360.743 1685.66 368.516 1688.55 376.91C1689.91 375.672 1692.15 374.489 1695.5 375.04C1694.69 373.617 1693.9 372.227 1693.11 370.859C1692.76 370.761 1692.46 370.472 1692.38 370.08C1692.38 370.056 1692.32 369.8 1692.26 369.355C1688.92 363.528 1685.86 358.214 1683.13 353.499V353.51ZM1627.24 313.884C1638.23 324.507 1668.45 354.165 1685.92 375.531C1683.13 367.48 1680.51 360.035 1678.08 353.292C1664.39 336.352 1649.55 324.35 1644.34 320.36V320.366L1627.24 313.884ZM1706.74 325.63C1691.92 344.38 1693.59 364.1 1694.23 368.673H1694.22C1694.97 369.965 1695.72 371.284 1696.49 372.63C1696.11 364.209 1697.25 344.675 1712.56 324.933L1706.74 325.63ZM1695.63 326.96C1684.06 333.752 1684.61 350.262 1684.71 352.159V352.153C1686.88 355.903 1689.26 360.029 1691.83 364.493C1691.53 356.486 1692.74 341.028 1703.9 325.968L1695.63 326.96ZM1675.54 340.451C1676.85 343.933 1678.23 347.694 1679.68 351.711L1681.99 351.532C1679.53 347.28 1677.36 343.563 1675.54 340.451ZM1671.68 329.828H1671.67C1673.29 332.569 1677.15 339.121 1682.65 348.605C1682.9 343.242 1684.37 333.6 1691.41 327.462L1671.68 329.828ZM1650.58 322.731C1656.84 327.914 1666.48 336.543 1676.02 347.629C1673.5 340.762 1671.22 334.771 1669.21 329.794L1650.58 322.731ZM1672.69 327.642L1691.91 325.341C1689.3 323.897 1686.2 320.845 1685.27 314.392L1672.69 327.642ZM1669.32 326.285V326.29L1672.23 304.133C1672.2 304.073 1672.17 304.024 1672.14 303.964C1669.66 305.583 1663.05 308.445 1652.47 302.7L1669.32 326.285ZM1671.42 326.006H1671.43L1683.83 312.931C1681.3 312.528 1677.18 311.186 1673.93 306.87L1671.42 326.006ZM1645.95 313.781C1645.82 315.002 1645.45 316.577 1644.5 317.913C1644.73 318.087 1645.02 318.305 1645.34 318.55L1662.38 325.015C1656.84 321.216 1651.36 317.471 1645.95 313.781ZM1650.64 303.643C1650.85 305.845 1650.73 308.369 1649.55 310.233V310.239C1648.99 311.121 1648.24 311.791 1647.32 312.244C1653.4 316.386 1659.56 320.594 1665.8 324.873L1650.64 303.643ZM1687.12 312.44C1687.99 324.028 1695.66 324.562 1695.99 324.579L1697.59 324.661H1697.59L1704.28 323.859C1702.04 320.763 1697.68 312.838 1699.26 299.648L1687.12 312.44ZM1701.71 297.059C1698.88 313.099 1705.2 321.82 1706.66 323.576L1713.41 322.769C1711.41 319.063 1706.58 307.486 1710.52 287.777L1701.71 297.059ZM1713.26 284.888C1707.79 307.633 1714.25 320.191 1715.62 322.502L1739.39 319.657H1739.39C1736.02 315.133 1723.27 295.87 1728.38 268.956L1713.26 284.888ZM1731.09 266.1C1723.51 297.608 1741.56 319.125 1741.75 319.346L1741.77 319.374L1759.44 317.258C1756.02 310.619 1742.32 282.015 1743.71 252.8L1731.09 266.1ZM1623.61 298.617C1624.48 301.211 1624.98 305.089 1623.56 310.288L1642.25 317.374L1642.3 317.33C1643.84 315.874 1643.98 313.427 1643.96 312.424C1637.06 307.728 1630.27 303.123 1623.61 298.617ZM1745.9 250.484C1743.52 281.23 1758.98 312.024 1761.61 316.997L1780.27 314.762C1775.4 307.807 1752.8 273.327 1756.8 238.995L1745.9 250.484ZM1759.21 236.465C1759.2 236.514 1759.2 236.564 1759.2 236.613C1753.42 273.049 1779.83 310.684 1782.58 314.484L1794.57 313.05H1794.57C1789.75 305.01 1766.62 264.175 1769.3 225.832L1759.21 236.465ZM1674.34 303.742C1678.11 310.494 1684.08 311.028 1685.61 311.05L1699.81 296.088V296.083C1699.84 295.898 1699.87 295.713 1699.91 295.522C1696.3 294.753 1684.97 291.052 1678.2 274.384L1674.34 303.742ZM1633.99 280.326C1633.38 284.37 1631.13 292.197 1622.92 295.674C1630.2 300.596 1637.64 305.638 1645.2 310.794C1646.39 310.587 1647.25 310.048 1647.82 309.143C1649.47 306.527 1648.34 301.452 1647.72 299.555H1647.72L1633.99 280.326ZM1604.84 285.961C1606.61 289.754 1608.13 295.835 1605.38 303.392L1621.63 309.557C1623.78 301.479 1620.84 297.157 1620.13 296.257C1614.95 292.764 1609.86 289.33 1604.84 285.961ZM1676.49 271.698C1671.28 274.701 1654.87 282.893 1635.85 279.41L1649.37 298.351C1664.1 308.674 1671.51 301.932 1671.82 301.637L1672.66 300.847H1672.66L1676.49 271.698ZM1589 275.338C1590.32 278.903 1591.15 284.697 1588.7 293.206C1589.79 293.271 1590.8 293.451 1591.71 293.789C1597.94 296.078 1601.89 299.855 1603.71 301.937C1607.09 291.625 1601.86 284.538 1600.78 283.236H1600.79C1596.8 280.56 1592.87 277.927 1589 275.338ZM1588.07 295.222C1587.91 295.691 1587.74 296.165 1587.57 296.65L1600.43 301.529C1598.41 299.637 1595.27 297.282 1590.99 295.712C1590.14 295.396 1589.16 295.249 1588.07 295.222ZM1531.23 277.475C1533.21 283.95 1536.39 293.124 1547.83 296.77C1557.1 299.73 1566.91 297.364 1575.56 295.277H1575.56C1576.1 295.146 1576.64 295.014 1577.17 294.889L1531.23 277.475ZM1585.88 295.315C1585.43 295.359 1584.96 295.413 1584.49 295.478L1585.66 295.919C1585.73 295.718 1585.8 295.516 1585.88 295.315ZM1624.71 267.332C1623.04 271.452 1617.84 280.702 1604.12 283.007C1609.59 286.686 1615.17 290.442 1620.84 294.274C1632.1 290.513 1632.17 278.336 1632.17 277.813V277.781H1632.17L1624.71 267.332ZM1573.71 265.146C1575.32 270.689 1577.48 281.705 1573.15 291.178L1580.77 294.067C1582.84 293.636 1584.78 293.309 1586.55 293.206C1590.15 281.187 1586.85 274.93 1585.44 272.962C1581.47 270.313 1577.56 267.708 1573.72 265.152L1573.71 265.146ZM1678.77 269.992C1685.88 291.777 1700.61 293.614 1701.24 293.679L1702.01 293.761L1702.01 293.767L1711.3 283.972C1706.94 282.588 1689.73 276.243 1680.12 259.717L1678.77 269.992ZM1680.58 256.256C1690.67 276.374 1712.6 282.221 1712.84 282.288L1712.89 282.298H1712.89L1728.05 266.324C1720.56 265.195 1694.34 260.185 1682.17 244.139L1680.58 256.256ZM1618.42 258.535C1614.93 262.421 1604.34 272.483 1588.64 272.635C1592.87 275.47 1597.18 278.352 1601.55 281.285C1618.22 279.578 1622.54 267.795 1623.27 265.315L1618.42 258.535ZM1678.28 258.033C1672.71 261.352 1653.65 270.983 1626.66 266.536L1634.09 276.947C1655.84 281.945 1674.6 270.525 1676.83 269.097H1676.83L1678.28 258.033ZM1527.31 272.809C1526.45 271.741 1524.72 271.491 1521.6 271.632V271.637L1527.97 274.052C1527.75 273.518 1527.54 273.087 1527.31 272.809ZM1434.24 240.701C1437.94 244.38 1443.23 248.604 1448.67 249.514C1452.82 250.206 1456.66 253.548 1461.12 257.417C1468.57 263.893 1477.83 271.96 1492.99 271.518V271.512C1501.19 271.283 1507.52 270.776 1512.41 270.334L1434.24 240.701ZM1607.71 243.54C1603.45 248.968 1590.75 263.123 1574.38 263.134C1578 265.543 1581.68 267.991 1585.41 270.488L1585.65 270.503C1602.75 271.79 1614.13 260.355 1617.2 256.829L1607.71 243.54ZM1680.3 242.586C1674.57 246.947 1651.98 262.115 1620.32 257.673L1624.96 264.165C1656.01 270.029 1676.7 256.703 1678.62 255.4H1678.62L1680.3 242.586ZM1682.56 241.147C1694.36 259.117 1725.52 263.914 1729.79 264.492L1742.81 250.762C1734.16 249.945 1700.88 245.737 1684.24 228.382L1682.56 241.147ZM1682.27 227.591C1675.14 231.341 1644.61 245.971 1609.14 242.019L1618.67 255.351L1619.03 255.412C1655.6 261.26 1680.13 240.122 1680.38 239.91L1680.69 239.632L1682.27 227.591ZM1334.79 202.994C1340.95 210.123 1357.16 226.545 1376.17 227.123V227.118C1386.63 227.439 1397.55 228.791 1406.69 230.251L1334.79 202.994Z" class="primary"/>
<path d="M73.457 186.793L76.5254 187.023L81.5127 184.118C81.3382 187.797 77.0264 189.165 77.0264 189.165L77.2119 191.045L77.2178 191.056L84.8594 199.798C88.1012 205.618 92.2767 232.679 92.2939 232.79C89.1738 222.881 81.1802 216.61 81.1367 216.576C84.1563 207.893 79.1963 203.249 79.1963 203.249C79.9427 200.431 77.6646 197.112 76.9941 196.785C76.3265 196.47 73.6527 200.739 73.6309 200.774L73.2773 199.33L71.0693 198.894L70.1045 200.033L69.6416 197.733C68.7532 196.626 68.5127 195.1 68.5127 195.1C68.4766 195.126 60.586 200.76 57.4863 201.63C54.3742 202.497 51.0879 208.896 51.0879 208.896C46.7765 208.411 35.8262 216.445 35.8262 216.445C36.5729 213.616 53.4953 194.9 56.2871 194.707C59.0777 194.517 70.6145 187.937 70.6602 187.911C68.6496 186.03 70.1377 181.31 70.1377 181.31L73.457 186.793Z" class="primary"/>
<path d="M479.104 126.44L482.161 126.07L486.489 122.249C487.034 125.895 483.071 128.076 483.071 128.076L483.622 129.879L483.611 129.874L492.806 136.965C497.116 142.043 506.485 167.799 506.515 167.88C501.516 158.74 492.419 154.145 492.419 154.145C493.685 145.071 487.958 141.473 487.923 141.451C488.102 138.54 485.23 135.729 484.505 135.538C483.791 135.358 481.986 140.105 481.986 140.105L481.36 138.758H479.108L478.384 140.067L477.484 137.903C476.4 136.993 475.866 135.542 475.866 135.542C475.866 135.542 469.2 142.638 466.322 144.094C463.455 145.544 461.474 152.416 461.46 152.466C457.138 152.826 447.959 162.839 447.959 162.839C448.139 159.923 461.1 138.274 463.804 137.543C466.507 136.813 476.58 128.081 476.58 128.081C474.252 126.637 474.777 121.75 474.781 121.709L479.104 126.44Z" class="primary"/>
<path d="M101.009 124.522C117.965 122.8 123.007 131.118 123.007 131.118C122.598 134.819 126.992 141.964 128.093 142.596C129.169 143.22 129.586 142.325 129.597 142.302C128.533 140.989 130.106 137.422 130.12 137.391C129.763 139.454 131.477 142.023 131.499 142.056C131.499 142.056 132.099 142.885 133.864 143.544C135.63 144.209 138.498 143.01 138.498 143.01C138.226 145.799 133.539 145.197 133.532 145.196C133.532 145.196 131.134 146.896 134.208 148.008C137.288 149.131 144.608 145.643 151.47 147.218L151.465 147.202C158.327 148.783 164.061 165.282 164.061 165.282C160.149 157.41 152.892 157.974 152.844 157.978C148.967 152.184 140.645 153.822 140.629 153.825C133.151 148.08 128.256 153.088 128.256 153.088C128.55 150.865 126.888 150.947 126.888 150.947L125.105 151.454L125.646 150.244C125.639 150.249 124.779 150.953 124.828 146.821C124.877 142.678 119.688 140.753 119.688 140.753C120.414 134.157 113.771 133.738 113.709 133.734C115.949 129.613 101.009 124.522 101.009 124.522Z" class="primary"/>
<path d="M606.771 108.426C602.402 113.964 598.938 125.641 598.918 125.709C593.996 127.481 590.791 136.458 590.791 136.458C589.183 136.911 587.771 140.874 587.771 140.874L586.828 143.321L585.253 143.239L584.975 144.787L583.819 143.418C583.805 143.407 582.558 142.434 580.293 140.04C578.015 137.619 572.046 138.464 572.046 138.464C569.55 133.957 562.453 132.888 562.453 132.888C562.622 127.977 554.198 120.02 554.163 119.987C554.201 120.003 567.645 125.807 569.414 128.517C571.191 131.243 578.592 137.445 579.748 137.096C580.904 136.753 581.841 135.15 579.759 134.507C577.677 133.864 577.459 130.904 577.459 130.904C577.48 130.918 581.471 133.649 583.776 132.948C586.087 132.244 587.199 128.653 587.199 128.653C588.681 129.994 586.633 132.599 585.755 133.989C584.877 135.389 585.847 136.18 587.183 135.548C588.513 134.916 589.929 130.103 590.965 127.247C592 124.385 591.134 121.464 594.219 119.774L594.225 119.763C597.3 118.079 606.714 108.485 606.771 108.426Z" class="primary"/>
<path d="M337.426 63.1919C331.401 70.8366 326.619 86.9541 326.596 87.0327C319.816 89.4703 315.399 101.821 315.384 101.864C313.16 102.491 311.214 107.953 311.214 107.953L309.917 111.326L307.742 111.217L307.355 113.354L305.764 111.462C305.754 111.455 304.033 110.112 300.902 106.796C297.763 103.455 289.526 104.622 289.526 104.622C286.091 98.415 276.348 96.9336 276.293 96.9253C276.526 90.1459 264.899 79.1634 264.857 79.1245C264.902 79.1437 283.458 87.1579 285.896 90.8979C288.35 94.6535 298.564 103.211 300.155 102.731C301.752 102.257 303.044 100.044 300.172 99.1606C297.31 98.2824 296.997 94.2339 296.994 94.1899C297.047 94.2259 302.536 97.9784 305.709 97.0132C308.903 96.043 310.435 91.0825 310.435 91.0825C312.479 92.9357 309.656 96.5336 308.44 98.4467C307.236 100.371 308.571 101.466 310.413 100.594C312.25 99.7221 314.207 93.0828 315.635 89.1421C317.063 85.1851 315.864 81.1623 320.126 78.8296H320.115C324.378 76.4963 337.426 63.1919 337.426 63.1919Z" class="primary"/>
<path d="M364.181 905.209C364.306 905.977 364.753 906.882 364.491 907.509C363.81 909.307 362.84 910.971 360.213 916.214C360.894 915.015 359.831 917.407 358.267 919.391C356.833 921.221 354.783 920.383 353.225 919.276C352.358 918.677 351.944 917.44 351.328 916.508C351.944 916.628 352.658 916.988 353.203 916.824C354.931 916.306 357.22 916.071 358.163 914.834C360.087 912.354 361.238 909.242 362.802 906.446C363.085 905.934 363.701 905.623 364.181 905.209Z" class="tinted"/>
<path d="M409.761 824.939C419.931 813.952 432.151 814.033 445.467 817.396C457.469 820.453 468.533 825.539 479.549 831.006C485.61 834.015 489.889 838.686 492.353 844.91C494.745 850.911 496.86 857.016 499.057 863.082C502.828 873.678 510.067 880.132 521.191 882.503C533.787 885.185 546.345 888.221 558.876 891.251C562.626 892.156 566.256 893.513 569.892 894.767C570.42 894.952 571.193 896.012 571.118 896.112C570.508 896.946 569.772 898.205 568.96 898.26C556.118 899.415 543.277 900.577 530.419 901.346C525.971 901.613 521.387 901.133 516.95 900.506C508.344 899.285 500.98 895.622 495.394 888.694C491.344 883.68 487.305 878.643 483.016 873.836C479.604 869.983 476.071 866.151 472.12 862.897C465.77 857.709 461.562 857.823 454.804 862.434C454.27 862.793 453.85 863.366 453.283 863.628C433.7 872.987 427.769 891.42 422.428 910.191C421.567 913.26 421.37 916.526 420.857 919.714C408.545 911.266 394.662 906.666 380.284 903.417C377.51 902.785 375.477 904.561 374.163 906.965C373.373 908.382 372.674 909.827 371.966 911.287C371.813 909.696 371.569 908.076 371.754 906.518L371.748 906.513C372.119 903.39 373.922 900.065 373.22 897.296C372.282 893.486 368.085 892.008 364.63 890.466C358.269 887.632 351.706 885.185 345.542 882.013C340.707 879.533 337.247 881.68 333.622 884.095C332.581 883.572 331.539 883.053 330.487 882.497C322.11 878.055 322.153 878.077 314.381 884.433C313.656 885.015 312.648 885.244 311.678 885.544C320.077 871.28 329.741 857.899 340.162 845.058C346.675 837.04 354.923 832.658 365.191 832.298C372.947 832.036 380.698 831.715 388.41 831.977C396.51 832.265 404.005 831.115 409.761 824.939Z" class="tinted"/>
<path d="M341.494 890.634C341.789 890.645 342.371 891.316 342.306 891.501C340.218 897.398 335.602 902.326 335.521 909.041C335.513 909.313 334.418 909.548 333.857 909.81C333.416 908.747 332.333 907.498 332.615 906.664C333.624 903.672 335.052 900.832 336.245 898.123H336.25C337.487 895.649 338.589 893.354 339.837 891.13C340.028 890.743 340.933 890.623 341.494 890.634Z" class="tinted"/>
<path fill-rule="evenodd" clip-rule="evenodd" d="M1454.53 35.2207H1454.64V35.2744L1494.99 57.7012L1730.43 138.071L1766.14 208.413L1780.27 216.271L1780.27 216.276L1793.47 262.277L1904 480.044L1878.45 558.257L1884.66 579.866L1852.32 638.241L1784.92 844.582L1719.71 877.681L1701.38 910.774L1700.18 911.117L1594.94 941.01L1443.78 1017.73V1017.75H1324.77L1265.65 1034.54V1034.67H662.681L672.526 1040.45L672.292 1040.34L684.186 1045.99L684.437 1046.1L684.491 1046.14L695.005 1053.18L695.397 1053.45L695.561 1053.72L702.663 1065.55L714.796 1069.17L714.866 1069.24L724.312 1077.88L714.256 1070.19L701.398 1067.29L700.733 1066.81L692.885 1056.02L682.305 1050.22L670.025 1045.66L669.796 1045.55L656.355 1039.18L655.75 1038.43L653.323 1034.67H570.721V1034L548.203 1026.38L541.239 1028.58L490.435 1026.88L468.493 1023.82C468.054 1023.97 467.315 1023.76 466.785 1023.58L466.784 1023.58H466.779L466.778 1023.58C454.49 1019.7 442.305 1015.43 429.886 1011.97C416.766 1008.33 404.279 1003.16 391.89 997.623C345.595 976.916 299.071 956.745 253.254 935.003L250.633 936.238L236.973 937.825L234.886 944.901L232.581 948.155L215.992 949.814L209.311 955.829L209.676 955.484L199.633 964.662L199.478 964.748L188.654 970.985L185.975 971.627L175.042 969.506L167.095 973.293L166.245 973.646L165.682 973.527L155.456 971.348L145.391 976.328L145.081 976.471L134.563 973.427L144.632 974.995L155.225 968.053L164.895 969.041L174.576 963.209L184.192 964.455L193.317 957.275L201.274 947.558L201.637 947.204L210.379 938.283L221.771 936.965L228.516 923.731L224.641 921.218C221.73 919.838 218.81 918.466 215.919 917.036C215.658 916.905 215.635 915.974 215.733 915.45C215.734 915.447 215.735 915.443 215.735 915.44L199.721 905.052L166.929 913.352L166.227 913.49L165.882 913.498L153.404 913.701L143.659 918.29L141.668 919.235L141.17 919.469L141.046 919.525L140.816 919.634L140.755 919.662L140.498 919.764L139.481 920.183L135.396 921.845L132.523 923.019C132.987 930.486 136.271 938.197 141.521 944.131C148.046 951.731 158.259 956.297 168.154 954.064C177.75 951.903 187.034 942.624 185.74 932.081C185.093 927.048 181.234 922.461 176.371 920.062C171.603 917.604 165.11 917.356 160.777 921.331C164.692 916.951 171.602 916.397 177.011 918.597C182.463 920.703 187.411 925.25 188.886 931.5C190.304 937.63 188.422 944.179 184.805 949.188C181.184 954.228 176.004 958.165 169.948 960.209C157.605 964.343 143.671 959.6 134.684 950.841C128.181 944.68 123.226 936.576 121.128 927.5L118.344 928.584L117.902 928.555L107.322 927.701L98.5986 936.229L96.333 949.462L96.293 949.664L96.1914 949.78L88.5176 958.086L88.3535 957.975L95.1201 949.153L96.1963 935.456L96.2197 935.111L96.5186 934.762L105.24 924.505L105.731 923.926L106.668 923.914L117.383 923.802L120.264 922.364C120.044 920.291 119.977 918.178 120.073 916.038C120.081 915.915 120.088 915.792 120.097 915.669L91.4629 921.084L90.2383 921.312L89.3037 920.892L61.6934 908.354L46.6885 908.949L33.5322 910.335L27.2412 915.043L26.7402 914.694L32.6406 909.047L46.1133 905.817L46.2324 905.797L53.4697 904.623L45.9131 901.191L1.34277 886.417L0.80957 886.244L1.11133 885.199L1.66211 885.342L36.3779 894.457L31.0518 889.295L19.5586 884.058L19.4688 884.009L6.9873 876.021L-1.20703 874.181L7.14355 875.501L7.17773 875.511L20.1406 882.684L32.2783 887.371L42.5908 896.092L47.2314 897.311L47.2734 897.317L47.4395 897.384L89.8623 914.119L95.8955 912.581L91.8389 907.921L87.1523 897.697L80.168 888.771L70.0107 884.001L59.2891 879.374L70.3516 883.101L81.4648 887.334L89.5459 896.125L89.6191 896.204L94.9287 905.75L100.734 911.342L121.835 905.943C124.533 896.681 129.993 888.354 136.825 881.861C124.764 882.176 111.607 881.849 98.5664 877.638C84.962 873.106 71.3527 863.479 66.7305 848.279C64.6483 840.729 65.3883 832.917 68.4248 826.152C71.3867 819.421 77.2798 813.549 84.6377 811.873C92.2742 810.145 99.491 813.717 104.006 818.709C108.613 823.617 110.814 831.526 107.16 837.222C109.945 831.077 106.781 824.352 102.174 820.586C97.5785 816.668 91.074 814.945 86.1416 816.96C75.5829 821.145 72.6814 835.567 76.8428 844.804C81.201 854.387 91.8191 860.401 102.707 862.506C113.708 864.683 125.74 863.064 138.545 862.067C146.228 863.366 154.388 864.674 162.28 866.724C165.188 865.769 168.17 865.002 171.206 864.437C173.105 864.108 175.001 863.853 176.891 863.665L148.408 848.114L134.188 798.588C130.292 797.271 126.362 795.835 122.419 794.191L122.424 794.197C113.926 789.733 105.609 784.135 98.5068 776.63C91.394 769.272 85.6762 759.504 83.5723 749.077C81.6677 740 82.0072 730.836 83.6191 722.437C83.2076 721.314 82.7588 720.224 82.2686 719.175H82.2744C81.4895 712.618 79.0206 706.114 74.8457 701.405C72.7637 699.073 70.2123 697.138 67.4873 696.048C64.6641 694.958 61.4205 694.505 58.2539 694.887C51.9751 695.535 45.8867 699.973 45.6465 706.595C45.217 712.933 49.7847 720.922 57.2363 721.132C58.591 718.858 58.306 715.422 56.1826 713.304C58.7332 715.162 59.8228 719.038 58.2754 722.237L58.1338 722.526L57.709 722.598C53.5394 723.306 49.0696 721.535 46.0664 718.444C43.0142 715.381 41.003 711.287 40.4961 706.769C39.8969 702.25 41.6084 697.165 44.7148 693.683C47.8106 690.08 52.0729 687.692 56.542 686.515C61.0277 685.332 65.8034 685.277 70.458 686.443C75.2105 687.686 79.3422 690.166 82.8467 693.268C85.5235 695.696 87.7684 698.447 89.625 701.409C90.7362 698.287 91.8936 695.223 93.0459 692.201C95.0465 686.961 97.0405 681.814 98.8203 676.708L52.7686 585.975C49.4267 586.247 46.1259 586.958 42.9492 588.166C28.2167 593.617 18.4991 611.98 22.0742 627.944C23.0172 631.901 24.8432 635.603 27.3994 638.797C30.0102 641.898 33.4499 644.405 37.2705 645.98C44.7429 649.218 54.6407 648.253 59.5244 641.233C62.0422 637.925 63.3394 633.64 63.127 629.46C62.8815 625.312 60.6417 621.164 56.8867 619.229C53.0662 617.415 48.2965 617.725 44.3887 619.648C40.4917 621.507 37.2543 625.509 37.6846 630.125C37.009 625.547 40.0774 621.175 44.0615 619.033C48.0349 616.826 53.039 616.155 57.4756 617.965C61.8955 619.954 64.6806 624.549 65.2148 629.264C65.6998 633.989 64.5057 638.862 61.8135 642.841C59.2355 646.896 54.8099 649.883 50.0684 650.886C45.3156 652.036 40.317 651.48 35.7822 649.91C31.242 648.308 27.0771 645.626 23.7305 642.051C20.4712 638.426 18.0352 634.065 16.6562 629.378C13.953 619.949 15.3152 609.783 19.3594 601.029C23.3656 592.249 30.4302 584.519 39.7285 580.394C42.5565 579.153 45.508 578.227 48.5195 577.603L46.3574 573.342L58.6807 535.613L44.0137 484.53L120.442 346.538L165.435 208.804L208.968 186.708L227.294 153.622L335.193 122.643L507.407 35.2363V35.2207H1454.43L1454.5 35.1982L1454.53 35.2207ZM637.191 1019.14L649.542 1019.4L651.668 1019.66L657.343 1028.13H1265.65V1028.26L1302.68 1017.75H636.052L637.191 1019.14ZM557.919 1023.32L570.727 1027.66V1028.13H649.104L648.898 1027.81L633.125 1027.29L631.354 1027.24L622.062 1017.75H575.61L557.919 1023.32ZM590.142 55.7139L337.389 128.284L213.347 191.241L125.991 348.957L64.9814 535.724L77.8291 580.471C84.0016 582.881 89.7544 586.344 94.8877 590.587C110.274 603.559 117.354 623.476 118.227 642.52C118.701 652.128 117.72 661.755 115.523 671.059C114.203 676.604 112.588 681.957 110.898 687.187L138.987 742.529C140.367 740.626 141.951 738.871 143.727 737.305C148.37 733.239 154.486 730.556 160.813 730.644C167.021 730.725 172.881 733.075 177.323 737.059C181.754 740.999 184.627 747.045 183.886 753.013C183.362 758.687 179.361 764.785 173.17 765.232C170.211 765.336 167.475 764.028 165.6 762.028C163.692 760.083 162.706 757.068 163.769 754.588C162.45 760.044 168.57 764.176 172.985 763.353C177.656 762.458 180.267 757.302 180.131 752.789C180.065 743.251 169.578 736.977 161.125 738.127C153.078 739.023 146.795 746.276 144.855 754.092L165.151 794.079L170.566 796.095L170.636 796.119L170.707 796.192L174.578 800.237C175.781 800.954 176.977 801.689 178.161 802.446L185.97 802.968L186.189 802.983L186.469 803.141L194.001 807.32L194.043 807.341L201.305 812.907L201.171 812.801L208.785 817.638L219.056 818.836L220.247 818.978L221.068 820.187L225.065 827.587L227.725 828.157L227.363 827.535L226.101 825.331L234.231 793.378L236.399 763.805L236.426 763.355L236.479 763.158L241.659 742.316L237.155 737.702L229.491 733.508L222.352 727.034L218.904 718.169L215.864 709.341L219.623 717.892L223.494 725.989L230.672 731.527L238.875 735.22L242.624 738.438L243.821 733.605L230.204 699.765L230.15 699.633L230.144 699.599L229.145 695.894L222.112 687.693L218.297 678.01L212.489 667.681L212.48 667.654L211.379 660.982L212.896 667.525L219.354 677.466L219.393 677.537L223.645 686.701L227.802 690.934L220.204 662.776L221.039 662.528L221.18 662.955L233.241 698.522L236.027 704.548L236.927 698.753L236.942 698.657L239.452 687.864L243.937 683.113L244.218 683.513L240.487 688.57L239.45 699.101L239.057 711.105L249.235 733.121L249.577 733.866L249.4 734.847L244.026 764.38L243.96 771.067L244.006 770.979L247.212 764.699L247.988 763.158L248.768 761.578L251.717 755.563L251.748 746.993L251.752 746.244L252.213 745.848L260.647 738.575L260.922 738.555L271.872 737.618L278.891 732.158L278.98 732.289L272.379 738.472L272.287 738.554L272.125 738.587L261.554 740.472L254.78 747.495L255.521 755.953L255.547 756.306L255.361 756.794L252.847 763.384L252.224 765.033L251.561 766.711L250.25 769.982L248.942 773.259L248.613 774.074L248.533 774.28L248.511 774.33L248.426 774.514L248.381 774.613L248.196 775.013L247.452 776.611L243.835 784.431L243.74 794.411L243.736 794.688L243.629 795.25L237.17 821.523L252.268 844.453L262.815 838.985L263.808 829.866L270.896 822.825L271.177 822.533L278.905 816.116L284.599 808.778L283.549 801.094L288.161 793.318L287.317 785.589L292.812 777.079L291.503 769.034L293.995 777.43L293.883 777.679L289.954 785.756L291.754 793.924L291.852 794.373L291.573 795.055L288.588 801.433L290.344 810.165L289.846 812.312L284.916 821.002L284.848 821.127L277.562 829.21L277.836 828.916L273.062 834.293L271.826 847.571L269.235 849.432L263.587 851.14L262.393 862.074L260.122 866.981L263.475 881.996L281.675 910.349C285.671 908.531 289.434 906.11 293.038 903.154C299.235 898.096 303.602 891.064 310.426 886.753C308.513 890.296 306.523 893.829 304.729 897.464C303.722 899.481 304.91 902.68 307.058 903.917C309.216 905.187 311.434 906.435 313.756 907.384C317.647 908.926 321.714 907.792 323.572 904.358C327.06 897.998 330.211 891.495 333.503 885.031C333.726 886.633 334.195 888.361 333.672 889.675C331.508 895.016 328.804 900.146 326.434 905.416C321.752 915.842 322.581 918.023 333.64 922.591C339.581 925.027 345.762 926.875 351.796 929.061C359.666 931.922 361.955 931.142 366.092 924.236C368.266 920.661 369.853 916.737 371.657 912.922C371.788 913.908 371.957 914.917 371.805 915.87C371.194 919.576 369.161 923.578 369.951 926.93C371.053 931.551 376.464 932.5 380.465 934.151C392.767 939.258 405.156 944.142 417.562 949.004C419.284 949.68 421.235 950.116 423.077 950.116C423.9 950.094 425.486 948.666 425.433 948.012C425.002 944.273 424.342 940.55 423.481 936.915C422.457 932.631 420.38 928.499 422.118 923.942C425.35 934.434 428.844 944.835 431.717 955.393C434.322 964.914 438.847 973.259 444.673 981.173C445.304 982.031 445.933 982.892 446.561 983.754L467.213 991.453C466.345 990.55 465.564 989.57 464.872 988.516H464.845C464.736 988.385 464.659 988.2 464.572 988.074C464.338 987.693 464.109 987.316 463.907 986.913C463.744 986.63 463.607 986.325 463.471 986.02C463.269 985.622 463.073 985.217 462.904 984.798C462.806 984.476 462.67 984.171 462.539 983.839C462.403 983.397 462.266 982.95 462.13 982.509C462.026 982.187 461.929 981.833 461.825 981.506C461.722 981.043 461.623 980.546 461.52 980.083C461.454 979.713 461.383 979.364 461.34 979.021C461.247 978.497 461.209 977.991 461.144 977.479C461.105 977.113 461.062 976.769 461.051 976.404C460.991 975.838 460.991 975.281 460.991 974.726C460.975 974.366 460.958 974.028 460.947 973.663C460.958 973.025 460.98 972.36 461.019 971.728C461.057 971.401 461.029 971.09 461.067 970.763C461.144 969.804 461.258 968.801 461.399 967.798C462.364 960.898 465.183 954.188 468.84 948.427C469.881 946.792 471.02 945.238 472.17 943.767C474.497 940.829 476.999 938.289 479.501 936.305C480.755 935.329 482.009 934.462 483.229 933.754C483.851 933.405 484.439 933.105 485.05 932.833C494.6 928.483 499.118 934.77 499.128 934.784C501.788 934.114 503.974 934.457 505.724 935.188C507.828 928.565 514.025 914.536 527.613 920.842L527.373 926.188C527.371 926.185 525.016 922.586 519.993 923.408C516.091 924.035 515.911 931.034 518.063 937.521C519.862 937.57 521.868 938.131 523.906 939.641C523.906 939.641 530.447 935.498 537.68 943.146C538.007 943.462 538.302 943.821 538.612 944.191V944.215C545.354 952.385 550.072 969.708 546.379 984.438C543.796 994.685 538.562 1001.68 531.222 1004.53L540.346 1005.42L562.213 999.737L567.103 993.479L580.593 984.59L579.039 976.065L579.731 971.427L596.252 960.918L600.078 951.069L599.882 951.631L605.196 937.645L605.556 936.69L605.671 936.511L613.727 924.247L616.195 922.154L628.792 918.601L635.12 910.425L635.823 909.602L636.482 909.427L648.354 906.31L656.278 895.757L656.524 895.44L669.169 893.07L657.772 896.76L650.338 909.64L639.677 913.722L632.607 924.961L621.858 928.738L616.086 941.095L612.887 955.495L612.69 956.057L608.243 970.042L596.987 977.449L596.917 994.896L637 999.257L667 973.198L667.665 972.686L668.02 972.501L681.002 965.682L690.383 953.675L690.78 953.162L690.884 953.037L691.064 952.803L691.113 952.742L691.326 952.497L698.979 943.711L700.728 941.722L709.384 932.096L709.901 931.523L710.381 931.327L721.931 926.623L726.563 913.062L721.947 897.986L721.876 897.752L721.925 897.577L725.582 884.807L725.806 884.84L723.38 897.67L729.496 912.604L729.648 912.98L725.801 928.88L725.594 929.746L724.617 930.248L713.438 936.036L706.01 946L704.516 948.044L701.491 952.246L698.461 956.443L698.379 956.563L707.072 951.996L742.06 925.179L743.221 924.285L780.022 922.775L795.442 914.218L808.507 905.803L812.617 897.534L813.331 897.638L810.126 906.686L797.704 917.199L797.59 917.281L790.613 922.345L800.353 921.941L854.913 913.858L855.572 913.76L855.807 915.02L855.158 915.161L813.919 923.964L822.237 926.558L837.062 925.975H837.183L854.499 927.752L864.064 925.348L854.613 928.378L854.564 928.39L837.183 927.719L821.965 929.224L806.539 925.539L801.029 926.711L800.979 926.722L800.772 926.743L747.423 931.627L741.907 936.439L748.633 939.182L758.956 947.417L770.996 953.091L784.176 952.726L797.873 951.897L784.296 953.849L770.402 955.282L757.277 950.339L757.157 950.295L746.54 943.09L737.492 940.293L713.728 961.038L713.504 961.234L712.938 961.578L675.742 984.225L645.179 1011.21H1325.71L1592.73 935.366L1715.34 873.134L1846.77 635.838L1872.15 558.131L1787.86 264.536L1761.62 212.829L1489.82 62.293L1470.81 55.8008H590.272V55.2939L590.142 55.7139ZM1347.8 1011.21H1443.78V1010.97L1564.68 949.605L1347.8 1011.21ZM475.996 983.07L481.621 983.729L484.265 989.834L492.424 989.933L499.172 997.23L508.395 993.448L515.818 996.85L520.794 992.456L526.169 994.261V994.255L532.354 979.838L524.43 985.518L519.982 983.229L515.491 987.992L507.734 984.444L501.265 987.796L496.861 982.04L488.314 981.953L486.276 975.739L481.289 975.93L476.536 967.405L475.996 983.07ZM498.104 975.995L509.348 978.503L505.882 967.367L498.104 975.995ZM530.61 952.994C530.436 953.294 530.24 953.588 530.071 953.888C525.46 961.246 519.732 965.072 513.878 967.847C513.845 967.868 513.812 967.863 513.812 967.891C513.725 967.929 513.665 967.945 513.6 967.988H513.604C521.262 972.71 537.936 969.983 537.964 969.979C537.964 969.979 537.157 958.472 530.692 952.869C530.654 952.918 530.648 952.945 530.61 952.994ZM489.077 943.554C480.861 945.859 475.222 955.89 475.195 955.938C475.26 955.982 484.848 962.587 493.203 964.223C494.92 964.555 496.562 964.686 498.071 964.506C497.782 964.141 497.482 963.808 497.221 963.448C493.411 958.614 490.168 952.89 489.203 944.747C489.16 944.409 489.115 944.066 489.077 943.695C489.082 943.668 489.066 943.608 489.077 943.554ZM1622.99 926.771L1697.32 905.661V905.667L1710.13 882.544L1622.99 926.771ZM133.368 914.026C133.217 914.649 133.083 915.278 132.968 915.912L136.59 914.029L136.698 913.972L133.368 914.026ZM219.083 899.617L241.547 912.584L255.228 914.816C256.259 914.769 257.29 914.716 258.321 914.659C249.77 908.441 240.698 903.159 231.357 898.911L231.349 898.904C226.453 895.598 221.318 892.58 216.027 890.007L219.083 899.617ZM196.263 882.883C188.842 881.181 181.321 880.609 173.896 881.533C159.663 883.225 145.213 891.635 137.708 903.768L164.509 901.619L204.386 891.181L207.152 892.74L207.934 893.187L207.344 890.53L206.937 889.728L197.912 884.933L196.393 883.917L196.263 882.883ZM181.568 804.707C184.382 806.648 187.121 808.733 189.749 811.001C198.829 818.599 205.73 829.059 208.592 840.276C210.875 848.765 210.595 858.215 207.032 866.041C219.791 869.192 231.844 874.755 242.611 881.326C244.743 883.119 246.824 884.953 248.854 886.826L243.423 854.937L232.929 837.04L221.976 833.641L216.168 823.188L207.606 822.337L206.967 822.203L198.926 816.046L198.784 815.937L192.21 809.911L185.403 805.308L181.568 804.707ZM1724.92 868.27L1779.97 840.331L1836.87 666.147L1724.92 868.27ZM201.02 864.749C202.771 865.069 204.511 865.437 206.238 865.849C208.937 857.891 208.057 848.983 204.989 841.432C200.972 831.348 193.81 823.118 184.789 817.629C181.406 815.505 177.895 813.682 174.278 812.062L201.02 864.749ZM153.51 844.054L188.869 863.355C189.466 863.383 190.062 863.415 190.657 863.454L188.508 860.121L188.643 860.287L181.621 851.256L181.596 851.203L176.306 841.823L176.106 841.476L176.085 841.2L175.223 829.481L167.483 822.178L167.392 822.089L167.361 822.003L163.491 811.818L168.191 821.515L175.281 827.356L165.788 808.654C157.893 805.789 149.6 803.481 141.098 800.827L153.51 844.054ZM179.006 840.472L184.819 848.942L187.943 852.305L177.613 831.952L179.006 840.472ZM165.803 795.362C167.77 796.394 169.734 797.453 171.681 798.557L170.181 796.762L165.344 794.457L165.803 795.362ZM134.963 779.46C135.544 779.809 136.129 780.156 136.72 780.498C132.736 772.033 131.145 762.201 133.942 752.772C134.351 751.415 134.841 750.086 135.407 748.794L114.111 706.835L134.963 779.46ZM106.239 701.252C101.187 716.662 97.1415 731.949 100.627 745.082C103.683 758.076 114.476 767.763 127.438 775.082L106.239 701.252ZM146.961 771.56C147.272 772.225 147.607 772.883 147.962 773.53L146.961 771.56ZM102.273 665.607C104.21 658.181 105.235 650.533 105.2 642.896C105.146 626.473 99.6295 609.62 87.7422 598.746C85.8745 597.021 83.8533 595.433 81.7148 594.005L102.273 665.607ZM90.8721 647.73L74.2666 589.897C69.5784 587.809 64.5784 586.454 59.5449 586.008L90.8721 647.73ZM1862.22 607.935L1878.18 579.125L1875.12 568.459L1862.22 607.935ZM52.8594 572.835L54.8398 576.737C59.5228 576.413 64.2431 576.774 68.7744 577.777C69.4964 577.927 70.214 578.092 70.9277 578.27L61.6455 545.938L52.8594 572.835ZM1875.49 547.929L1897.5 480.546L1802.28 292.939L1875.49 547.929ZM50.4941 485.266L62.0176 525.399L110.54 376.854L50.4941 485.266ZM170.39 213.044L135.895 318.64L203.764 196.104L170.39 213.044ZM1779.06 233.872L1775.17 220.337L1771.02 218.037L1779.06 233.872ZM1756.72 203.18L1726.19 143.026L1524.65 74.1885L1756.72 203.18ZM231.354 158.729L218.552 181.844L306.738 137.084L231.354 158.729ZM365.842 113.843L590.272 49.4072V49.2607H590.779L590.878 49.2334L590.927 49.2607H1466.29L1452.75 41.7607H507.865L365.842 113.843Z" class="tinted"/>
</g>
<defs>
<clipPath id="clip0_339_2336">
<rect width="1920" height="1080" class="primary"/>
</clipPath>
</defs>
</svg>
