<svg width="1920" height="1080" viewBox="0 0 1920 1080" fill="none" xmlns="http://www.w3.org/2000/svg">


<style>
    :root {
        --tint: #FFFFFF;
    }
	.primary {
		fill: white;
	}
	.tinted {
		fill: var(--tint);
	}
</style>

<path class="tinted" fill-rule="evenodd" clip-rule="evenodd" d="M152.744 276.295L135.225 293.814V774.068L152.721 791.564L133.742 810.543L114.764 791.564L132.348 773.98V293.855L114.787 276.295L133.766 257.316L152.744 276.295ZM118.832 791.564L132.348 805.08V778.049L118.832 791.564ZM135.225 804.992L148.652 791.564L135.225 778.137V804.992ZM118.855 276.295L132.348 289.787V262.803L118.855 276.295ZM135.225 289.746L148.676 276.295L135.225 262.844V289.746ZM133.665 261.485H133.866L133.766 261.385L133.665 261.485Z"/>
<path class="tinted" fill-rule="evenodd" clip-rule="evenodd" d="M1803.69 276.401L1786.15 293.948V772.53L1803.69 790.069L1784.71 809.048L1765.73 790.069L1783.27 772.528V293.935L1765.74 276.401L1784.71 257.423L1803.69 276.401ZM1769.8 790.069L1783.27 803.542V776.597L1769.8 790.069ZM1786.15 803.54L1799.62 790.069L1786.15 776.599V803.54ZM1786.15 289.88L1799.62 276.401L1786.15 262.923V289.88ZM1769.8 276.401L1783.27 289.866V262.937L1769.8 276.401Z"/>
<path class="tinted" fill-rule="evenodd" clip-rule="evenodd" d="M91.0088 89.2852H1828V48.7236H1871.44V92.1621H1830.88V973.357H1871.44V1016.8H1828V976.234H91.0088V1016.8H47.5703V973.357H88.1318V92.1621H47.5703V48.7236H91.0088V89.2852ZM50.4473 1013.92H88.1318V976.234H50.4473V1013.92ZM1830.88 1013.92H1868.56V976.234H1830.88V1013.92ZM91.0088 973.357H1828V92.1621H91.0088V973.357ZM50.4473 89.2852H88.1318V51.6006H50.4473V89.2852ZM1830.88 89.2852H1868.56V51.6006H1830.88V89.2852Z"/>
<path class="primary" fill-rule="evenodd" clip-rule="evenodd" d="M1818.67 498.02L1802.84 513.855L1818.66 529.677L1802.82 545.516L1818.67 561.366L1802.85 577.187L1818.68 593.023L1784.73 626.974L1750.78 593.023L1766.6 577.202L1750.77 561.366L1766.61 545.527L1750.76 529.677L1766.59 513.84L1750.77 498.02L1784.72 464.069L1818.67 498.02ZM1784.72 595.316L1768.64 579.236L1754.85 593.023L1784.73 622.905L1814.62 593.023L1800.81 579.221L1784.72 595.316ZM1784.71 563.627L1784.48 563.397L1770.67 577.202L1784.72 591.248L1798.78 577.187L1784.96 563.37L1784.71 563.627ZM1754.84 561.366L1768.64 575.168L1782.44 561.363L1768.64 547.562L1754.84 561.366ZM1787 561.336L1800.81 575.152L1814.6 561.366L1800.78 547.55L1787 561.336ZM1770.68 545.527L1784.48 559.329L1784.73 559.073L1784.96 559.302L1798.75 545.516L1784.96 531.729L1784.72 531.97L1784.48 531.725L1770.68 545.527ZM1754.83 529.677L1768.64 543.493L1782.44 529.69L1768.63 515.874L1754.83 529.677ZM1787 529.694L1800.78 543.481L1814.59 529.677L1800.8 515.89L1787 529.694ZM1770.66 513.84L1784.48 527.656L1784.72 527.416L1784.96 527.66L1798.77 513.855L1784.71 499.795L1770.66 513.84ZM1754.84 498.02L1768.63 511.806L1784.71 495.727L1800.8 511.821L1814.6 498.02L1784.72 468.138L1754.84 498.02Z"/>
<path class="primary" fill-rule="evenodd" clip-rule="evenodd" d="M167.724 497.994L151.901 513.816L167.739 529.654L151.888 545.505L167.724 561.341L151.901 577.163L167.739 593.001L133.789 626.951L99.8389 593.001L115.661 577.179L99.8232 561.341L115.674 545.489L99.8389 529.654L115.661 513.832L99.8232 497.994L133.773 464.044L167.724 497.994ZM133.773 595.291L117.695 579.213L103.907 593.001L133.789 622.883L163.671 593.001L149.867 579.197L133.773 595.291ZM133.789 563.604L133.546 563.361L119.729 577.179L133.773 591.223L147.833 577.163L134.031 563.361L133.789 563.604ZM103.892 561.341L117.695 575.145L131.512 561.327L117.708 547.523L103.892 561.341ZM136.065 561.327L149.867 575.129L163.655 561.341L149.854 547.539L136.065 561.327ZM133.773 531.944L133.53 531.701L119.742 545.489L133.546 559.293L133.789 559.051L134.031 559.293L147.819 545.505L134.016 531.701L133.773 531.944ZM136.05 529.667L149.854 543.471L163.671 529.654L149.867 515.851L136.05 529.667ZM103.907 529.654L117.708 543.455L131.496 529.667L117.695 515.866L103.907 529.654ZM119.729 513.832L133.53 527.633L133.773 527.391L134.016 527.633L147.833 513.816L133.789 499.772L119.729 513.832ZM103.892 497.994L117.695 511.798L133.789 495.704L149.867 511.782L163.655 497.994L133.773 468.112L103.892 497.994Z"/>
<path class="primary" fill-rule="evenodd" clip-rule="evenodd" d="M1788.39 50.4482C1788.39 94.1173 1823.21 129.675 1866.63 130.823H1868.79C1868.91 130.823 1869.03 130.82 1869.25 130.812C1869.43 130.806 1869.71 130.795 1870 130.795H1874.32V935.214L1869.7 934.884C1869.47 934.868 1869.22 934.866 1868.79 934.866C1824.4 934.866 1788.39 970.85 1788.39 1015.27V1019.58H130.654V1015.27C130.654 970.877 94.6701 934.866 50.25 934.866C50.1388 934.866 50.0146 934.869 49.8008 934.877C49.6123 934.884 49.3333 934.895 49.042 934.895H44.7266V130.505L49.3496 130.835C49.5732 130.851 49.822 130.853 50.25 130.853C94.6432 130.853 130.654 94.8683 130.654 50.4482V46.1328H1788.39V50.4482ZM139.181 54.7637C136.979 100.918 99.6433 137.839 53.3574 139.427V926.29C99.6702 927.878 136.979 964.827 139.181 1010.96H1779.87C1782.07 964.801 1819.4 927.877 1865.69 926.29V139.427C1819.38 137.839 1782.07 100.892 1779.86 54.7637H139.181Z"/>
</svg>
