<svg width="403" height="403" viewBox="0 0 403 403" fill="none" xmlns="http://www.w3.org/2000/svg">
<style>
    :root {
        --logoForeground: #FFFFFF;
        --logoBackground: #000000;
    }
	.fg {
		fill: var(--logoForeground);
	}
	.bg {
		fill: var(--logoBackground);
	}
</style>
<g filter="url(#filter0_df_749_5500)">
<circle cx="201.5" cy="201.5" r="111.5" class="fg"/>
</g>
<path d="M201.667 85C266.1 85.0002 318.333 137.234 318.333 201.667C318.333 266.1 266.1 318.333 201.667 318.333C137.234 318.333 85.0002 266.1 85 201.667C85 137.234 137.234 85 201.667 85ZM278.095 145C276.574 146.551 275.005 148.062 273.487 149.613C255.256 168.245 236.852 186.863 218.484 205.378C213.731 210.172 208.526 216.036 203.575 220.463C202.478 221.444 201.684 221.761 200.413 220.82L125.504 145.08L125 145.25V167.248C125 168.586 125.711 169.823 126.571 170.794C146.69 191.193 166.94 211.41 186.929 231.926C188.61 233.65 190.772 235.104 191.81 237.353L191.923 267.63L201.674 277.505L202.181 277.331L211.578 267.627C211.815 257.479 211.308 247.264 211.839 237.156C213.093 235.105 215.122 233.477 216.81 231.735C235.534 212.42 254.87 193.635 273.604 174.326C274.609 173.288 278.512 169.462 278.512 168.255V145.25L278.095 145ZM242.443 211.22C235.681 218.225 228.743 225.077 221.987 232.072C221.067 233.026 215.963 237.771 215.963 238.618V262.967C215.963 262.997 216.229 263.264 216.293 263.218L228.586 250.787C229.043 246.534 228.276 241.803 228.666 237.604C228.706 237.183 228.74 236.783 229.007 236.433L268.979 195.801C269.512 195.157 270.206 194.106 270.312 193.278V183.704L269.979 183.534L242.443 211.22ZM133.359 183.707V193.612C133.36 194.923 136.888 197.938 137.883 198.982C149.839 211.536 162.239 223.659 174.328 236.099C174.602 236.469 174.778 236.799 174.835 237.27C175.292 241.086 174.462 245.81 174.825 249.706C174.855 250.043 174.875 250.366 175.035 250.67L187.372 263.137L187.706 262.967V238.954C187.705 238.716 186.999 237.461 186.792 237.187L133.693 183.537L133.359 183.707ZM213.334 189.714C211.659 189.41 206.175 189.507 204.337 189.667C203.423 189.747 202.493 190.017 201.832 190.678C198.286 194.861 193.095 198.651 189.709 202.851C189.542 203.061 189.182 203.384 189.238 203.671L201.328 215.878L202.139 216.008L214.222 203.771L213.965 202.854C212.494 201.129 210.322 199.558 208.881 197.884C208.16 197.043 208.16 196.499 208.78 195.632C209.191 195.061 211.74 192.506 212.304 192.115C212.491 191.985 212.994 191.672 213.188 191.712L214.458 192.352C214.453 191.216 214.759 189.97 213.334 189.714ZM214.458 192.359L214.465 192.355L214.458 192.352C214.458 192.354 214.458 192.357 214.458 192.359Z" class="bg"/>
<defs>
<filter id="filter0_df_749_5500" x="0" y="0" width="403" height="403" filterUnits="userSpaceOnUse" color-interpolation-filters="sRGB">
<feFlood flood-opacity="0" result="BackgroundImageFix"/>
<feColorMatrix in="SourceAlpha" type="matrix" values="0 0 0 0 0 0 0 0 0 0 0 0 0 0 0 0 0 0 127 0" result="hardAlpha"/>
<feMorphology radius="20" operator="dilate" in="SourceAlpha" result="effect1_dropShadow_749_5500"/>
<feOffset/>
<feGaussianBlur stdDeviation="35"/>
<feComposite in2="hardAlpha" operator="out"/>
<feColorMatrix type="matrix" values="0 0 0 0 1 0 0 0 0 1 0 0 0 0 1 0 0 0 0.25 0"/>
<feBlend mode="normal" in2="BackgroundImageFix" result="effect1_dropShadow_749_5500"/>
<feBlend mode="normal" in="SourceGraphic" in2="effect1_dropShadow_749_5500" result="shape"/>
<feGaussianBlur stdDeviation="4" result="effect2_foregroundBlur_749_5500"/>
</filter>
</defs>
</svg>
