<svg width="1920" height="1080" viewBox="0 0 1920 1080" fill="none" xmlns="http://www.w3.org/2000/svg">
<style>
    :root {
        --tint: #FFFFFF;
        --tint-dark: #000000;
    }
	.tinted {
		fill: var(--tint);
	}
	.element {
	    fill: var(--tint-dark);
	}
</style>
<g clip-path="url(#clip0_658_1322)">
<g clip-path="url(#clip1_658_1322)">
<path fill-rule="evenodd" clip-rule="evenodd" d="M1920 1080H0V0H1920V1080ZM126 195V860H1800V195H126Z" class="tinted"/>
</g>
<rect x="147.577" y="93" width="8.09148" height="81" class="element"/>
<rect x="136.789" y="93" width="2.69716" height="81" class="element"/>
<rect x="408.303" y="93" width="2.69716" height="81" class="element"/>
<rect x="126" y="93" width="2.69716" height="81" class="element"/>
<rect x="397.514" y="93" width="2.69716" height="81" class="element"/>
<rect x="365.148" y="93" width="8.09148" height="81" class="element"/>
<rect x="179.943" y="93" width="16.183" height="81" class="element"/>
<rect x="316.6" y="93" width="16.183" height="81" class="element"/>
<rect x="163.76" y="93" width="8.09148" height="81" class="element"/>
<rect x="381.331" y="93" width="8.09148" height="81" class="element"/>
<rect x="204.218" y="93" width="16.183" height="81" class="element"/>
<rect x="340.874" y="93" width="16.183" height="81" class="element"/>
<rect x="228.492" y="93" width="35.9621" height="81" class="element"/>
<rect x="272.546" y="93" width="35.9621" height="81" class="element"/>
</g>
<defs>
<clipPath id="clip0_658_1322">
<rect width="1920" height="1080"/>
</clipPath>
<clipPath id="clip1_658_1322">
<rect width="1920" height="1080"/>
</clipPath>
</defs>
</svg>
