<svg width="1920" height="1080" viewBox="0 0 1920 1080" fill="none" xmlns="http://www.w3.org/2000/svg">
<style>
    :root {
        --tint: #FFFFFF;
        --tint-dark: #000000;
    }
	.tinted {
		fill: var(--tint);
	}
	.element {
	    fill: var(--tint-dark);
	}
</style>
<g clip-path="url(#clip0_461_618)">
<path fill-rule="evenodd" clip-rule="evenodd" d="M1920 1080H0V0H1920V1080ZM123 123V957H1797V123H123Z" class="tinted"/>
<path d="M1904.29 400.605C1904.29 396.912 1903.96 392.829 1904.5 389.188C1904.6 388.495 1904.78 387.963 1905.38 387.55C1906.04 387.096 1907.02 386.887 1907.8 387.061C1908.42 387.195 1908.76 387.476 1909.09 387.996C1909.16 388.026 1909.23 388.043 1909.29 388.084C1910.37 388.827 1909.91 393.197 1909.88 394.383C1909.75 404.246 1909.75 414.11 1909.86 423.973L1909.89 450.356C1909.94 466.793 1909.67 483.247 1909.99 499.681C1908.05 499.798 1906.15 500.122 1904.26 500.545L1904.29 400.605Z" class="element"/>
<path d="M1904.12 712.152C1903.89 707.197 1904.07 702.158 1904.07 697.196L1904.17 668.356L1904.23 602.071C1905.89 602.536 1907.56 602.983 1909.23 603.411L1909.37 603.695L1909.42 673.863C1909.32 686.515 1909.34 699.166 1909.47 711.817L1908.39 713.503C1907.85 713.718 1907.18 714.058 1906.59 713.992C1905.43 713.859 1904.78 713.019 1904.12 712.152Z" class="element"/>
<path d="M1863.54 706.041C1863.5 703.479 1865.34 698.897 1866.07 696.306L1871.2 678.159L1882.02 639.625C1883.32 634.866 1884.48 630.041 1885.83 625.303C1887.41 619.743 1889.29 614.205 1891.03 608.688C1892.15 605.155 1893.13 601.61 1894.37 598.118C1895.95 598.814 1897.54 599.492 1899.14 600.155C1895.08 612.945 1891.54 625.81 1887.88 638.709L1872.83 691.483C1872.45 692.824 1868.89 706.03 1868.7 706.261C1868.66 706.314 1868.61 706.365 1868.57 706.417C1868.1 706.975 1867.67 707.495 1867 707.822C1866.44 708.096 1865.84 708.179 1865.25 707.951C1864.33 707.598 1863.92 706.889 1863.55 706.039L1863.54 706.041Z" class="element"/>
<path d="M1863.48 396.258C1863.54 395.449 1863.98 394.761 1864.48 394.15C1865.29 393.795 1865.92 393.588 1866.79 393.863C1867.51 393.987 1868.17 394.452 1868.6 395.027C1869.87 397.619 1870.18 401.106 1870.94 403.923C1872.79 410.843 1874.78 417.753 1876.74 424.643L1892.4 479.655C1894.57 487.311 1897.31 494.612 1899.05 502.406C1897.58 503.266 1895.76 503.864 1894.18 504.542C1892.4 499.71 1891.3 494.794 1889.86 489.865L1880.04 455.343C1879.47 453.326 1878.67 451.377 1878.1 449.358C1875.55 440.382 1873.23 431.326 1870.74 422.334C1869.1 416.415 1867.26 410.557 1865.6 404.65C1864.82 401.887 1864.2 399.042 1863.48 396.258Z" class="element"/>
<path d="M1823.77 693.353C1823.79 692.812 1823.87 692.324 1824.1 691.831C1825.18 689.524 1826.71 687.329 1828.01 685.132C1829.23 683.058 1830.29 680.894 1831.51 678.819C1832.78 676.643 1834.27 674.593 1835.59 672.445L1870.57 614.952C1874.28 608.986 1877.63 602.788 1881.47 596.904C1882.61 595.161 1883.67 593.293 1885.02 591.71C1886.27 592.508 1887.41 593.52 1888.63 594.364L1888.86 594.468C1888.87 594.929 1888.63 595.202 1888.4 595.578L1842.24 671.631C1838.98 676.909 1835.83 682.269 1832.62 687.578C1831.25 689.848 1829.95 692.607 1828.2 694.569C1827.5 695.355 1826.44 695.329 1825.47 695.398C1824.8 694.751 1824.21 694.181 1823.77 693.354L1823.77 693.353Z" class="element"/>
<path d="M1824.26 410.842C1824.16 410.344 1824.07 409.82 1824.14 409.309C1824.24 408.61 1824.6 407.854 1825.17 407.421C1825.74 406.987 1826.68 406.785 1827.38 406.947C1827.76 407.038 1828.11 407.289 1828.39 407.559C1829.98 409.092 1831.97 413.287 1833.21 415.395C1835.89 419.981 1838.6 424.548 1841.35 429.095L1876.78 487.6C1880.76 494.317 1885 500.867 1888.76 507.717C1888.76 507.754 1888.77 507.793 1888.76 507.83C1888.61 508.428 1885.29 510.771 1884.57 511.235C1878.31 500.424 1871.91 489.707 1865.35 479.08L1840.23 437.554C1839.26 435.964 1838.44 434.285 1837.49 432.686L1828.58 417.968C1827.18 415.668 1825.89 412.974 1824.26 410.842Z" class="element"/>
<path d="M1791.06 435.158C1791.01 434.751 1790.92 434.275 1790.98 433.865C1791.1 433.081 1791.85 432.092 1792.51 431.68C1793 431.377 1793.62 431.282 1794.17 431.433C1794.61 431.556 1795 431.807 1795.34 432.098C1798.25 434.555 1800.93 437.513 1803.59 440.232C1807.1 443.8 1810.65 447.318 1814.26 450.787C1819.77 456.133 1825.09 461.703 1830.5 467.157C1834.36 471.047 1838.38 474.803 1842.3 478.645C1846.3 482.582 1850.22 486.622 1854.24 490.539L1872.98 508.47C1874.87 510.289 1879.17 513.809 1880.45 515.914C1879.52 517.23 1878.08 518.501 1877 519.728C1870.68 513.875 1864.53 507.813 1858.36 501.808L1823.98 467.963L1804.12 448.254C1799.73 443.925 1795.23 439.69 1791.06 435.158Z" class="element"/>
<path d="M1791.45 667.362C1791.51 666.178 1792.38 665.406 1793.13 664.58C1795.19 662.306 1797.5 660.278 1799.69 658.131L1811.55 646.443C1812.92 645.103 1814.11 643.586 1815.47 642.235L1837.69 620.544L1865.74 593.06C1869.47 589.448 1873.1 585.764 1876.95 582.278C1877.92 583.084 1878.58 584.176 1879.29 585.207L1880.36 586.574C1877.85 588.283 1875.57 590.95 1873.38 593.073L1862.58 603.452C1848.42 617.169 1834.35 630.98 1820.37 644.886C1814.3 651.049 1808.17 657.151 1801.98 663.193C1800.03 665.093 1798.23 667.366 1796.12 669.066C1795.41 669.642 1794.49 670.14 1793.54 669.997C1792.61 669.857 1792.03 669.139 1791.47 668.453L1791.45 667.908C1791.44 667.726 1791.44 667.543 1791.45 667.362Z" class="element"/>
<path d="M1765.95 468.334C1766.03 468.064 1766.11 467.824 1766.24 467.573C1766.57 466.907 1767 466.299 1767.75 466.095C1768.04 466.018 1768.35 466.001 1768.65 466.014C1769.41 466.048 1770.15 466.332 1770.83 466.666C1773.88 468.163 1776.76 470.104 1779.69 471.808L1796.5 481.546C1816.42 493.255 1836.8 504.161 1856.83 515.662C1859.44 517.155 1862.14 518.453 1864.78 519.883C1866.09 520.594 1867.33 521.418 1868.64 522.134C1870.36 523.073 1872.15 523.886 1873.79 524.95C1873.75 525.468 1873.45 525.798 1873.17 526.225C1872.45 527.279 1871.97 528.49 1871.23 529.555C1867.65 528.279 1864.24 525.888 1860.93 523.992C1858.71 522.715 1856.4 521.587 1854.16 520.335C1851.29 518.738 1848.5 517.024 1845.63 515.44C1819.98 501.371 1794.53 486.95 1769.28 472.178C1767.56 471.152 1766.46 470.347 1765.95 468.334Z" class="element"/>
<path d="M1766.12 635.029C1766.05 634.059 1766.26 633.32 1766.56 632.415C1768.97 630.849 1771.53 629.533 1774 628.062L1791.91 617.368C1814.85 603.615 1838.03 590.276 1861.44 577.349C1863.27 576.318 1869.84 572.023 1871.29 571.912C1871.78 572.804 1871.96 573.796 1872.48 574.689C1872.5 574.738 1872.53 574.788 1872.56 574.837L1873.58 576.774C1868.7 579.037 1863.92 581.989 1859.25 584.678L1843.9 593.309L1793.06 622.734C1790.65 624.159 1788.35 625.77 1785.93 627.169C1784.02 628.272 1782.02 629.188 1780.13 630.339C1777.1 632.191 1774.12 634.31 1770.95 635.921C1770.06 636.371 1768.97 636.737 1767.97 636.561C1767.04 636.398 1766.6 635.751 1766.12 635.029Z" class="element"/>
<path d="M1749.01 595.083C1749.06 594.385 1749.35 593.069 1749.95 592.658C1751.38 591.675 1764.08 588.58 1766.99 587.755C1771.94 586.354 1776.83 584.717 1781.78 583.303C1786.05 582.084 1790.37 581.134 1794.64 579.946C1802.09 577.872 1809.48 575.516 1816.92 573.409C1821.15 572.214 1866.87 559.631 1867.73 559.842C1868.17 560.566 1868.27 561.477 1868.43 562.299L1868.98 565.128C1866.79 565.531 1864.7 566.288 1862.54 566.826C1856.28 568.386 1850.08 570.06 1843.84 571.709C1822.34 577.475 1800.89 583.467 1779.51 589.684L1761.64 594.722C1758.21 595.695 1754.7 596.919 1751.19 597.531C1750.81 597.34 1750.42 597.144 1750.06 596.916C1749.29 596.431 1749.18 595.935 1749.01 595.083Z" class="element"/>
<path d="M1749.38 507.385C1749.43 507.082 1749.47 506.776 1749.55 506.479C1749.7 505.836 1750.16 505.193 1750.74 504.873C1751.62 504.391 1752.73 504.571 1753.65 504.824L1827.26 525.852C1833.55 527.605 1839.88 529.165 1846.18 530.842C1848.15 531.365 1850.06 532.046 1852.03 532.555C1857.58 533.99 1863.17 535.214 1868.63 536.964L1868.29 538.934C1868.1 540.016 1867.89 541.096 1867.67 542.175C1864.97 541.707 1862.29 540.926 1859.64 540.218C1854.76 538.901 1849.88 537.535 1845.03 536.121L1812.32 527.166C1795.36 522.515 1778.3 518.043 1761.51 512.767C1758.21 511.728 1753.98 511.089 1750.96 509.57C1749.99 509.083 1749.71 508.355 1749.38 507.385Z" class="element"/>
<path d="M1743.01 551.724C1742.98 550.779 1743 549.914 1743.72 549.216C1744.13 548.818 1744.65 548.485 1745.22 548.42C1748.88 548.009 1753.94 548.321 1757.74 548.315L1867.2 548.373L1867.23 550.757L1867.26 553.969C1856.95 553.587 1846.55 553.835 1836.24 553.825L1757.69 553.819C1753.77 553.814 1749.65 554.054 1745.76 553.666C1744.39 553.529 1743.84 552.923 1743.01 551.894C1743.01 551.838 1743.01 551.781 1743.01 551.724Z" class="element"/>
<path d="M15.7141 700.395C15.7101 704.088 16.0351 708.171 15.5024 711.812C15.4013 712.505 15.2162 713.037 14.6175 713.45C13.9555 713.904 12.9848 714.113 12.197 713.939C11.583 713.805 11.2385 713.524 10.9099 713.004C10.8438 712.974 10.772 712.957 10.7123 712.916C9.63315 712.173 10.0936 707.803 10.1195 706.617C10.2471 696.754 10.2523 686.89 10.135 677.027L10.1096 650.644C10.0573 634.207 10.3286 617.753 10.0137 601.319C11.9525 601.202 13.8462 600.878 15.7396 600.455L15.7141 700.395Z" class="element"/>
<path d="M15.8835 388.848C16.1145 393.803 15.9302 398.842 15.9273 403.804L15.8341 432.643L15.7734 498.929C14.1093 498.464 12.4398 498.017 10.7659 497.589L10.6318 497.305L10.5768 427.137C10.6751 414.485 10.6595 401.834 10.5302 389.183L11.6113 387.497C12.1473 387.282 12.8206 386.942 13.4066 387.008C14.5725 387.141 15.2187 387.981 15.8835 388.848Z" class="element"/>
<path d="M56.4559 394.959C56.503 397.521 54.6577 402.103 53.9268 404.694L48.7993 422.841L37.9756 461.375C36.6844 466.134 35.5229 470.959 34.1719 475.697C32.5866 481.257 30.7071 486.795 28.9654 492.312C27.8507 495.845 26.8748 499.39 25.6261 502.882C24.0455 502.186 22.4572 501.508 20.8628 500.845C24.9179 488.055 28.4589 475.19 32.1198 462.291L47.1692 409.517C47.5524 408.176 51.1112 394.97 51.2974 394.739C51.3404 394.686 51.3873 394.635 51.4315 394.583C51.898 394.025 52.335 393.505 53.0037 393.178C53.564 392.904 54.1569 392.821 54.7482 393.049C55.667 393.402 56.0817 394.111 56.4545 394.961L56.4559 394.959Z" class="element"/>
<path d="M56.5166 704.742C56.4631 705.551 56.0179 706.239 55.5188 706.85C54.7085 707.205 54.0777 707.412 53.2112 707.137C52.4942 707.013 51.8331 706.548 51.3976 705.973C50.1255 703.381 49.8199 699.894 49.0632 697.077C47.206 690.157 45.2243 683.247 43.2597 676.357L27.5978 621.345C25.4258 613.689 22.692 606.388 20.9475 598.594C22.4213 597.734 24.2395 597.136 25.8167 596.458C27.6032 601.29 28.6951 606.206 30.1397 611.135L39.9627 645.657C40.5276 647.674 41.3265 649.623 41.9005 651.642C44.4513 660.618 46.7672 669.674 49.2594 678.666C50.8993 684.585 52.7366 690.443 54.4024 696.35C55.1815 699.113 55.7995 701.958 56.5166 704.742Z" class="element"/>
<path d="M96.2337 407.647C96.2125 408.188 96.1282 408.676 95.8978 409.169C94.8181 411.476 93.2863 413.671 91.994 415.868C90.7736 417.942 89.7088 420.106 88.4924 422.181C87.2169 424.357 85.7326 426.407 84.4093 428.555L49.4316 486.048C45.719 492.014 42.3667 498.212 38.526 504.096C37.3885 505.839 36.3281 507.707 34.9764 509.29C33.7274 508.492 32.5921 507.48 31.3661 506.636L31.1432 506.532C31.1305 506.071 31.369 505.797 31.5976 505.422L77.7632 429.369C81.0231 424.091 84.165 418.731 87.376 413.422C88.7493 411.152 90.0536 408.393 91.802 406.431C92.503 405.645 93.5609 405.671 94.5302 405.602C95.1967 406.249 95.7853 406.819 96.2323 407.646L96.2337 407.647Z" class="element"/>
<path d="M95.7355 690.158C95.8424 690.656 95.9256 691.18 95.8555 691.691C95.7595 692.39 95.3971 693.146 94.8294 693.579C94.256 694.013 93.3198 694.215 92.6206 694.053C92.2379 693.962 91.8908 693.711 91.6115 693.441C90.0199 691.908 88.0299 687.713 86.7917 685.605C84.1095 681.019 81.395 676.452 78.6467 671.905L43.2173 613.4C39.2398 606.683 34.9957 600.133 31.2377 593.283C31.2394 593.246 31.2342 593.207 31.2434 593.17C31.3898 592.572 34.7072 590.229 35.4323 589.765C41.6853 600.576 48.0904 611.293 54.648 621.92L79.773 663.446C80.7401 665.036 81.5567 666.715 82.5054 668.314L91.421 683.032C92.8172 685.332 94.1146 688.026 95.7355 690.158Z" class="element"/>
<path d="M128.938 665.842C128.99 666.249 129.078 666.725 129.017 667.135C128.9 667.919 128.147 668.908 127.487 669.32C127.004 669.623 126.378 669.718 125.827 669.567C125.388 669.444 125.002 669.193 124.657 668.902C121.752 666.445 119.074 663.487 116.406 660.768C112.902 657.2 109.348 653.682 105.745 650.213C100.227 644.867 94.9133 639.297 89.5015 633.843C85.6407 629.953 81.6159 626.197 77.7039 622.355C73.6955 618.418 69.7822 614.378 65.7554 610.461L47.021 592.53C45.1264 590.711 40.8261 587.191 39.5492 585.086C40.4841 583.77 41.9165 582.499 43.0014 581.272C49.3164 587.125 55.4651 593.187 61.637 599.192L96.0178 633.037L115.883 652.746C120.266 657.075 124.765 661.31 128.938 665.842Z" class="element"/>
<path d="M128.548 433.638C128.489 434.822 127.621 435.594 126.872 436.42C124.811 438.694 122.5 440.722 120.31 442.869L108.449 454.557C107.08 455.897 105.891 457.414 104.531 458.765L82.3106 480.456L54.2641 507.94C50.5349 511.552 46.904 515.236 43.0536 518.722C42.0837 517.916 41.4162 516.824 40.7065 515.793L39.6395 514.426C42.1541 512.717 44.4318 510.05 46.6159 507.927L57.4156 497.548C71.5789 483.831 85.6494 470.02 99.6294 456.114C105.7 449.951 111.831 443.849 118.021 437.807C119.974 435.907 121.775 433.634 123.879 431.934C124.592 431.358 125.514 430.86 126.459 431.003C127.392 431.143 127.97 431.861 128.527 432.547L128.552 433.092C128.557 433.274 128.557 433.457 128.548 433.638Z" class="element"/>
<path d="M154.05 632.666C153.974 632.936 153.886 633.176 153.761 633.427C153.429 634.093 153.002 634.701 152.246 634.905C151.959 634.982 151.648 634.999 151.353 634.986C150.59 634.952 149.847 634.668 149.167 634.334C146.121 632.837 143.244 630.896 140.311 629.192L123.501 619.454C103.575 607.745 83.2039 596.839 63.1655 585.338C60.5639 583.845 57.8587 582.547 55.2238 581.117C53.9131 580.406 52.6651 579.582 51.3567 578.866C49.6403 577.927 47.8518 577.114 46.2066 576.05C46.2469 575.532 46.5496 575.202 46.8276 574.775C47.5499 573.721 48.03 572.51 48.7654 571.445C52.3545 572.721 55.7605 575.112 59.0669 577.008C61.2926 578.285 63.6036 579.413 65.8443 580.665C68.7053 582.262 71.4994 583.976 74.3731 585.56C100.019 599.629 125.468 614.05 150.719 628.822C152.439 629.848 153.541 630.653 154.05 632.666Z" class="element"/>
<path d="M153.885 465.971C153.95 466.941 153.743 467.68 153.44 468.585C151.029 470.151 148.468 471.467 146 472.938L128.085 483.632C105.146 497.385 81.9708 510.724 58.5617 523.651C56.7304 524.682 50.1563 528.977 48.7118 529.088C48.2234 528.196 48.0359 527.204 47.5234 526.311C47.4953 526.262 47.4666 526.212 47.4373 526.163L46.4169 524.226C51.3038 521.963 56.0821 519.011 60.7535 516.322L76.1006 507.691L126.944 478.266C129.352 476.841 131.654 475.23 134.074 473.831C135.981 472.728 137.981 471.812 139.866 470.661C142.901 468.809 145.88 466.69 149.052 465.079C149.941 464.629 151.031 464.263 152.032 464.439C152.956 464.602 153.397 465.249 153.885 465.971Z" class="element"/>
<path d="M170.994 505.917C170.937 506.615 170.651 507.931 170.054 508.342C168.623 509.325 155.925 512.42 153.01 513.245C148.063 514.646 143.168 516.283 138.217 517.697C133.952 518.916 129.63 519.866 125.361 521.054C117.911 523.128 110.519 525.484 103.076 527.591C98.854 528.786 53.1298 541.369 52.2684 541.158C51.8291 540.434 51.7333 539.523 51.5655 538.701L51.0179 535.872C53.207 535.469 55.3047 534.712 57.4622 534.174C63.7193 532.614 69.9247 530.94 76.1571 529.291C97.6647 523.525 119.11 517.533 140.493 511.316L158.363 506.278C161.794 505.305 165.299 504.081 168.809 503.469C169.192 503.66 169.579 503.856 169.942 504.084C170.714 504.569 170.816 505.065 170.994 505.917Z" class="element"/>
<path d="M170.615 593.615C170.572 593.918 170.528 594.224 170.454 594.521C170.296 595.164 169.84 595.807 169.258 596.127C168.381 596.609 167.271 596.429 166.35 596.176L92.7406 575.148C86.4538 573.395 80.1237 571.835 73.8185 570.158C71.8547 569.635 69.9374 568.954 67.9684 568.445C62.4229 567.01 56.8287 565.786 51.3665 564.036L51.7053 562.066C51.9041 560.984 52.1111 559.904 52.3277 558.825C55.0313 559.293 57.7067 560.074 60.3569 560.782C65.2424 562.099 70.1153 563.465 74.9744 564.879L107.684 573.834C124.645 578.485 141.705 582.957 158.487 588.233C161.791 589.272 166.017 589.911 169.042 591.43C170.012 591.917 170.291 592.645 170.615 593.615Z" class="element"/>
<path d="M176.993 549.276C177.021 550.221 176.997 551.086 176.28 551.784C175.871 552.182 175.35 552.515 174.776 552.58C171.116 552.991 166.063 552.679 162.263 552.685L52.7977 552.627L52.7723 550.243L52.7426 547.031C63.053 547.413 73.4465 547.165 83.7643 547.175L162.314 547.181C166.227 547.186 170.346 546.946 174.237 547.334C175.612 547.471 176.163 548.077 176.988 549.106C176.99 549.162 176.992 549.219 176.993 549.276Z" class="element"/>
</g>
<defs>
<clipPath id="clip0_461_618">
<rect width="1920" height="1080"/>
</clipPath>
</defs>
</svg>
