<svg width="1920" height="1080" viewBox="0 0 1920 1080" fill="none" xmlns="http://www.w3.org/2000/svg">
<style>
    :root {
        --tint: #FFFFFF;
        --tint-dark: #000000;
    }
	.tinted {
		fill: var(--tint);
	}
	.element {
	    fill: var(--tint-dark);
	}
</style>
<g clip-path="url(#clip0_658_1338)">
<g clip-path="url(#clip1_658_1338)">
<path fill-rule="evenodd" clip-rule="evenodd" d="M1920 1080H0V0H1920V1080ZM123 123V957H1797V123H123Z" class="tinted"/>
</g>
<path fill-rule="evenodd" clip-rule="evenodd" d="M2025.99 522.235C2025.99 522.507 2025.99 522.775 2025.98 523.047C2025.98 523.126 2025.99 523.205 2025.98 523.281C2025.66 582.687 2015.84 638.462 1998.22 680.637C1994 690.756 1989.43 699.822 1984.58 707.784C1982.66 710.928 1980.7 713.903 1978.7 716.699C1964.71 736.241 1948.73 747.166 1931.94 748.308C1930.96 748.375 1929.98 748.408 1929 748.408C1928.02 748.408 1927.04 748.375 1926.06 748.308C1909.27 747.166 1893.29 736.24 1879.3 716.699C1877.3 713.903 1875.34 710.931 1873.42 707.784C1868.57 699.822 1864 690.753 1859.78 680.637C1842.16 638.462 1832.34 582.687 1832.02 523.281C1832.01 523.205 1832.01 523.128 1832.01 523.047C1832.01 522.775 1832.01 522.507 1832.01 522.235C1832.01 521.573 1832 520.91 1832 520.246C1832 519.582 1832 518.919 1832.01 518.257C1832.01 517.985 1832.01 517.717 1832.01 517.445C1832.01 517.366 1832.01 517.287 1832.02 517.211C1832.34 457.809 1842.16 402.03 1859.78 359.859C1864 349.738 1868.57 340.667 1873.42 332.71C1875.34 329.566 1877.3 326.591 1879.3 323.795C1893.29 304.254 1909.27 293.328 1926.06 292.186C1927.04 292.119 1928.02 292.086 1929 292.086C1929.98 292.086 1930.96 292.119 1931.94 292.186C1948.73 293.331 1964.71 304.253 1978.7 323.795C1980.7 326.591 1982.66 329.563 1984.58 332.71C1989.43 340.667 1994 349.738 1998.22 359.859C2015.84 402.03 2025.66 457.809 2025.98 517.211C2025.99 517.287 2025.98 517.364 2025.98 517.445C2025.99 517.717 2025.99 517.985 2025.99 518.257C2025.99 518.919 2026 519.582 2026 520.246C2026 520.91 2026 521.573 2025.99 522.235ZM1873.42 523.187L1838.03 523.187C1839.28 535.57 1848.37 547.216 1863.96 556.253C1866.95 557.986 1870.11 559.584 1873.42 561.04L1873.42 523.187ZM1873.42 479.454C1870.11 480.912 1866.95 482.513 1863.96 484.243C1848.37 493.277 1839.28 504.924 1838.03 517.307L1873.42 517.307L1873.42 479.454ZM1873.42 443.903C1857.59 456.826 1845.88 475.13 1840.75 496.193C1845.61 489.895 1852.43 484.129 1861.02 479.152C1864.9 476.906 1869.04 474.869 1873.42 473.065L1873.42 443.903ZM1873.42 567.427C1869.04 565.623 1864.9 563.587 1861.02 561.341C1852.43 556.366 1845.61 550.596 1840.75 544.297C1845.88 565.36 1857.59 583.664 1873.42 596.587L1873.42 567.427ZM1873.42 394.515C1870.5 398.455 1867.7 402.726 1865.03 407.316C1853.74 426.747 1845.72 450.335 1841.45 476.096C1846.12 465.793 1852.47 456.297 1860.36 447.979C1864.43 443.676 1868.8 439.806 1873.42 436.387L1873.42 394.515ZM1873.42 604.107C1868.8 600.69 1864.43 596.815 1860.36 592.515C1852.47 584.197 1846.12 574.697 1841.45 564.396C1845.72 590.159 1853.74 613.743 1865.03 633.174C1867.7 637.765 1870.5 642.036 1873.42 645.977L1873.42 604.107ZM1873.42 344.622C1870.56 350.031 1867.82 355.868 1865.2 362.124L1865.2 362.126C1855.71 384.862 1848.51 411.656 1843.9 440.89C1848.17 427.661 1853.55 415.372 1859.95 404.363C1864.12 397.188 1868.62 390.735 1873.42 385.041L1873.42 344.622ZM1873.42 655.453C1868.62 649.758 1864.12 643.304 1859.95 636.131C1853.55 625.122 1848.17 612.835 1843.9 599.604C1848.51 628.838 1855.71 655.632 1865.2 678.368C1867.81 684.624 1870.56 690.464 1873.42 695.874L1873.42 655.453ZM1926.06 361.473C1909.26 362.402 1893.18 371.328 1879.3 387.201L1879.3 432.362C1893.34 423.492 1909.34 418.53 1926.06 418.011L1926.06 361.473ZM1926.06 423.893C1908.85 424.472 1892.83 430.122 1879.3 439.477L1879.3 470.819C1893.34 465.872 1909.34 463.103 1926.06 462.814L1926.06 423.893ZM1926.06 468.694C1909.21 468.995 1893.17 471.898 1879.3 477.066L1879.3 517.307L1926.06 517.307L1926.06 468.694ZM1926.06 577.684C1909.34 577.392 1893.34 574.62 1879.3 569.674L1879.3 601.015C1892.83 610.37 1908.85 616.023 1926.06 616.599L1926.06 577.684ZM1926.06 622.483C1909.34 621.964 1893.34 617.003 1879.3 608.138L1879.3 653.293C1893.18 669.166 1909.26 678.092 1926.06 679.022L1926.06 622.483ZM1926.06 523.187L1879.3 523.187L1879.3 563.428C1893.17 568.596 1909.21 571.494 1926.06 571.8L1926.06 523.187ZM1926.06 298.084C1915.2 298.939 1904.59 304.548 1894.48 314.791C1889.16 320.187 1884.08 326.737 1879.3 334.386L1879.3 378.591C1882.94 374.916 1886.73 371.64 1890.66 368.785C1901.88 360.627 1913.77 356.19 1926.06 355.581L1926.06 298.084ZM1926.06 684.913C1913.77 684.304 1901.88 679.869 1890.66 671.709C1886.73 668.854 1882.94 665.578 1879.3 661.903L1879.3 706.108C1884.08 713.759 1889.16 720.307 1894.48 725.705C1904.59 735.944 1915.2 741.555 1926.06 742.41L1926.06 684.913ZM1978.7 334.386C1973.92 326.737 1968.85 320.187 1963.52 314.791C1953.41 304.55 1942.8 298.939 1931.94 298.084L1931.94 355.581C1944.23 356.19 1956.12 360.624 1967.34 368.785C1971.27 371.64 1975.06 374.916 1978.7 378.591L1978.7 334.386ZM1978.7 387.201C1964.82 371.328 1948.74 362.402 1931.94 361.473L1931.94 418.011C1948.66 418.53 1964.65 423.494 1978.7 432.362L1978.7 387.201ZM1978.7 439.479C1965.17 430.124 1949.15 424.471 1931.94 423.895L1931.94 462.814C1948.65 463.103 1964.66 465.872 1978.7 470.819L1978.7 439.479ZM1978.7 477.07C1964.83 471.902 1948.79 468.997 1931.94 468.696L1931.94 517.307L1978.7 517.307L1978.7 477.07ZM1978.7 523.187L1931.94 523.187L1931.94 571.802C1948.79 571.496 1964.83 568.598 1978.7 563.43L1978.7 523.187ZM1978.7 569.672C1964.66 574.62 1948.65 577.388 1931.94 577.68L1931.94 616.597C1949.15 616.019 1965.17 610.368 1978.7 601.013L1978.7 569.672ZM1978.7 608.136C1964.65 617.001 1948.66 621.96 1931.94 622.479L1931.94 679.018C1948.74 678.088 1964.82 669.164 1978.7 653.291L1978.7 608.136ZM1978.7 661.903C1975.06 665.578 1971.27 668.854 1967.34 671.709C1956.12 679.867 1944.23 684.304 1931.94 684.913L1931.94 742.41C1942.8 741.552 1953.41 735.944 1963.52 725.705C1968.84 720.307 1973.92 713.759 1978.7 706.108L1978.7 661.903ZM2014.1 440.888C2009.49 411.655 2002.29 384.86 1992.8 362.124L1992.8 362.122C1990.18 355.868 1987.44 350.03 1984.58 344.62L1984.58 385.039C1989.38 390.734 1993.88 397.188 1998.05 404.361C2004.45 415.37 2009.83 427.659 2014.1 440.888ZM2016.55 476.095C2012.28 450.335 2004.26 426.745 1992.97 407.314C1990.3 402.724 1987.5 398.454 1984.58 394.513L1984.58 436.387C1989.2 439.804 1993.57 443.676 1997.64 447.979C2005.53 456.297 2011.88 465.793 2016.55 476.095ZM2019.96 517.307C2018.72 504.925 2009.63 493.277 1994.04 484.243C1991.05 482.513 1987.89 480.914 1984.58 479.454L1984.58 517.307L2019.96 517.307ZM1984.58 523.187L1984.58 561.04C1987.89 559.584 1991.05 557.983 1994.04 556.253C2009.63 547.216 2018.72 535.569 2019.96 523.187L1984.58 523.187ZM2016.55 564.396C2011.88 574.697 2005.53 584.197 1997.64 592.515C1993.57 596.813 1989.2 600.69 1984.58 604.107L1984.58 645.977C1987.5 642.036 1990.3 637.765 1992.97 633.174C2004.26 613.743 2012.28 590.159 2016.55 564.396ZM2017.25 496.195C2012.12 475.132 2000.41 456.828 1984.58 443.905L1984.58 473.065C1988.96 474.869 1993.11 476.905 1996.99 479.152C2005.58 484.126 2012.39 489.897 2017.25 496.195ZM2017.25 544.299C2012.39 550.597 2005.58 556.363 1996.99 561.341C1993.11 563.587 1988.96 565.625 1984.58 567.429L1984.58 596.589C2000.41 583.666 2012.12 565.362 2017.25 544.299ZM2014.11 599.604C2009.83 612.835 2004.45 625.122 1998.05 636.131C1993.88 643.304 1989.38 649.758 1984.58 655.453L1984.58 695.874C1987.44 690.464 1990.19 684.624 1992.8 678.368C2002.29 655.632 2009.49 628.838 2014.11 599.604Z" class="element"/>
<path fill-rule="evenodd" clip-rule="evenodd" d="M91.9921 522.235C91.9921 522.507 91.989 522.775 91.9843 523.047C91.9843 523.126 91.9851 523.205 91.9803 523.281C91.66 582.687 81.8365 638.462 64.2233 680.637C59.9963 690.756 55.4296 699.822 50.5789 707.784C48.6602 710.928 46.7013 713.903 44.699 716.699C30.7107 736.241 14.7279 747.166 -2.061 748.308C-3.04045 748.375 -4.02249 748.408 -5.00194 748.408C-5.98159 748.408 -6.96367 748.375 -7.94092 748.308C-24.7297 747.166 -40.7107 736.24 -54.699 716.699C-56.7014 713.903 -58.662 710.931 -60.5808 707.784C-65.4338 699.822 -69.9963 690.753 -74.2233 680.637C-91.8364 638.462 -101.66 582.687 -101.98 523.281C-101.985 523.205 -101.986 523.128 -101.986 523.047C-101.989 522.775 -101.992 522.507 -101.992 522.235C-101.994 521.573 -102 520.91 -102 520.246C-102 519.582 -101.997 518.919 -101.992 518.257C-101.992 517.985 -101.991 517.717 -101.986 517.445C-101.986 517.366 -101.985 517.287 -101.98 517.211C-101.66 457.809 -91.8365 402.03 -74.2233 359.859C-69.9964 349.738 -65.4289 340.667 -60.5808 332.71C-58.662 329.566 -56.7014 326.591 -54.6989 323.795C-40.7106 304.254 -24.7297 293.328 -7.9409 292.186C-6.96365 292.119 -5.98395 292.086 -5.00192 292.086C-4.02009 292.086 -3.03804 292.119 -2.06098 292.186C14.7279 293.331 30.7107 304.253 44.699 323.795C46.7014 326.591 48.6602 329.563 50.5789 332.71C55.4272 340.667 59.9963 349.738 64.2233 359.859C81.8365 402.03 91.6601 457.809 91.9803 517.211C91.9851 517.287 91.9843 517.364 91.9843 517.445C91.9866 517.717 91.9921 517.985 91.9921 518.257C91.9945 518.919 92 519.582 92 520.246C92 520.91 91.9969 521.573 91.9921 522.235ZM-60.5808 523.187L-95.9705 523.187C-94.7232 535.57 -85.6288 547.216 -70.0371 556.253C-67.0482 557.986 -63.8923 559.584 -60.5808 561.04L-60.5808 523.187ZM-60.5769 479.454C-63.8887 480.912 -67.0483 482.513 -70.0351 484.243C-85.6268 493.277 -94.7236 504.924 -95.9685 517.307L-60.5769 517.307L-60.5769 479.454ZM-60.5808 443.903C-76.4062 456.826 -88.1177 475.13 -93.2479 496.193C-88.3877 489.895 -81.5741 484.129 -72.9839 479.152C-69.1036 476.906 -64.9581 474.869 -60.5808 473.065L-60.5808 443.903ZM-60.5808 567.427C-64.9581 565.623 -69.1036 563.587 -72.9839 561.341C-81.5743 556.366 -88.39 550.596 -93.2479 544.297C-88.1176 565.36 -76.4064 583.664 -60.5808 596.587L-60.5808 567.427ZM-60.5808 394.515C-63.4983 398.455 -66.298 402.726 -68.9669 407.316C-80.2646 426.747 -88.2838 450.335 -92.5515 476.096C-87.8776 465.793 -81.5255 456.297 -73.6449 447.979C-69.5733 443.676 -65.2044 439.806 -60.5808 436.387L-60.5808 394.515ZM-60.5808 604.107C-65.2044 600.69 -69.5733 596.815 -73.6449 592.515C-81.5254 584.197 -87.8776 574.697 -92.5515 564.396C-88.2838 590.159 -80.2644 613.743 -68.9669 633.174C-66.2978 637.765 -63.4985 642.036 -60.5808 645.977L-60.5808 604.107ZM-60.5808 344.622C-63.4435 350.031 -66.1836 355.868 -68.7978 362.124L-68.7997 362.126C-78.291 384.862 -85.4878 411.656 -90.1043 440.89C-85.8295 427.661 -80.4493 415.372 -74.0501 404.363C-69.8829 397.188 -65.3812 390.735 -60.5808 385.041L-60.5808 344.622ZM-60.5769 655.453C-65.3775 649.758 -69.8808 643.304 -74.0482 636.131C-80.4472 625.122 -85.8276 612.835 -90.1024 599.604C-85.4882 628.838 -78.2914 655.632 -68.7978 678.368C-66.186 684.624 -63.4396 690.464 -60.5769 695.874L-60.5769 655.453ZM-7.9409 361.473C-24.744 362.402 -40.8182 371.328 -54.6989 387.201L-54.6989 432.362C-40.6557 423.492 -24.6605 418.53 -7.9409 418.011L-7.9409 361.473ZM-7.94091 423.893C-25.1502 424.472 -41.1671 430.122 -54.6989 439.477L-54.6989 470.819C-40.6581 465.872 -24.6556 463.103 -7.94091 462.814L-7.94091 423.893ZM-7.94091 468.694C-24.7893 468.995 -40.835 471.898 -54.6989 477.066L-54.6989 517.307L-7.94091 517.307L-7.94091 468.694ZM-7.94091 577.684C-24.6556 577.392 -40.6581 574.62 -54.6989 569.674L-54.6989 601.015C-41.1671 610.37 -25.1478 616.023 -7.94091 616.599L-7.94091 577.684ZM-7.94091 622.483C-24.6603 621.964 -40.6557 617.003 -54.6989 608.138L-54.699 653.293C-40.8182 669.166 -24.7441 678.092 -7.94092 679.022L-7.94091 622.483ZM-7.94091 523.187L-54.6989 523.187L-54.6989 563.428C-40.835 568.596 -24.7893 571.494 -7.94091 571.8L-7.94091 523.187ZM-7.93893 298.084C-18.7967 298.939 -29.4083 304.548 -39.5182 314.791C-44.842 320.187 -49.9155 326.737 -54.697 334.386L-54.697 378.591C-51.0578 374.916 -47.2667 371.64 -43.3384 368.785C-32.1224 360.627 -20.2278 356.19 -7.93893 355.581L-7.93893 298.084ZM-7.93895 684.913C-20.2278 684.304 -32.1224 679.869 -43.3385 671.709C-47.2667 668.854 -51.0578 665.578 -54.697 661.903L-54.697 706.108C-49.9155 713.759 -44.8445 720.307 -39.5182 725.705C-29.4058 735.944 -18.7968 741.555 -7.93895 742.41L-7.93895 684.913ZM44.699 334.386C39.9176 326.737 34.8464 320.187 29.5202 314.791C19.4077 304.55 8.79706 298.939 -2.06098 298.084L-2.06098 355.581C10.2258 356.19 22.1242 360.624 33.3405 368.785C37.2689 371.64 41.0598 374.916 44.699 378.591L44.699 334.386ZM44.699 387.201C30.8182 371.328 14.7422 362.402 -2.06098 361.473L-2.06099 418.011C14.6586 418.53 30.6509 423.494 44.699 432.362L44.699 387.201ZM44.699 439.479C31.1671 430.124 15.146 424.471 -2.06099 423.895L-2.06099 462.814C14.6538 463.103 30.6581 465.872 44.699 470.819L44.699 439.479ZM44.699 477.07C30.8349 471.902 14.7876 468.997 -2.06099 468.696L-2.06099 517.307L44.699 517.307L44.699 477.07ZM44.699 523.187L-2.06099 523.187L-2.06099 571.802C14.7876 571.496 30.8349 568.598 44.699 563.43L44.699 523.187ZM44.699 569.672C30.6581 574.62 14.6538 577.388 -2.06099 577.68L-2.061 616.597C15.1484 616.019 31.1671 610.368 44.699 601.013L44.699 569.672ZM44.699 608.136C30.6509 617.001 14.6586 621.96 -2.061 622.479L-2.061 679.018C14.7422 678.088 30.8182 669.164 44.699 653.291L44.699 608.136ZM44.699 661.903C41.0598 665.578 37.2689 668.854 33.3405 671.709C22.1241 679.867 10.2258 684.304 -2.061 684.913L-2.061 742.41C8.79704 741.552 19.4101 735.944 29.5202 725.705C34.844 720.307 39.9176 713.759 44.699 706.108L44.699 661.903ZM80.1044 440.888C75.4903 411.655 68.2933 384.86 58.7998 362.124L58.7959 362.122C56.1841 355.868 53.4416 350.03 50.5789 344.62L50.5789 385.039C55.3794 390.734 59.881 397.188 64.0483 404.361C70.4474 415.37 75.8296 427.659 80.1044 440.888ZM82.5516 476.095C78.2839 450.335 70.2647 426.745 58.967 407.314C56.2979 402.724 53.4965 398.454 50.5789 394.513L50.5789 436.387C55.1979 439.804 59.5732 443.676 63.645 447.979C71.5254 456.297 77.8778 465.793 82.5516 476.095ZM85.9647 517.307C84.7245 504.925 75.6286 493.277 60.0372 484.243C57.0479 482.513 53.8907 480.914 50.5789 479.454L50.5789 517.307L85.9647 517.307ZM50.5789 523.187L50.5789 561.04C53.8907 559.584 57.0503 557.983 60.0372 556.253C75.6261 547.216 84.7221 535.569 85.9647 523.187L50.5789 523.187ZM82.5516 564.396C77.8777 574.697 71.5255 584.197 63.645 592.515C59.5732 596.813 55.1979 600.69 50.5789 604.107L50.5789 645.977C53.4965 642.036 56.2979 637.765 58.967 633.174C70.2643 613.743 78.2839 590.159 82.5516 564.396ZM83.248 496.195C78.1176 475.132 66.4067 456.828 50.5809 443.905L50.5809 473.065C54.9585 474.869 59.1054 476.905 62.986 479.152C71.5759 484.126 78.3902 489.897 83.248 496.195ZM83.248 544.299C78.3878 550.597 71.5759 556.363 62.986 561.341C59.1054 563.587 54.9585 565.625 50.5809 567.429L50.5809 596.589C66.4067 583.666 78.1176 565.362 83.248 544.299ZM80.1064 599.604C75.8315 612.835 70.4494 625.122 64.0502 636.131C59.8829 643.304 55.3814 649.758 50.5809 655.453L50.5809 695.874C53.4436 690.464 56.1856 684.624 58.7998 678.368C68.291 655.632 75.4898 628.838 80.1064 599.604Z" class="element"/>
</g>
<defs>
<clipPath id="clip0_658_1338">
<rect width="1920" height="1080"/>
</clipPath>
<clipPath id="clip1_658_1338">
<rect width="1920" height="1080"/>
</clipPath>
</defs>
</svg>
