<svg width="1920" height="1080" viewBox="0 0 1920 1080" fill="none" xmlns="http://www.w3.org/2000/svg">
<style>
    :root {
        --tint: #FFFFFF;
        --tint-dark: #000000;
    }
	.tinted {
		fill: var(--tint);
	}
	.element {
	    fill: var(--tint-dark);
	}
</style>
<g clip-path="url(#clip0_658_1341)">
<path fill-rule="evenodd" clip-rule="evenodd" d="M1920 1080H0V0H1920V1080ZM126 195V860H1800V195H126Z" class="tinted"/>
<path d="M237.256 77.7803L237.255 77.7812C237.393 77.7813 237.528 77.7818 237.664 77.7842L237.663 77.7852C237.689 77.7851 237.73 77.7854 237.773 77.7871C267.31 77.9464 295.067 82.8294 316.079 91.6045C321.123 93.7112 325.647 95.9891 329.624 98.4121C331.194 99.3703 332.681 100.35 334.08 101.352C343.845 108.342 349.398 116.395 349.979 124.937C350.013 125.434 350.03 125.933 350.03 126.431L350.018 127.178C350.009 127.427 349.996 127.676 349.979 127.924C349.398 136.465 343.845 144.518 334.08 151.508C332.682 152.509 331.196 153.49 329.624 154.448H329.623C325.646 156.872 321.121 159.148 316.079 161.255C295.067 170.03 267.311 174.914 237.774 175.073L237.773 175.072C237.732 175.074 237.693 175.075 237.658 175.075L237.659 175.076C237.527 175.077 237.39 175.078 237.253 175.078L237.254 175.079L236.265 175.083C235.933 175.083 235.603 175.081 235.273 175.079V175.078C235.138 175.078 235.003 175.079 234.865 175.076V175.075C234.832 175.075 234.794 175.074 234.755 175.072C205.22 174.913 177.462 170.03 156.452 161.255C151.408 159.148 146.882 156.87 142.907 154.448H142.906C141.336 153.49 139.849 152.51 138.45 151.508C128.685 144.518 123.132 136.465 122.551 127.924C122.534 127.675 122.521 127.427 122.513 127.178L122.5 126.431C122.5 125.932 122.517 125.433 122.551 124.937C123.133 116.395 128.685 108.342 138.45 101.352C139.849 100.35 141.335 99.3705 142.907 98.4121C146.882 95.9904 151.408 93.7111 156.452 91.6045C177.462 82.8294 205.22 77.9454 234.755 77.7861V77.7871C234.8 77.7853 234.843 77.7851 234.87 77.7852V77.7842C234.996 77.7831 235.139 77.7813 235.275 77.7812C235.6 77.7801 235.934 77.7764 236.265 77.7764L237.256 77.7803ZM238.225 171.025C243.95 170.221 249.402 165.893 253.707 158.465C254.434 157.21 255.113 155.894 255.742 154.521H238.225V171.025ZM216.788 154.52C217.418 155.893 218.098 157.21 218.824 158.464L219.244 159.173C223.481 166.168 228.765 170.247 234.306 171.024V154.52H216.788ZM199.438 154.521C205.279 161.343 213.201 166.516 222.283 169.172C219.773 166.875 217.467 163.943 215.432 160.43V160.429C214.358 158.574 213.382 156.6 212.511 154.521H199.438ZM260.019 154.521C259.147 156.6 258.171 158.574 257.098 160.429V160.43C255.063 163.943 252.756 166.875 250.245 169.172C259.327 166.516 267.249 161.343 273.091 154.521H260.019ZM175.398 154.521C176.983 155.635 178.669 156.714 180.454 157.752C189.166 162.817 199.583 166.552 210.974 168.775C207.334 166.813 203.93 164.413 200.835 161.602L200.046 160.87C197.952 158.889 196.063 156.765 194.386 154.521H175.398ZM278.145 154.521C276.684 156.476 275.061 158.34 273.283 160.098L272.484 160.87C269.181 163.999 265.505 166.645 261.554 168.775C272.946 166.552 283.362 162.817 292.074 157.752C293.86 156.714 295.546 155.635 297.131 154.521H278.145ZM151.146 154.521C152.945 155.423 154.834 156.301 156.812 157.151L157.961 157.64L158.053 157.678C167.768 161.724 178.986 164.927 191.193 167.194C186.675 165.447 182.418 163.426 178.486 161.141C174.961 159.093 171.781 156.881 168.965 154.521H151.146ZM303.565 154.52C300.749 156.879 297.569 159.092 294.044 161.14C290.112 163.425 285.855 165.446 281.336 167.193C293.581 164.92 304.832 161.705 314.568 157.64C316.967 156.638 319.24 155.596 321.386 154.52H303.565ZM157.981 128.39C158.584 136.324 162.856 143.95 170.408 150.602H191.741C187.671 143.879 185.359 136.302 185.032 128.39H157.981ZM188.954 128.39C189.327 136.545 192.023 144.141 196.434 150.602H211.025C208.742 143.877 207.451 136.296 207.268 128.39H188.954ZM211.185 128.39C211.378 136.386 212.761 143.993 215.179 150.602H234.306V128.39H211.185ZM238.225 150.602H257.352C259.769 143.993 261.15 136.386 261.346 128.39H238.225V150.602ZM265.265 128.39C265.08 136.296 263.787 143.877 261.504 150.602H276.096C280.507 144.141 283.203 136.544 283.575 128.39H265.265ZM287.498 128.39C287.171 136.302 284.86 143.879 280.792 150.602H302.122C309.675 143.95 313.946 136.324 314.549 128.39H287.498ZM126.527 128.389C127.078 133.44 129.768 138.419 134.623 143.21C137.243 145.795 140.424 148.265 144.144 150.601H164.75C163.246 149.039 161.883 147.423 160.671 145.756C156.676 140.264 154.446 134.429 154.05 128.389H126.527ZM318.48 128.389C318.084 134.429 315.855 140.264 311.859 145.756C310.647 147.423 309.285 149.039 307.78 150.601H328.387C332.107 148.265 335.287 145.796 337.908 143.21C342.761 138.417 345.452 133.44 346.003 128.389H318.48ZM144.144 102.258C140.424 104.593 137.243 107.063 134.623 109.648C129.769 114.441 127.078 119.419 126.527 124.471H154.05C154.446 118.431 156.675 112.595 160.671 107.103C161.883 105.435 163.246 103.819 164.75 102.258H144.144ZM170.408 102.258C162.856 108.909 158.584 116.536 157.981 124.471H185.032C185.359 116.558 187.672 108.982 191.741 102.258H170.408ZM196.435 102.258C192.024 108.719 189.327 116.316 188.955 124.471H207.268C207.451 116.565 208.742 108.982 211.025 102.258H196.435ZM215.181 102.258C212.763 108.867 211.379 116.474 211.186 124.471H234.306V102.258H215.181ZM238.225 124.471H261.347C261.151 116.474 259.77 108.867 257.353 102.258H238.225V124.471ZM261.503 102.258C263.787 108.982 265.079 116.565 265.263 124.471H283.574C283.201 116.315 280.506 108.719 276.095 102.258H261.503ZM280.791 102.258C284.859 108.982 287.169 116.558 287.496 124.471H314.547C313.944 116.536 309.674 108.909 302.121 102.258H280.791ZM307.78 102.258C309.285 103.819 310.647 105.435 311.859 107.103C315.854 112.595 318.084 118.431 318.48 124.471H346.003C345.451 119.419 342.761 114.44 337.908 109.648V109.649C335.287 107.064 332.107 104.593 328.387 102.258H307.78ZM191.197 85.6621C179.022 87.9226 167.83 91.1153 158.132 95.1475V95.1494L157.96 95.2207C155.562 96.2221 153.29 97.2633 151.145 98.3389H168.964C171.78 95.9796 174.961 93.7673 178.485 91.7197C182.419 89.4335 186.677 87.41 191.197 85.6621ZM210.975 84.083C199.584 86.3063 189.165 90.0423 180.453 95.1074C178.668 96.1456 176.982 97.2247 175.397 98.3389H194.386C196.062 96.0971 197.952 93.9707 200.046 91.9893L200.835 91.2578C203.931 88.4456 207.335 86.0453 210.975 84.083ZM234.306 81.8359C228.581 82.637 223.129 86.9662 218.824 94.3945L218.823 94.3936C218.097 95.6486 217.419 96.9655 216.788 98.3389H234.306V81.8359ZM238.225 98.3389H255.742C255.205 97.1663 254.631 96.0346 254.022 94.9482L253.707 94.3945C249.401 86.9674 243.95 82.638 238.225 81.8359V98.3389ZM261.554 84.083C265.505 86.2134 269.181 88.8599 272.484 91.9893C274.576 93.9704 276.468 96.0969 278.145 98.3389H297.131C295.546 97.2247 293.86 96.1457 292.074 95.1074C283.362 90.0423 272.946 86.3063 261.554 84.083ZM222.283 83.6865C213.201 86.3424 205.28 91.5161 199.438 98.3379H212.511C213.382 96.259 214.358 94.2834 215.432 92.4287C217.466 88.9159 219.773 85.9827 222.283 83.6865ZM250.245 83.6865C252.756 85.9832 255.062 88.9153 257.098 92.4287V92.4297C258.171 94.2842 259.148 96.259 260.02 98.3379H273.092C267.25 91.5157 259.328 86.3423 250.245 83.6865ZM281.338 85.6631C285.856 87.4105 290.112 89.4334 294.044 91.7188C297.568 93.7663 300.749 95.9786 303.565 98.3379H321.386C319.24 97.2624 316.967 96.2211 314.568 95.2188C304.832 91.1546 293.583 87.9377 281.338 85.6631Z" class="element"/>
</g>
<defs>
<clipPath id="clip0_658_1341">
<rect width="1920" height="1080"/>
</clipPath>
</defs>
</svg>
