<svg width="1920" height="1080" viewBox="0 0 1920 1080" fill="none" xmlns="http://www.w3.org/2000/svg">
<style>
    :root {
        --tint: #FFFFFF;
        --tint-dark: #000000;
    }
	.tinted {
		fill: var(--tint);
	}
	.element {
	    fill: var(--tint-dark);
	}
</style>
<g clip-path="url(#clip0_461_661)">
<path fill-rule="evenodd" clip-rule="evenodd" d="M1920 1080H0V0H1920V1080ZM126 195V860H1800V195H126Z" class="tinted"/>
<path d="M317.554 169.441C319.846 169.444 322.382 169.242 324.642 169.573C325.072 169.636 325.402 169.752 325.658 170.124C325.94 170.537 326.07 171.141 325.962 171.632C325.879 172.014 325.704 172.229 325.382 172.433C325.363 172.474 325.353 172.519 325.327 172.556C324.866 173.228 322.153 172.942 321.417 172.926C315.294 172.846 309.17 172.843 303.047 172.916L286.669 172.932C276.465 172.964 266.25 172.795 256.048 172.991C255.975 171.784 255.774 170.605 255.512 169.426L317.554 169.441Z" class="element"/>
<path d="M124.147 169.336C127.223 169.192 130.351 169.307 133.432 169.309L151.335 169.367L192.485 169.405C192.196 170.441 191.919 171.481 191.653 172.523L191.477 172.607L147.917 172.641C140.063 172.58 132.209 172.589 124.355 172.67L123.308 171.997C123.175 171.663 122.964 171.243 123.005 170.879C123.087 170.152 123.609 169.75 124.147 169.336Z" class="element"/>
<path d="M127.941 144.069C129.531 144.04 132.376 145.189 133.984 145.644L145.25 148.838L169.172 155.578C172.126 156.382 175.122 157.106 178.063 157.947C181.514 158.934 184.952 160.105 188.377 161.189C190.57 161.883 192.771 162.491 194.939 163.269C194.507 164.253 194.086 165.242 193.674 166.235C185.735 163.71 177.748 161.505 169.74 159.225L136.978 149.853C136.146 149.614 127.948 147.398 127.804 147.282C127.771 147.255 127.74 147.226 127.708 147.198C127.361 146.908 127.038 146.636 126.835 146.219C126.665 145.87 126.614 145.501 126.755 145.133C126.974 144.561 127.415 144.302 127.942 144.07L127.941 144.069Z" class="element"/>
<path d="M320.253 144.032C320.755 144.065 321.182 144.342 321.561 144.653C321.782 145.158 321.91 145.55 321.739 146.09C321.663 146.537 321.374 146.948 321.017 147.219C319.408 148.012 317.243 148.202 315.494 148.673C311.198 149.83 306.909 151.064 302.631 152.287L268.48 162.041C263.728 163.394 259.195 165.096 254.357 166.182C253.823 165.265 253.452 164.132 253.031 163.15C256.03 162.038 259.082 161.358 262.142 160.458L283.573 154.341C284.825 153.989 286.035 153.491 287.288 153.134C292.86 151.545 298.483 150.103 304.065 148.551C307.739 147.53 311.376 146.386 315.043 145.348C316.758 144.863 318.524 144.478 320.253 144.032Z" class="element"/>
<path d="M135.818 119.298C136.153 119.311 136.456 119.363 136.762 119.507C138.195 120.179 139.557 121.133 140.921 121.938C142.209 122.698 143.552 123.361 144.84 124.119C146.191 124.913 147.464 125.837 148.797 126.661L184.488 148.444C188.192 150.756 192.04 152.844 195.693 155.235C196.775 155.944 197.934 156.604 198.917 157.446C198.422 158.224 197.793 158.931 197.269 159.694L197.205 159.833C196.919 159.841 196.749 159.692 196.516 159.55L149.303 130.8C146.026 128.77 142.698 126.813 139.403 124.814C137.994 123.959 136.281 123.146 135.063 122.057C134.575 121.621 134.591 120.962 134.548 120.358C134.95 119.943 135.303 119.577 135.817 119.298L135.818 119.298Z" class="element"/>
<path d="M311.199 119.608C311.508 119.541 311.833 119.489 312.151 119.533C312.585 119.593 313.054 119.819 313.322 120.172C313.592 120.529 313.717 121.112 313.617 121.548C313.56 121.786 313.405 122.002 313.237 122.176C312.286 123.167 309.681 124.406 308.373 125.178C305.526 126.848 302.69 128.538 299.868 130.25L263.548 152.314C259.378 154.791 255.312 157.434 251.06 159.774C251.036 159.773 251.012 159.776 250.989 159.771C250.618 159.679 249.164 157.613 248.875 157.162C255.587 153.268 262.24 149.279 268.837 145.195L294.616 129.549C295.604 128.946 296.646 128.438 297.638 127.847L306.775 122.295C308.203 121.425 309.875 120.617 311.199 119.608Z" class="element"/>
<path d="M296.104 98.931C296.356 98.8984 296.652 98.8439 296.906 98.8817C297.393 98.9544 298.007 99.4237 298.263 99.8345C298.451 100.135 298.51 100.525 298.416 100.868C298.34 101.142 298.184 101.382 298.003 101.597C296.478 103.406 294.642 105.074 292.954 106.735C290.739 108.917 288.555 111.131 286.401 113.374C283.082 116.811 279.625 120.12 276.239 123.49C273.824 125.894 271.493 128.401 269.108 130.837C266.663 133.333 264.155 135.77 261.723 138.278L250.592 149.945C249.463 151.125 247.277 153.803 245.971 154.598C245.154 154.016 244.365 153.124 243.603 152.448C247.237 148.515 251 144.686 254.728 140.843L275.738 119.432L287.974 107.061C290.661 104.331 293.29 101.529 296.104 98.931Z" class="element"/>
<path d="M151.953 99.1735C152.688 99.2106 153.167 99.7512 153.68 100.218C155.091 101.501 156.35 102.94 157.683 104.304L164.939 111.69C165.771 112.543 166.713 113.284 167.551 114.13L181.017 127.968L198.079 145.434C200.321 147.757 202.608 150.018 204.772 152.416C204.272 153.02 203.594 153.435 202.954 153.877L202.105 154.542C201.045 152.976 199.389 151.557 198.071 150.197L191.628 143.472C183.112 134.651 174.538 125.889 165.906 117.183C162.08 113.402 158.291 109.585 154.541 105.729C153.361 104.513 151.95 103.392 150.895 102.081C150.537 101.637 150.228 101.063 150.317 100.474C150.404 99.8935 150.849 99.5337 151.275 99.1867L151.614 99.1709C151.727 99.168 151.84 99.1678 151.953 99.1735Z" class="element"/>
<path d="M275.509 83.2921C275.676 83.3394 275.825 83.3943 275.981 83.4723C276.394 83.6791 276.771 83.9447 276.898 84.4154C276.946 84.5943 276.956 84.7878 276.948 84.9718C276.927 85.4468 276.751 85.9097 276.544 86.3332C275.615 88.2299 274.41 90.0217 273.352 91.8485L267.307 102.317C260.037 114.725 253.267 127.412 246.127 139.891C245.201 141.511 244.395 143.196 243.507 144.837C243.065 145.653 242.554 146.43 242.11 147.245C241.527 148.314 241.022 149.428 240.362 150.452C240.04 150.427 239.835 150.239 239.57 150.065C238.915 149.616 238.164 149.317 237.503 148.859C238.295 146.624 239.779 144.502 240.956 142.443C241.749 141.057 242.449 139.618 243.226 138.223C244.218 136.441 245.282 134.701 246.265 132.911C254.999 116.941 263.951 101.092 273.122 85.3664C273.759 84.2954 274.259 83.6092 275.509 83.2921Z" class="element"/>
<path d="M172.025 83.395C172.627 83.3542 173.086 83.4836 173.648 83.6718C174.62 85.1733 175.437 86.7683 176.35 88.3056L182.989 99.4618C191.526 113.747 199.807 128.18 207.832 142.758C208.473 143.898 211.139 147.992 211.208 148.892C210.654 149.196 210.038 149.313 209.483 149.632C209.453 149.65 209.422 149.667 209.392 149.686L208.189 150.321C206.784 147.278 204.952 144.302 203.282 141.393L197.925 131.836L179.657 100.173C178.773 98.6732 177.773 97.2394 176.904 95.7325C176.219 94.5445 175.651 93.2995 174.937 92.1254C173.787 90.2353 172.471 88.3801 171.471 86.4044C171.192 85.8512 170.965 85.1724 171.074 84.549C171.175 83.9735 171.576 83.6991 172.025 83.395Z" class="element"/>
<path d="M196.823 72.7406C197.257 72.776 198.073 72.9538 198.328 73.3259C198.939 74.2168 200.86 82.1248 201.372 83.9399C202.242 87.0209 203.258 90.0692 204.136 93.152C204.893 95.8082 205.482 98.4998 206.22 101.158C207.507 105.798 208.97 110.402 210.278 115.037C211.02 117.666 218.832 146.141 218.7 146.677C218.251 146.951 217.686 147.01 217.175 147.115L215.419 147.456C215.169 146.093 214.699 144.786 214.365 143.443C213.396 139.546 212.357 135.682 211.334 131.8C207.754 118.406 204.034 105.051 200.175 91.7352L197.047 80.6061C196.443 78.4694 195.683 76.2865 195.303 74.1012C195.422 73.8625 195.544 73.6215 195.685 73.3954C195.986 72.9146 196.294 72.8511 196.823 72.7406Z" class="element"/>
<path d="M251.266 72.9761C251.454 73.003 251.644 73.0305 251.828 73.0763C252.227 73.1751 252.626 73.459 252.825 73.8217C253.124 74.3674 253.012 75.059 252.855 75.6323L239.801 121.473C238.713 125.388 237.744 129.33 236.703 133.257C236.379 134.48 235.956 135.674 235.64 136.9C234.749 140.353 233.989 143.837 232.903 147.239L231.68 147.028C231.009 146.904 230.338 146.775 229.668 146.64C229.959 144.957 230.444 143.29 230.883 141.64C231.701 138.598 232.549 135.563 233.427 132.537L238.985 112.167C241.873 101.605 244.649 90.9801 247.925 80.5288C248.57 78.4716 248.966 75.8395 249.909 73.9561C250.212 73.3518 250.664 73.1783 251.266 72.9761Z" class="element"/>
<path d="M223.74 69.0042C224.327 68.9871 224.864 69.002 225.297 69.4481C225.544 69.7028 225.751 70.0276 225.791 70.385C226.047 72.6642 225.853 75.8112 225.856 78.1776L225.82 146.348L224.34 146.363L222.346 146.382C222.583 139.961 222.43 133.488 222.436 127.063L222.44 78.146C222.443 75.7091 222.293 73.1441 222.535 70.7208C222.62 69.8644 222.996 69.5213 223.634 69.0077C223.67 69.0063 223.705 69.0049 223.74 69.0042Z" class="element"/>
</g>
<defs>
<clipPath id="clip0_461_661">
<rect width="1920" height="1080"/>
</clipPath>
</defs>
</svg>
