<svg width="260" height="132" viewBox="0 0 260 132" fill="none" xmlns="http://www.w3.org/2000/svg">
<style>
    :root {
        --frame: "#FFFFFF";
        --logotext: #000000;
        --plane: "#FFFFFF";
        --outline: "#FF0000";
    }
	.logotext {
		fill: var(--logotext);
	}
	.plane {
	    fill: var(--plane);
	}
	.outline {
	    fill: var(--outline);
	}
	.frame {
	    stroke: var(--frame);
	}
</style>
<g clip-path="url(#clip0_543_5066)">
<path d="M26.8506 0.124032C32.7961 0.130544 38.7482 0.124034 44.6937 0.0849609C52.1501 0.0849609 57.6723 3.93361 57.6723 7.90599V46.8092C57.7505 51.1789 52.1436 53.4125 47.7023 53.4125C45.4101 53.4125 41.3335 53.393 38.2207 53.393H26.8506V0.124032ZM44.8044 41.7233V11.1946C44.8044 9.17584 42.7075 9.0977 39.7185 9.0977V44.4844C42.9485 44.4844 44.8044 43.8267 44.8044 41.7233Z" class="logotext"/>
<path d="M63.9548 43.6372V0.0908203H77.4608V42.3934C77.4608 44.9592 77.4543 45.5973 79.46 45.5973C81.4658 45.5973 81.4137 44.9005 81.4137 42.3934L81.4593 0.0908203H95.0565C95.0565 14.4109 95.037 29.5059 95.037 43.6372C95.037 46.1053 94.6072 54.7078 79.3624 54.7078C64.1176 54.7078 63.9482 46.203 63.9482 43.6372H63.9548Z" class="logotext"/>
<path d="M100.956 0.0517578C103.958 0.0517578 108.517 0.0517578 112.072 0.0517578C114.182 7.2867 117.471 16.5795 120.414 24.2833V0.0517578H131.543V53.4835H119.906C117.308 45.6429 114.664 37.8219 112.079 29.3627V53.4835H100.963V0.0517578H100.956Z" class="logotext"/>
<path d="M137.835 0.124032C143.781 0.130544 149.733 0.124034 155.678 0.0849609C163.134 0.0849609 168.657 3.93361 168.657 7.90599V46.8092C168.735 51.1789 163.128 53.4125 158.687 53.4125C156.394 53.4125 152.318 53.393 149.205 53.393H137.835V0.124032ZM155.789 41.7233V11.1946C155.789 9.17584 153.692 9.0977 150.703 9.0977V44.4844C153.933 44.4844 155.789 43.8267 155.789 41.7233Z" class="logotext"/>
<path d="M175.12 0H197.867V10.3673H188.769V21.4769H197.235V30.5743H188.769V42.9538H198.505V53.321H175.12V0Z" class="logotext"/>
<path d="M203.361 53.4782V0.450195C210.707 0.450195 216.379 0.599973 220.748 0.599973C229.468 0.599973 233.831 2.95084 233.831 14.7508C233.831 24.0891 232.613 23.8221 226.635 25.5413C229.54 25.8669 233.74 28.5173 233.74 31.2524L233.831 53.4717H221.386C221.386 45.9828 221.237 37.9859 221.237 30.6142C220.377 29.7155 219.811 29.3444 216.9 29.3444V53.4652H203.354L203.361 53.4782ZM221.4 19.6218C221.4 16.7435 221.426 10.3095 221.426 10.3095C220.722 9.41735 219.915 9.05267 218.593 9.03965H216.9V21.5233H218.17C219.576 21.5494 220.683 20.8265 221.4 19.6218Z" class="logotext"/>
<path d="M19.3044 111.114V58.1768C25.3346 58.1768 31.482 58.1768 37.5057 58.1768C38.0266 63.4711 40.6771 79.5885 41.1003 82.5125L44.695 58.1768H62.2581V111.114H50.1717V75.3622L45.3332 111.114H36.8675C35.8321 104.914 33.0709 86.4783 31.521 76.0525C31.521 85.9313 31.5731 99.9714 31.5731 111.114H19.2979H19.3044Z" class="logotext"/>
<path d="M68.2139 57.9033H81.6809V111.172H68.2139V57.9033Z" class="logotext"/>
<path d="M87.5967 57.7812H111.086V68.1485H101.35V78.7307H109.816V88.4662H101.35V111.109H87.5967V57.7812Z" class="logotext"/>
<path d="M114.677 57.7812H138.166V68.1485H128.43V78.7307H136.896V88.4662H128.43V111.109H114.677V57.7812Z" class="logotext"/>
<path d="M141.812 57.8194H155.357V100.78H163.823V111.147H141.812V57.8194Z" class="logotext"/>
<path d="M167.356 57.9033H180.823V111.172H167.356V57.9033Z" class="logotext"/>
<path d="M187.116 57.4746C190.118 57.4746 194.677 57.4746 198.232 57.4746C200.342 64.7095 203.631 74.0023 206.574 81.7061V57.4746H217.704V110.906H206.066C203.468 103.066 200.824 95.2448 198.239 86.7855V110.906H187.123V57.4746H187.116Z" class="logotext"/>
<path d="M243.203 57.7539H220.411V63.6018H243.203V57.7539Z" fill="#929090"/>
<path d="M220.424 66.2256H243.19V71.4157L234.041 74.0922L243.19 74.0531V79.8945H220.411V74.0596L230.173 71.4418L220.431 71.4222V66.2256H220.424Z" fill="#929090"/>
<path d="M233.453 96.1675V90.3327H239.288C239.288 90.3327 239.978 90.3587 239.978 89.0368C239.978 87.7148 239.314 87.7018 239.314 87.7018H224.356C224.356 87.7018 223.665 87.7409 223.665 89.0237C223.665 90.3066 224.33 90.3327 224.33 90.3327H229.5V96.161H223.665C223.665 96.161 219.804 96.1414 219.804 89.2647C219.804 82.3879 223.665 81.8604 223.665 81.8604H239.946C239.946 81.8604 243.872 81.7562 243.872 89.0302C243.872 96.3043 239.959 96.174 239.959 96.174H233.447L233.453 96.1675Z" fill="#929090"/>
<path d="M221.688 100.74H230.851V109.199C230.851 112.241 226.221 118.323 221.728 118.323V114.448C222.561 114.448 224.319 111.954 224.319 111.14H221.715L221.695 100.74H221.688Z" class="logotext"/>
<path d="M38.3724 120.843L38.0859 121.351C36.3667 124.431 34.1265 128.547 32.2836 131.809L31.9971 132.298L32.5701 132.278L34.4652 132.258H34.6475L34.7517 132.096L36.1322 129.654H40.8731L42.2145 132.076L42.3187 132.239H44.9431L44.6566 131.751L38.6524 121.331L38.3659 120.843H38.3724ZM38.4766 124.893L39.9028 127.746H37.1156C37.5779 126.788 38.0338 125.785 38.4766 124.893Z" class="logotext"/>
<path d="M189.24 120.843L188.953 121.351C187.234 124.431 184.994 128.547 183.151 131.809L182.864 132.298L183.437 132.278L185.332 132.258H185.515L185.619 132.096L186.98 129.654H191.721L193.082 132.076L193.186 132.239H195.81L195.524 131.751L189.52 121.331L189.233 120.843H189.24ZM189.344 124.874L190.77 127.746H187.983C188.452 126.782 188.901 125.772 189.344 124.874Z" class="logotext"/>
<path d="M202.878 120.922V132.012H203.204L205.118 132.07H205.463V125.291L212.08 131.927L212.184 132.005H214.606V120.915H211.982V127.675L205.366 121.019L205.287 120.915H202.884L202.878 120.922Z" class="logotext"/>
<path d="M116.887 120.941C115.825 120.941 114.321 121.202 113.038 122.022C111.755 122.843 110.72 124.269 110.72 126.477C110.72 128.684 111.703 130.176 112.96 131.074C114.217 131.973 115.715 132.298 116.848 132.298C119.029 132.298 120.306 131.589 120.306 131.589L120.468 131.484V129.166L119.96 129.472C119.023 130.052 118.495 130.43 117.193 130.43C116.587 130.43 115.369 130.11 114.386 129.433C113.403 128.756 112.634 127.773 112.634 126.444C112.634 125.116 113.233 124.25 114.06 123.696C114.887 123.142 115.949 122.921 116.724 122.921C118.365 122.921 118.873 123.116 119.96 123.794L120.468 124.119V122.061L120.306 121.983C119.394 121.443 118.931 120.948 116.887 120.948V120.941Z" class="logotext"/>
<path d="M221.378 120.941L221.723 121.449L225.572 127.128V132.051H228.281V127.31L232.149 121.449L232.475 120.941H229.707L229.603 121.085L226.959 124.627L224.315 121.085L224.211 120.941H221.378Z" class="logotext"/>
<path d="M67.71 121.207V132.297H74.9319V130.689H69.6441V127.048H74.2611V125.199H69.6441V122.881H74.9319V121.214H67.71V121.207Z" class="logotext"/>
<path d="M134.787 121.247C133.211 121.247 131.602 121.755 130.371 122.654C129.141 123.552 128.294 124.868 128.294 126.437C128.294 128.007 129.134 129.478 130.352 130.546C131.57 131.614 133.165 132.298 134.747 132.298C136.33 132.298 137.964 131.614 139.202 130.546C140.439 129.478 141.299 128.007 141.299 126.437C141.299 124.868 140.439 123.572 139.202 122.673C137.964 121.775 136.356 121.247 134.787 121.247ZM134.767 122.914C135.802 122.914 136.968 123.305 137.841 123.95C138.713 124.594 139.286 125.46 139.286 126.431C139.286 127.401 138.694 128.391 137.821 129.14C136.949 129.889 135.822 130.384 134.813 130.384C133.803 130.384 132.618 129.908 131.719 129.159C130.821 128.41 130.215 127.401 130.215 126.411C130.215 125.421 130.801 124.568 131.68 123.93C132.559 123.292 133.725 122.914 134.773 122.914H134.767Z" class="logotext"/>
<path d="M19.5244 121.306V131.582H21.439V127.779H23.7573C23.7573 127.779 23.7703 127.779 23.7768 127.779C23.7898 127.779 23.8029 127.759 23.8159 127.759C23.8419 127.759 23.881 127.759 23.9201 127.759C23.9982 127.746 24.0829 127.733 24.2066 127.701C24.4476 127.635 24.7797 127.512 25.1053 127.297C25.7565 126.854 26.3882 125.981 26.3882 124.49C26.3882 122.999 25.9519 122.191 25.4504 121.762C25.203 121.547 24.949 121.436 24.7601 121.377C24.6625 121.351 24.5778 121.325 24.5127 121.319C24.4801 121.319 24.4671 121.319 24.4541 121.319C24.4541 121.319 24.428 121.481 24.415 121.644H24.3955V121.319H19.5309L19.5244 121.306ZM21.478 123.22H23.0279C23.0279 123.22 23.054 123.22 23.067 123.22C23.1191 123.22 23.1777 123.253 23.2493 123.259C23.3926 123.279 23.5749 123.305 23.7573 123.383C24.1154 123.539 24.4476 123.78 24.4476 124.484C24.4476 125.187 24.0699 125.454 23.6335 125.643C23.4186 125.734 23.1907 125.799 23.0214 125.825C22.9368 125.838 22.8651 125.838 22.8195 125.845C22.7935 125.845 22.7739 125.845 22.7609 125.845H22.7414C22.7414 125.845 22.7284 125.845 22.7219 125.845H21.478V123.22Z" class="logotext"/>
<path d="M52.0654 121.306V131.582H53.98V127.779H56.2983C56.2983 127.779 56.3113 127.779 56.3178 127.779C56.3308 127.779 56.3439 127.759 56.3569 127.759C56.3829 127.759 56.422 127.759 56.4611 127.759C56.5392 127.746 56.6434 127.733 56.7672 127.701C57.0081 127.635 57.3207 127.512 57.6398 127.297C58.291 126.854 58.9422 125.981 58.9422 124.49C58.9422 122.999 58.4798 122.191 57.9849 121.762C57.7375 121.547 57.4835 121.436 57.2946 121.377C57.197 121.351 57.1123 121.325 57.0472 121.319C57.0146 121.319 57.0016 121.319 56.9886 121.319C56.9886 121.319 56.9755 121.481 56.969 121.644H56.9495V121.319H52.0654V121.306ZM54.0191 123.22H55.5689C55.5689 123.22 55.595 123.22 55.608 123.22C55.6601 123.22 55.7187 123.253 55.7903 123.259C55.9336 123.279 56.142 123.305 56.3178 123.383C56.676 123.539 56.9886 123.78 56.9886 124.484C56.9886 125.187 56.6109 125.454 56.1746 125.643C55.9597 125.734 55.7317 125.799 55.5624 125.825C55.4778 125.838 55.4061 125.838 55.3605 125.845C55.3345 125.845 55.315 125.845 55.3019 125.845C55.3019 125.845 55.2824 125.845 55.2629 125.845H54.0191V123.22Z" class="logotext"/>
<path d="M83.3395 121.306V131.582H85.2541V127.779L86.1072 127.759L88.712 131.465L88.7901 131.608H88.9725L90.7633 131.588H91.4536L91.0238 131.061L88.152 127.642C88.3734 127.57 88.6338 127.479 88.9074 127.297C89.5586 126.854 90.1902 125.981 90.1902 124.49C90.1902 122.999 89.7539 122.191 89.2525 121.762C89.005 121.547 88.7511 121.436 88.5622 121.377C88.4645 121.351 88.3799 121.325 88.3148 121.319C88.2822 121.319 88.2692 121.319 88.2561 121.319C88.2561 121.319 88.2301 121.481 88.2171 121.644H88.1975V121.319H83.333L83.3395 121.306ZM85.2931 123.22H86.843C86.843 123.22 86.8691 123.22 86.8821 123.22C86.9342 123.22 86.9928 123.253 87.0644 123.259C87.2077 123.279 87.39 123.305 87.5724 123.383C87.9305 123.539 88.2627 123.78 88.2627 124.484C88.2627 125.187 87.885 125.454 87.4486 125.643C87.2337 125.734 87.0058 125.799 86.8365 125.825C86.7519 125.838 86.6802 125.838 86.6346 125.845C86.6086 125.845 86.5891 125.845 86.576 125.845C86.576 125.845 86.5565 125.845 86.537 125.845H85.2931V123.22Z" class="logotext"/>
<path d="M169.938 121.306V131.582H171.873V127.779H174.21C174.223 127.779 174.217 127.759 174.23 127.759C174.256 127.759 174.295 127.759 174.334 127.759C174.412 127.746 174.516 127.733 174.64 127.701C174.881 127.635 175.213 127.512 175.539 127.297C176.19 126.854 176.822 125.981 176.822 124.49C176.822 122.999 176.359 122.191 175.864 121.762C175.617 121.547 175.363 121.436 175.174 121.377C175.077 121.351 175.011 121.325 174.953 121.319C174.92 121.319 174.888 121.319 174.875 121.319L174.855 121.644H174.836V121.319H169.951L169.938 121.306ZM173.435 123.22C173.435 123.22 173.481 123.22 173.494 123.22C173.546 123.22 173.605 123.253 173.676 123.259C173.82 123.279 174.009 123.305 174.184 123.383C174.543 123.539 174.855 123.78 174.855 124.484C174.855 125.187 174.477 125.454 174.041 125.643C173.826 125.734 173.598 125.799 173.429 125.825C173.344 125.838 173.273 125.838 173.227 125.845C173.201 125.845 173.181 125.845 173.168 125.845C173.168 125.845 173.149 125.845 173.129 125.845H171.905V123.22H173.435Z" class="logotext"/>
<path d="M160.061 121.878L159.983 122.022L156.277 127.173L152.572 122.041L152.468 121.898H150.11V132.011H151.719L152.064 132.031V124.867L156.01 129.973L156.258 130.298L156.525 129.973L160.471 124.841V132.063H162.483V121.865H160.061V121.878Z" class="logotext"/>
<path d="M104.06 39.1955L148.4 10.2306L142.767 31.3585L107.956 61.0306L104.06 39.1955Z" class="plane"/>
<path d="M107.973 61.4128C107.924 61.4151 107.874 61.4082 107.826 61.3904C107.696 61.3441 107.602 61.2317 107.578 61.0967L103.682 39.2616C103.655 39.1099 103.721 38.9569 103.85 38.8725L148.189 9.90765C148.322 9.82073 148.495 9.82503 148.624 9.91822C148.753 10.0114 148.811 10.1748 148.77 10.3281L143.136 31.456C143.116 31.5315 143.073 31.5988 143.014 31.6492L108.204 61.3213C108.138 61.3774 108.057 61.4089 107.973 61.4128ZM104.481 39.3768L108.215 60.3022L142.425 31.1415L147.77 11.098L104.482 39.376L104.481 39.3768Z" class="outline"/>
<path d="M148.406 10.2296L104.066 39.1945L84.522 28.9823L148.406 10.2296Z" class="plane"/>
<path d="M104.082 39.5776C104.015 39.5807 103.948 39.5662 103.886 39.5344L84.3427 29.3222C84.204 29.2495 84.1233 29.1002 84.1383 28.9442C84.1534 28.7882 84.2619 28.6571 84.412 28.6133L148.296 9.86056C148.478 9.80749 148.672 9.89536 148.753 10.0685C148.832 10.2416 148.773 10.4465 148.614 10.5508L104.274 39.5157C104.216 39.5538 104.149 39.5745 104.081 39.5777L104.082 39.5776ZM85.5417 29.0828L104.042 38.75L146.017 11.3301L85.5424 29.0828L85.5417 29.0828Z" class="outline"/>
<path d="M107.96 61.0293L142.77 31.3572L148.404 10.2293L112.184 44.3774L107.96 61.0293Z" class="plane"/>
<path d="M107.979 61.4133C107.903 61.4168 107.826 61.3981 107.758 61.3559C107.616 61.2671 107.547 61.0973 107.588 60.9355L111.813 44.2836C111.831 44.2128 111.869 44.1487 111.922 44.0986L148.141 9.95061C148.266 9.83255 148.454 9.81233 148.601 9.90006C148.748 9.9878 148.819 10.1629 148.775 10.3286L143.141 31.4565C143.121 31.532 143.079 31.5993 143.02 31.6497L108.21 61.3218C108.143 61.3787 108.061 61.4094 107.979 61.4133ZM112.53 44.5801L108.629 59.9547L142.43 31.142L147.685 11.434L112.53 44.5793L112.53 44.5801Z" class="outline"/>
<path d="M148.405 10.2283L112.186 44.3763L135.196 59.7646L148.405 10.2283Z" class="plane"/>
<path d="M135.215 60.1496C135.133 60.1533 135.053 60.1317 134.983 60.0849L111.973 44.6966C111.875 44.632 111.814 44.5257 111.804 44.4093C111.794 44.2929 111.838 44.1778 111.923 44.0978L148.142 9.95052C148.268 9.83247 148.455 9.81224 148.602 9.89998C148.749 9.98772 148.82 10.1628 148.776 10.3286L135.568 59.8649C135.535 59.9848 135.448 60.0819 135.332 60.1257C135.294 60.1397 135.254 60.1477 135.215 60.1496ZM112.801 44.3261L134.964 59.1479L147.687 11.4354L112.801 44.3269L112.801 44.3261Z" class="outline"/>
<path d="M108.535 65.5488C108.523 65.5493 108.51 65.5499 108.497 65.549C108.285 65.5381 108.122 65.3573 108.133 65.1461C108.165 64.5248 108.152 63.8987 108.094 63.2832C108.074 63.0719 108.229 62.8848 108.441 62.865C108.65 62.8453 108.839 63.0003 108.859 63.2116C108.92 63.8631 108.934 64.5276 108.9 65.1858C108.89 65.3847 108.729 65.5405 108.534 65.5496L108.535 65.5488Z" class="frame"/>
<path d="M62.7326 104.211C62.5247 104.221 62.3459 104.062 62.3316 103.853C62.3179 103.642 62.4778 103.459 62.6893 103.445C64.0153 103.357 65.2962 103.211 66.4972 103.014C66.7069 102.979 66.9042 103.121 66.9385 103.33C66.9728 103.539 66.8313 103.737 66.6223 103.772C65.3969 103.973 64.0907 104.121 62.7403 104.211L62.7326 104.211ZM60.4109 104.311L60.4009 104.312C59.1321 104.338 57.822 104.321 56.506 104.258C56.2941 104.248 56.1305 104.068 56.1407 103.856C56.1508 103.644 56.33 103.479 56.5427 103.491C57.8417 103.552 59.1341 103.57 60.3853 103.544C60.5972 103.539 60.7726 103.707 60.7771 103.919C60.7814 104.128 60.6188 104.302 60.4109 104.311ZM54.2256 104.105C54.2087 104.106 54.1918 104.106 54.1748 104.104C52.9253 103.998 51.6254 103.852 50.3091 103.668C50.0994 103.639 49.9528 103.445 49.9823 103.235C50.0118 103.026 50.2056 102.879 50.4153 102.908C51.7176 103.089 53.0036 103.235 54.2393 103.339C54.4508 103.357 54.6078 103.543 54.5899 103.754C54.5735 103.949 54.4151 104.096 54.2256 104.105ZM68.8547 103.321C68.6744 103.329 68.5073 103.208 68.4635 103.026C68.414 102.82 68.5412 102.613 68.748 102.563C70.0315 102.257 71.2553 101.873 72.3853 101.422C72.5823 101.344 72.8058 101.44 72.8842 101.637C72.9625 101.834 72.8668 102.057 72.6698 102.136C71.5059 102.6 70.2465 102.995 68.9264 103.31C68.9021 103.316 68.8784 103.32 68.8547 103.321ZM48.0864 103.317C48.0596 103.318 48.0318 103.317 48.0047 103.312C46.7843 103.107 45.5007 102.864 44.1879 102.589C43.9807 102.546 43.8474 102.342 43.8909 102.135C43.9343 101.928 44.138 101.794 44.3453 101.838C45.6479 102.11 46.9223 102.352 48.1326 102.555C48.3418 102.59 48.4824 102.789 48.4475 102.997C48.4167 103.179 48.2629 103.309 48.0864 103.317ZM74.6542 101.194C74.5099 101.201 74.368 101.125 74.2964 100.989C74.1977 100.802 74.27 100.569 74.4576 100.471C75.1646 100.1 75.8459 99.6882 76.4813 99.2497C76.8687 98.9827 77.2543 98.6942 77.6263 98.394C77.7916 98.261 78.0334 98.2867 78.1664 98.452C78.2993 98.6172 78.2737 98.8591 78.1084 98.992C77.7208 99.3045 77.3204 99.6044 76.9173 99.8822C76.2558 100.339 75.5483 100.765 74.8144 101.151C74.7626 101.178 74.7086 101.192 74.6542 101.194ZM42.0173 102.1C41.9835 102.102 41.9488 102.099 41.9138 102.091C40.7203 101.818 39.4871 101.519 38.1435 101.177C37.9381 101.124 37.8139 100.915 37.8659 100.71C37.9178 100.505 38.1273 100.38 38.3327 100.432C39.6701 100.773 40.897 101.071 42.0844 101.343C42.2911 101.39 42.4206 101.597 42.3733 101.803C42.3336 101.975 42.1845 102.093 42.0173 102.1ZM36.0096 100.602C35.9713 100.604 35.9319 100.6 35.893 100.59C34.797 100.299 33.6088 99.9758 32.154 99.5728C31.95 99.5161 31.8295 99.3049 31.8861 99.1001C31.9427 98.8961 32.154 98.7763 32.3588 98.8322C33.8104 99.2338 34.9962 99.5562 36.0899 99.8468C36.2946 99.9012 36.4166 100.112 36.3623 100.316C36.3185 100.482 36.1722 100.593 36.0088 100.601L36.0096 100.602ZM79.6068 97.5179C79.5032 97.5227 79.3985 97.4861 79.3187 97.4075C79.1681 97.2585 79.1668 97.0148 79.3158 96.8641C80.1802 95.9914 81.0019 95.0108 81.759 93.9478C81.8825 93.7752 82.122 93.7349 82.2945 93.8576C82.4671 93.9803 82.5074 94.2206 82.3847 94.3931C81.6038 95.4895 80.7552 96.5029 79.8622 97.4046C79.7916 97.4755 79.6996 97.5136 79.6068 97.5179ZM30.037 98.9637C29.9971 98.9656 29.9561 98.9613 29.9156 98.9501L29.5768 98.8559C28.4662 98.5461 27.3174 98.2258 26.1866 97.9146C25.9819 97.8588 25.8621 97.6468 25.918 97.4428C25.9738 97.238 26.1858 97.1182 26.3899 97.1748C27.5214 97.486 28.671 97.807 29.7824 98.1168L30.1212 98.211C30.3253 98.2677 30.445 98.4797 30.3876 98.6838C30.3422 98.8473 30.1966 98.9571 30.0355 98.9646L30.037 98.9637ZM24.0656 97.3188C24.0272 97.3206 23.987 97.3163 23.9481 97.3058C22.5873 96.9407 21.364 96.6223 20.2074 96.3331C20.0021 96.2819 19.8763 96.0733 19.9282 95.8671C19.9794 95.661 20.1881 95.536 20.3943 95.588C21.5548 95.8785 22.7827 96.1975 24.1474 96.5639C24.3522 96.619 24.4734 96.8294 24.4191 97.0341C24.3745 97.1999 24.2282 97.3113 24.0656 97.3188ZM83.3551 92.6075C83.283 92.6109 83.2092 92.5935 83.142 92.5543C82.9594 92.446 82.8993 92.2104 83.0077 92.0286C83.6208 90.9938 84.1912 89.8826 84.7019 88.7257L84.7046 88.7186C84.045 88.8861 83.3859 89.0281 82.7324 89.1446L82.6844 89.1529C82.4754 89.1888 82.2767 89.0488 82.2409 88.8399C82.205 88.6309 82.345 88.4322 82.5539 88.3963L82.5989 88.3881C83.8091 88.1744 85.0387 87.8659 86.2528 87.4728C86.4543 87.4074 86.6708 87.518 86.7363 87.7195C86.8017 87.921 86.6911 88.1375 86.4896 88.203C86.1253 88.3206 85.7599 88.4313 85.3941 88.5336C85.4829 88.6418 85.5092 88.7951 85.4495 88.9324L85.4043 89.0352C84.8811 90.2203 84.2974 91.3591 83.6685 92.4192C83.6001 92.5346 83.4794 92.6017 83.3551 92.6075ZM79.6118 89.4908C78.5432 89.5403 77.4674 89.5188 76.4146 89.4277C76.2031 89.4091 76.0468 89.2233 76.0655 89.0118C76.0841 88.8003 76.2706 88.6441 76.4813 88.6627C77.501 88.7515 78.5421 88.7716 79.5762 88.7236C79.8125 88.7127 80.0509 88.6978 80.2853 88.68C80.2892 88.6798 80.293 88.6796 80.2968 88.6794C80.5032 88.6699 80.6811 88.8261 80.6977 89.0337C80.7136 89.2451 80.5554 89.4293 80.3439 89.446C80.1026 89.4641 79.8558 89.4794 79.6118 89.4908ZM74.1665 89.1099C74.1366 89.1113 74.1065 89.1096 74.0762 89.1034C72.7646 88.8521 71.4913 88.4853 70.294 88.0142C70.0967 87.9365 69.9994 87.7134 70.0772 87.5161C70.1549 87.3187 70.3779 87.2215 70.5753 87.2992C71.7295 87.7531 72.956 88.1067 74.2211 88.3486C74.429 88.3882 74.566 88.5894 74.5257 88.7981C74.4916 88.9757 74.3399 89.1019 74.1665 89.1099ZM88.5683 87.4215C88.411 87.4288 88.2584 87.3375 88.1952 87.1836C88.1146 86.9875 88.2087 86.7632 88.4049 86.6826C89.5501 86.2136 90.7114 85.6584 91.8563 85.0318C92.0422 84.9302 92.2752 84.9985 92.3777 85.1844C92.4793 85.3704 92.411 85.6042 92.225 85.7058C91.0546 86.346 89.8678 86.9138 88.6962 87.3933C88.6547 87.4106 88.6113 87.4195 88.5683 87.4215ZM85.9672 87.0018C85.9189 87.004 85.8702 86.997 85.8217 86.9801C85.6216 86.9094 85.5169 86.6898 85.5876 86.4905C86.0177 85.2727 86.367 84.0364 86.6272 82.8158C86.6714 82.6085 86.8758 82.476 87.0824 82.5203C87.2897 82.5645 87.4222 82.7682 87.378 82.9755C87.1117 84.2287 86.7523 85.4969 86.3113 86.7459C86.2576 86.8976 86.1184 86.9948 85.9672 87.0018ZM68.3463 87.0621C68.2788 87.0652 68.2097 87.0507 68.1458 87.016C66.97 86.3787 65.8785 85.6213 64.9017 84.7672C64.7423 84.6277 64.7264 84.3847 64.8658 84.2253C65.0053 84.0658 65.2483 84.0499 65.4077 84.1894C66.3413 85.0063 67.3858 85.7305 68.512 86.341C68.6981 86.4423 68.7673 86.6751 68.6668 86.8619C68.6002 86.9842 68.4767 87.056 68.3463 87.0621ZM94.0616 84.5781C93.9274 84.5844 93.7945 84.5198 93.7181 84.398C93.6052 84.218 93.6603 83.981 93.8396 83.8689C94.8907 83.2104 95.953 82.4777 96.9982 81.6912C97.1676 81.5634 97.4083 81.5976 97.536 81.7669C97.6638 81.9363 97.6296 82.177 97.4603 82.3047C96.398 83.1051 95.3171 83.8503 94.2473 84.5203C94.189 84.5569 94.1253 84.5752 94.0616 84.5781ZM63.5492 83.2039C63.4341 83.2093 63.3174 83.1624 63.2369 83.0677C62.3931 82.0636 61.6663 80.9488 61.0782 79.7552C60.9848 79.5651 61.0625 79.3347 61.2527 79.2413C61.4428 79.1471 61.6732 79.2256 61.7666 79.4158C62.3276 80.5545 63.0197 81.6171 63.8244 82.5738C63.9611 82.7358 63.94 82.9782 63.7772 83.1149C63.7099 83.1711 63.6305 83.2001 63.5492 83.2039ZM99.0699 80.9408C98.9533 80.9462 98.8365 80.8986 98.7559 80.8024C98.6207 80.6388 98.6433 80.3971 98.807 80.2619L98.9528 80.1405C99.9084 79.3443 100.812 78.5167 101.638 77.6804C101.787 77.5297 102.03 77.5277 102.181 77.6767C102.332 77.8258 102.334 78.0686 102.185 78.2201C101.341 79.0741 100.419 79.9187 99.4453 80.7304L99.298 80.8526C99.2313 80.9079 99.1497 80.9371 99.0699 80.9408ZM87.4081 80.9906C87.3866 80.9916 87.3643 80.9911 87.3427 80.9883C87.1323 80.9619 86.9828 80.7705 87.0091 80.5594C87.17 79.2711 87.2283 77.9922 87.1833 76.7581C87.1759 76.5478 87.3391 76.3703 87.5492 76.3606L87.5531 76.3604C87.7649 76.3529 87.9433 76.5183 87.9508 76.7302C87.9969 78.005 87.9367 79.3255 87.7707 80.654C87.7472 80.8419 87.5915 80.9821 87.4081 80.9906ZM103.502 76.6252C103.408 76.6296 103.312 76.5994 103.235 76.533C103.074 76.3952 103.055 76.1531 103.193 75.9915C104.056 74.9828 104.819 73.9525 105.462 72.9294C105.574 72.7497 105.812 72.6956 105.991 72.8088C106.171 72.9219 106.225 73.1585 106.112 73.3382C105.45 74.393 104.664 75.4543 103.777 76.491C103.705 76.575 103.605 76.6204 103.502 76.6252ZM60.567 77.8185C60.3983 77.8264 60.2389 77.7215 60.1842 77.5534C59.7681 76.2734 59.5175 74.9658 59.4388 73.6664C59.4259 73.4548 59.5873 73.2728 59.7989 73.2599L59.8043 73.2596C60.0137 73.2499 60.1926 73.41 60.2054 73.62C60.2804 74.8543 60.5187 76.0979 60.9143 77.3158C60.9797 77.5172 60.8691 77.7338 60.6676 77.7993C60.6343 77.81 60.6008 77.817 60.567 77.8185ZM87.3761 74.8164C87.1813 74.8255 87.0072 74.6852 86.9788 74.4881C86.7937 73.2159 86.488 71.9785 86.0702 70.8109C85.9986 70.6112 86.1029 70.3911 86.3026 70.3204C86.5015 70.2489 86.7223 70.3524 86.7939 70.5528C87.2286 71.7689 87.5473 73.0556 87.7394 74.3783C87.7699 74.5883 87.6244 74.7834 87.4144 74.8139C87.4015 74.816 87.3892 74.8158 87.3761 74.8164ZM106.93 71.489C106.869 71.4918 106.805 71.4802 106.746 71.4514C106.555 71.3596 106.475 71.1296 106.567 70.9385C107.139 69.7526 107.561 68.556 107.821 67.3808C107.866 67.1734 108.072 67.0424 108.278 67.0889C108.486 67.1347 108.616 67.34 108.57 67.5467C108.298 68.7802 107.856 70.0338 107.258 71.2724C107.194 71.4037 107.066 71.4827 106.93 71.489ZM59.8922 71.7087C59.8731 71.7096 59.853 71.709 59.8329 71.7069C59.622 71.6844 59.4695 71.4947 59.4927 71.2837C59.6385 69.9346 59.9821 68.6425 60.5139 67.4439C60.6002 67.25 60.8268 67.1626 61.0207 67.2489C61.2146 67.3353 61.302 67.5618 61.2157 67.7557C60.7159 68.8821 60.3933 70.0972 60.2554 71.3667C60.235 71.5575 60.0786 71.7001 59.8922 71.7087ZM85.5144 68.9408C85.3702 68.9475 85.2283 68.8726 85.1567 68.736C84.5708 67.6246 83.8555 66.5746 83.0291 65.615C82.891 65.4546 82.9089 65.2116 83.0694 65.0735C83.2298 64.9354 83.4728 64.9533 83.6109 65.1137C84.4747 66.1169 85.2229 67.2146 85.8358 68.3778C85.9344 68.5654 85.863 68.7978 85.6753 68.8965C85.6235 68.9235 85.5689 68.9383 85.5144 68.9408ZM62.0243 65.9646C61.9423 65.9684 61.859 65.9461 61.7867 65.8957C61.6126 65.7738 61.5708 65.5344 61.6927 65.3611C62.4468 64.2836 63.3699 63.3175 64.4347 62.4885C64.6024 62.3585 64.8436 62.3888 64.9736 62.5558C65.1036 62.7235 65.0741 62.9647 64.9064 63.0948C63.9025 63.8763 63.0329 64.7869 62.322 65.8016C62.2514 65.9033 62.1394 65.9593 62.0243 65.9646ZM81.7079 64.0973C81.612 64.1017 81.5137 64.0701 81.4359 64.0015C80.4716 63.1513 79.4273 62.4333 78.3318 61.8691C78.1435 61.7718 78.069 61.5407 78.1663 61.3517C78.2637 61.1634 78.4955 61.0889 78.6837 61.1862C79.8352 61.7794 80.9326 62.5326 81.9442 63.4251C82.103 63.5654 82.1189 63.8083 81.9786 63.9671C81.907 64.048 81.8076 64.0926 81.7079 64.0973ZM66.6352 61.9152C66.4918 61.9218 66.3499 61.8469 66.2783 61.7119C66.1789 61.5243 66.2504 61.2919 66.4372 61.1925C67.6287 60.5598 68.8873 60.114 70.1796 59.8656C70.3876 59.826 70.5892 59.962 70.6289 60.1708C70.6685 60.3788 70.5326 60.5804 70.3238 60.6201C69.1068 60.8533 67.9201 61.2743 66.7969 61.8708C66.7452 61.8985 66.6897 61.9126 66.6352 61.9152ZM76.3835 61.0208C76.339 61.0229 76.2934 61.0173 76.2489 61.0025C75.033 60.613 73.7914 60.413 72.5596 60.4087C72.3474 60.4078 72.1764 60.235 72.1773 60.0236C72.1782 59.8114 72.3502 59.6404 72.5624 59.6413C73.8734 59.6458 75.1925 59.8583 76.4833 60.2712C76.6854 60.3357 76.7969 60.5519 76.7317 60.754C76.6813 60.9109 76.5392 61.0136 76.3835 61.0208Z" class="frame"/>
</g>
<defs>
<clipPath id="clip0_543_5066">
<rect width="260" height="132" rx="16.119" class="plane"/>
</clipPath>
</defs>
</svg>
