<svg width="37" height="32" viewBox="0 0 37 32" fill="none" xmlns="http://www.w3.org/2000/svg">
<path d="M16.0068 1.44298e-06L15.9999 0C7.16342 0 0 7.16344 0 16C0 24.8366 7.16342 32 15.9999 32L16.0068 32V16.7365C16.3881 23.3029 21.8339 28.5102 28.4958 28.5102L28.5012 28.5102V3.48946L28.4958 3.48946C21.8339 3.48946 16.3881 8.69677 16.0068 15.2632V1.44298e-06Z" fill="white"/>
<path d="M36.7451 7.76635L36.7485 7.76635V24.2347L36.7451 24.2347C32.1975 24.2347 28.5109 20.5481 28.5109 16.0005C28.5109 11.4529 32.1975 7.76635 36.7451 7.76635Z" fill="white"/>
</svg>
