<svg width="12" height="12" viewBox="0 0 12 12" fill="none" xmlns="http://www.w3.org/2000/svg">
<path fill-rule="evenodd" clip-rule="evenodd" d="M3 1.5C2.17157 1.5 1.5 2.17157 1.5 3C1.5 3.82843 2.17157 4.5 3 4.5C3.82843 4.5 4.5 3.82843 4.5 3C4.5 2.17157 3.82843 1.5 3 1.5ZM3 0.5H9C10.3807 0.5 11.5 1.61929 11.5 3C11.5 4.38071 10.3807 5.5 9 5.5H3C1.61929 5.5 0.5 4.38071 0.5 3C0.5 1.61929 1.61929 0.5 3 0.5ZM9 7.5C8.17157 7.5 7.5 8.17157 7.5 9C7.5 9.82843 8.17157 10.5 9 10.5C9.82843 10.5 10.5 9.82843 10.5 9C10.5 8.17157 9.82843 7.5 9 7.5ZM9 11.5H3C1.61929 11.5 0.5 10.3807 0.5 9C0.5 7.61929 1.61929 6.5 3 6.5H9C10.3807 6.5 11.5 7.61929 11.5 9C11.5 10.3807 10.3807 11.5 9 11.5Z" fill="#A094FF"/>
</svg>
