<svg width="16" height="16" viewBox="0 0 16 16" fill="none" xmlns="http://www.w3.org/2000/svg">
<path d="M3.59949 4.69975C3.76534 4.47896 3.72081 4.16553 3.50002 3.99967C3.27923 3.83382 2.9658 3.87835 2.79994 4.09914C1.98381 5.18558 1.5 6.53684 1.5 7.99965C1.5 9.46247 1.98382 10.8137 2.79995 11.9002C2.96581 12.121 3.27924 12.1655 3.50003 11.9996C3.72082 11.8338 3.76535 11.5203 3.59949 11.2996C2.90898 10.3803 2.5 9.23848 2.5 7.99965C2.5 6.76082 2.90898 5.61896 3.59949 4.69975Z" fill="#40C288"/>
<path d="M13.2001 4.09914C13.0342 3.87835 12.7208 3.83382 12.5 3.99967C12.2792 4.16553 12.2347 4.47896 12.4005 4.69975C13.091 5.61896 13.5 6.76082 13.5 7.99965C13.5 9.23848 13.091 10.3803 12.4005 11.2996C12.2347 11.5203 12.2792 11.8338 12.5 11.9996C12.7208 12.1655 13.0342 12.121 13.2 11.9002C14.0162 10.8137 14.5 9.46247 14.5 7.99965C14.5 6.53684 14.0162 5.18558 13.2001 4.09914Z" fill="#40C288"/>
<path d="M4.93285 5.69978C5.0987 5.47899 5.05417 5.16556 4.83338 4.9997C4.61259 4.83385 4.29916 4.87838 4.1333 5.09917C3.52644 5.90705 3.16663 6.91203 3.16663 7.99961C3.16663 9.08722 3.52646 10.0922 4.13337 10.9001C4.29923 11.1209 4.61266 11.1654 4.83345 10.9996C5.05423 10.8337 5.09876 10.5203 4.9329 10.2995C4.45162 9.65885 4.16663 8.86323 4.16663 7.99961C4.16663 7.13602 4.4516 6.34042 4.93285 5.69978Z" fill="#40C288"/>
<path d="M11.8666 5.09921C11.7008 4.87842 11.3874 4.83389 11.1666 4.99974C10.9458 5.16559 10.9012 5.47902 11.0671 5.69981C11.5483 6.34045 11.8333 7.13603 11.8333 7.99961C11.8333 8.86321 11.5483 9.65882 11.067 10.2995C10.9012 10.5203 10.9457 10.8337 11.1665 10.9995C11.3873 11.1654 11.7007 11.1209 11.8666 10.9001C12.4735 10.0922 12.8333 9.0872 12.8333 7.99961C12.8333 6.91205 12.4735 5.90708 11.8666 5.09921Z" fill="#40C288"/>
<path d="M10.5332 6.09926C10.3674 5.87847 10.054 5.83394 9.83317 5.9998C9.61238 6.16566 9.56785 6.47909 9.73371 6.69988C10.0057 7.06197 10.1667 7.51131 10.1667 7.99969C10.1667 8.48806 10.0057 8.9374 9.73372 9.29949C9.56787 9.52027 9.6124 9.83371 9.83318 9.99956C10.054 10.1654 10.3674 10.1209 10.5333 9.9001C10.9309 9.37078 11.1667 8.71205 11.1667 7.99969C11.1667 7.28732 10.9309 6.62858 10.5332 6.09926Z" fill="#40C288"/>
<path d="M6.26635 6.69991C6.4322 6.47912 6.38767 6.16569 6.16688 5.99983C5.94609 5.83398 5.63266 5.87851 5.4668 6.0993C5.06919 6.62862 4.83337 7.28734 4.83337 7.99969C4.83337 8.71203 5.06918 9.37074 5.46679 9.90006C5.63264 10.1208 5.94607 10.1654 6.16686 9.99953C6.38765 9.83368 6.43219 9.52024 6.26634 9.29945C5.99435 8.93737 5.83337 8.48805 5.83337 7.99969C5.83337 7.51132 5.99435 7.06199 6.26635 6.69991Z" fill="#40C288"/>
<path fill-rule="evenodd" clip-rule="evenodd" d="M8 6.49966C7.17157 6.49966 6.5 7.17124 6.5 7.99966C6.5 8.82809 7.17157 9.49966 8 9.49966C8.82843 9.49966 9.5 8.82809 9.5 7.99966C9.5 7.17124 8.82843 6.49966 8 6.49966ZM7.5 7.99966C7.5 7.72352 7.72386 7.49966 8 7.49966C8.27614 7.49966 8.5 7.72352 8.5 7.99966C8.5 8.27581 8.27614 8.49966 8 8.49966C7.72386 8.49966 7.5 8.27581 7.5 7.99966Z" fill="#40C288"/>
</svg>
